SplineFontDB: 3.0
FontName: Geneva-Black-Italic
FullName: Geneva Black Italic
FamilyName: Geneva
Weight: Black
Copyright: Copyright 2011 Google Inc. All Rights Reserved.
Version: 2.001171; 2014
DefaultBaseFilename: Geneva-900-Italic
ItalicAngle: -12
UnderlinePosition: -200
UnderlineWidth: 100
Ascent: 1536
Descent: 512
InvalidEm: 0
sfntRevision: 0x00020000
LayerCount: 2
Layer: 0 1 "Back" 1
Layer: 1 1 "Fore" 0
XUID: [1021 805 -1179658985 11194490]
FSType: 0
OS2Version: 3
OS2_WeightWidthSlopeOnly: 0
OS2_UseTypoMetrics: 1
CreationTime: 1221222574
ModificationTime: 1431279756
PfmFamily: 17
TTFWeight: 900
TTFWidth: 5
LineGap: 0
VLineGap: 0
Panose: 2 0 0 0 0 0 0 0 0 0
OS2TypoAscent: 1536
OS2TypoAOffset: 0
OS2TypoDescent: -512
OS2TypoDOffset: 0
OS2TypoLinegap: 102
OS2WinAscent: 1946
OS2WinAOffset: 0
OS2WinDescent: 512
OS2WinDOffset: 0
HheadAscent: 1900
HheadAOffset: 0
HheadDescent: -500
HheadDOffset: 0
OS2SubXSize: 1434
OS2SubYSize: 1331
OS2SubXOff: 0
OS2SubYOff: 287
OS2SupXSize: 1434
OS2SupYSize: 1331
OS2SupXOff: 0
OS2SupYOff: 977
OS2StrikeYSize: 102
OS2StrikeYPos: 512
OS2CapHeight: 1456
OS2XHeight: 1082
OS2Vendor: 'GOOG'
OS2CodePages: 2000019f.00000000
OS2UnicodeRanges: e0000aff.5000217f.00000021.00000000
Lookup: 1 0 0 "'c2sc' Capitals to Small Capitals in Latin lookup 0" { "'c2sc' Capitals to Small Capitals in Latin lookup 0 subtable"  } ['c2sc' ('latn' <'AZE ' 'CRT ' 'MOL ' 'NAV ' 'ROM ' 'TUR ' 'dflt' > ) ]
Lookup: 1 0 0 "'c2sc' Capitals to Small Capitals lookup 1" { "'c2sc' Capitals to Small Capitals lookup 1 subtable"  } ['c2sc' ('DFLT' <'dflt' > ) ]
Lookup: 1 0 0 "'c2sc' Capitals to Small Capitals in Greek lookup 2" { "'c2sc' Capitals to Small Capitals in Greek lookup 2 subtable"  } ['c2sc' ('grek' <'dflt' > ) ]
Lookup: 1 0 0 "'c2sc' Capitals to Small Capitals in Cyrillic lookup 3" { "'c2sc' Capitals to Small Capitals in Cyrillic lookup 3 subtable"  } ['c2sc' ('cyrl' <'dflt' > ) ]

StartChar: .notdef
Encoding: 1114112 -1 0
Width: 918
Flags: W
LayerCount: 2
Back
Fore
SplineSet
808 0 m 1,0,-1
 100 0 l 1,1,-1
 100 1456 l 1,2,-1
 808 1456 l 1,3,-1
 808 0 l 1,0,-1
754 84 m 1,4,-1
 754 1371 l 1,5,-1
 480 728 l 1,6,-1
 754 84 l 1,4,-1
154 1359 m 1,7,-1
 154 96 l 1,8,-1
 422 728 l 1,9,-1
 154 1359 l 1,7,-1
194 54 m 1,10,-1
 709 54 l 1,11,-1
 451 660 l 1,12,-1
 194 54 l 1,10,-1
451 796 m 1,13,-1
 709 1402 l 1,14,-1
 194 1402 l 1,15,-1
 451 796 l 1,13,-1
EndSplineSet
EndChar

StartChar: exclam
Encoding: 33 33 5
Width: 558
Flags: W
LayerCount: 2
Back
Fore
SplineSet
395 461 m 1,0,-1
 128 461 l 1,1,-1
 259 1456 l 1,2,-1
 609 1456 l 1,3,-1
 395 461 l 1,0,-1
23 145 m 0,4,5
 21 218 21 218 74 269.5 c 128,-1,6
 127 321 127 321 205 321 c 0,7,8
 282 321 282 321 333 274 c 128,-1,9
 384 227 384 227 386 157 c 0,10,11
 388 82 388 82 335 31.5 c 128,-1,12
 282 -19 282 -19 204 -19 c 0,13,14
 129 -19 129 -19 77 27.5 c 128,-1,15
 25 74 25 74 23 145 c 0,4,5
EndSplineSet
EndChar

StartChar: quotedbl
Encoding: 34 34 6
Width: 640
Flags: W
LayerCount: 2
Back
Fore
SplineSet
371 1382 m 1,0,-1
 266 969 l 1,1,-1
 81 969 l 1,2,-1
 170 1537 l 1,3,-1
 395 1537 l 1,4,-1
 371 1382 l 1,0,-1
711 1382 m 1,5,-1
 606 969 l 1,6,-1
 423 969 l 1,7,-1
 512 1537 l 1,8,-1
 736 1537 l 1,9,-1
 711 1382 l 1,5,-1
EndSplineSet
EndChar

StartChar: numbersign
Encoding: 35 35 7
Width: 1164
Flags: W
LayerCount: 2
Back
Fore
SplineSet
557 410 m 1,0,-1
 409 410 l 1,1,-1
 272 0 l 1,2,-1
 71 0 l 1,3,-1
 208 410 l 1,4,-1
 -5 410 l 1,5,-1
 27 593 l 1,6,-1
 268 593 l 1,7,-1
 357 857 l 1,8,-1
 145 857 l 1,9,-1
 178 1040 l 1,10,-1
 418 1040 l 1,11,-1
 557 1456 l 1,12,-1
 757 1456 l 1,13,-1
 618 1040 l 1,14,-1
 767 1040 l 1,15,-1
 906 1456 l 1,16,-1
 1107 1456 l 1,17,-1
 968 1040 l 1,18,-1
 1189 1040 l 1,19,-1
 1157 857 l 1,20,-1
 908 857 l 1,21,-1
 819 593 l 1,22,-1
 1038 593 l 1,23,-1
 1006 410 l 1,24,-1
 758 410 l 1,25,-1
 622 0 l 1,26,-1
 421 0 l 1,27,-1
 557 410 l 1,0,-1
469 593 m 1,28,-1
 617 593 l 1,29,-1
 707 857 l 1,30,-1
 558 857 l 1,31,-1
 469 593 l 1,28,-1
EndSplineSet
EndChar

StartChar: dollar
Encoding: 36 36 8
Width: 1160
Flags: W
LayerCount: 2
Back
Fore
SplineSet
710 394 m 0,0,1
 719 463 719 463 691 509.5 c 128,-1,2
 663 556 663 556 585 594.5 c 128,-1,3
 507 633 507 633 436.5 674 c 128,-1,4
 366 715 366 715 313.5 768.5 c 128,-1,5
 261 822 261 822 231.5 892.5 c 128,-1,6
 202 963 202 963 208 1061 c 0,7,8
 219 1236 219 1236 344.5 1345.5 c 128,-1,9
 470 1455 470 1455 669 1473 c 1,10,-1
 709 1685 l 1,11,-1
 866 1685 l 1,12,-1
 824 1467 l 1,13,14
 978 1437 978 1437 1063 1314.5 c 128,-1,15
 1148 1192 1148 1192 1144 1005 c 1,16,-1
 814 1006 l 1,17,18
 818 1122 818 1122 787.5 1171.5 c 128,-1,19
 757 1221 757 1221 696 1222 c 0,20,21
 629 1222 629 1222 585 1175 c 128,-1,22
 541 1128 541 1128 533 1059 c 0,23,24
 525 996 525 996 554.5 950.5 c 128,-1,25
 584 905 584 905 660 866 c 128,-1,26
 736 827 736 827 806 784.5 c 128,-1,27
 876 742 876 742 928.5 688 c 128,-1,28
 981 634 981 634 1010.5 563 c 128,-1,29
 1040 492 1040 492 1034 395 c 0,30,31
 1023 221 1023 221 904.5 112.5 c 128,-1,32
 786 4 786 4 587 -16 c 1,33,-1
 548 -218 l 1,34,-1
 392 -218 l 1,35,-1
 432 -14 l 1,36,37
 251 10 251 10 151.5 137 c 128,-1,38
 52 264 52 264 58 468 c 1,39,-1
 386 467 l 1,40,41
 381 354 381 354 420.5 294.5 c 128,-1,42
 460 235 460 235 540 235 c 0,43,44
 606 235 606 235 652.5 277.5 c 128,-1,45
 699 320 699 320 710 394 c 0,0,1
EndSplineSet
Substitution2: "'c2sc' Capitals to Small Capitals in Cyrillic lookup 3 subtable" dollar.c2sc
Substitution2: "'c2sc' Capitals to Small Capitals in Greek lookup 2 subtable" dollar.c2sc
Substitution2: "'c2sc' Capitals to Small Capitals lookup 1 subtable" dollar.c2sc
Substitution2: "'c2sc' Capitals to Small Capitals in Latin lookup 0 subtable" dollar.c2sc
Position2: "'cpsp' Capital Spacing in Cyrillic lookup 3 subtable" dx=36 dy=0 dh=72 dv=0
Position2: "'cpsp' Capital Spacing in Greek lookup 2 subtable" dx=36 dy=0 dh=72 dv=0
Position2: "'cpsp' Capital Spacing lookup 1 subtable" dx=36 dy=0 dh=72 dv=0
Position2: "'cpsp' Capital Spacing in Latin lookup 0 subtable" dx=36 dy=0 dh=72 dv=0
EndChar

StartChar: percent
Encoding: 37 37 9
Width: 1484
Flags: W
LayerCount: 2
Back
Fore
SplineSet
529 1477 m 0,0,1
 664 1475 664 1475 744 1393 c 128,-1,2
 824 1311 824 1311 816 1176 c 2,3,-1
 811 1109 l 2,4,5
 800 967 800 967 706 882.5 c 128,-1,6
 612 798 612 798 468 800 c 0,7,8
 335 802 335 802 254 884.5 c 128,-1,9
 173 967 173 967 179 1099 c 1,10,-1
 185 1174 l 2,11,12
 197 1311 197 1311 292 1395 c 128,-1,13
 387 1479 387 1479 529 1477 c 0,0,1
391 1097 m 2,14,15
 386 1044 386 1044 407.5 1012.5 c 128,-1,16
 429 981 429 981 471 981 c 0,17,18
 516 979 516 979 550.5 1011 c 128,-1,19
 585 1043 585 1043 595 1099 c 2,20,-1
 606 1177 l 1,21,22
 616 1292 616 1292 527 1296 c 0,23,24
 482 1298 482 1298 446 1264 c 128,-1,25
 410 1230 410 1230 401 1176 c 2,26,-1
 391 1097 l 2,14,15
1058 658 m 0,27,28
 1193 656 1193 656 1274 573.5 c 128,-1,29
 1355 491 1355 491 1347 357 c 2,30,-1
 1341 280 l 2,31,32
 1327 139 1327 139 1231.5 57 c 128,-1,33
 1136 -25 1136 -25 998 -21 c 0,34,35
 867 -19 867 -19 785 62.5 c 128,-1,36
 703 144 703 144 709 280 c 1,37,-1
 715 358 l 2,38,39
 723 448 723 448 769.5 517.5 c 128,-1,40
 816 587 816 587 890.5 623 c 128,-1,41
 965 659 965 659 1058 658 c 0,27,28
920 276 m 2,42,43
 918 228 918 228 939 195.5 c 128,-1,44
 960 163 960 163 1001 161 c 0,45,46
 1109 157 1109 157 1128 293 c 2,47,-1
 1137 359 l 2,48,49
 1142 410 1142 410 1122 442 c 128,-1,50
 1102 474 1102 474 1057 476 c 0,51,52
 1010 478 1010 478 974 442.5 c 128,-1,53
 938 407 938 407 930 357 c 2,54,-1
 920 276 l 2,42,43
396 111 m 1,55,-1
 242 198 l 1,56,-1
 1120 1323 l 1,57,-1
 1273 1237 l 1,58,-1
 396 111 l 1,55,-1
EndSplineSet
EndChar

StartChar: ampersand
Encoding: 38 38 10
Width: 1349
Flags: W
LayerCount: 2
Back
Fore
SplineSet
329 770 m 1,0,-1
 302 834 l 2,1,2
 246 970 246 970 254 1077 c 0,3,4
 262 1192 262 1192 321.5 1285 c 128,-1,5
 381 1378 381 1378 480 1429 c 128,-1,6
 579 1480 579 1480 695 1477 c 0,7,8
 793 1474 793 1474 872.5 1429 c 128,-1,9
 952 1384 952 1384 994.5 1305.5 c 128,-1,10
 1037 1227 1037 1227 1032 1135 c 0,11,12
 1021 940 1021 940 791 793 c 2,13,-1
 697 733 l 1,14,-1
 865 486 l 1,15,16
 944 604 944 604 960 729 c 1,17,-1
 1234 729 l 1,18,19
 1215 441 1215 441 1035 251 c 1,20,-1
 1206 0 l 1,21,-1
 858 0 l 1,22,-1
 808 75 l 1,23,24
 627 -24 627 -24 439 -20 c 0,25,26
 314 -17 314 -17 214.5 35 c 128,-1,27
 115 87 115 87 65 177.5 c 128,-1,28
 15 268 15 268 22 384 c 0,29,30
 36 612 36 612 329 770 c 1,0,-1
474 240 m 0,31,32
 540 237 540 237 651 282 c 1,33,-1
 457 578 l 1,34,-1
 444 571 l 1,35,36
 370 485 370 485 360 405 c 0,37,38
 351 335 351 335 383.5 288.5 c 128,-1,39
 416 242 416 242 474 240 c 0,31,32
531 1082 m 0,40,41
 522 1016 522 1016 573 919 c 1,42,-1
 642 959 l 2,43,44
 747 1024 747 1024 757 1111 c 0,45,46
 762 1153 762 1153 740.5 1185 c 128,-1,47
 719 1217 719 1217 674 1218 c 0,48,49
 623 1220 623 1220 581.5 1180.5 c 128,-1,50
 540 1141 540 1141 531 1082 c 0,40,41
EndSplineSet
EndChar

StartChar: quotesingle
Encoding: 39 39 11
Width: 317
Flags: W
LayerCount: 2
Back
Fore
SplineSet
394 1358 m 1,0,-1
 301 961 l 1,1,-1
 97 961 l 1,2,-1
 187 1536 l 1,3,-1
 422 1536 l 1,4,-1
 394 1358 l 1,0,-1
EndSplineSet
EndChar

StartChar: parenleft
Encoding: 40 40 12
Width: 711
Flags: W
LayerCount: 2
Back
Fore
SplineSet
749 1608 m 1,0,-1
 800 1438 l 1,1,2
 607 1294 607 1294 498 1039 c 128,-1,3
 389 784 389 784 356 371 c 1,4,-1
 351 273 l 1,5,6
 336 -136 336 -136 527 -284 c 1,7,-1
 455 -450 l 1,8,9
 334 -389 334 -389 251 -269.5 c 128,-1,10
 168 -150 168 -150 131 22 c 128,-1,11
 94 194 94 194 100 380 c 0,12,13
 109 657 109 657 192 917 c 128,-1,14
 275 1177 275 1177 417 1356 c 128,-1,15
 559 1535 559 1535 749 1608 c 1,0,-1
EndSplineSet
EndChar

StartChar: parenright
Encoding: 41 41 13
Width: 709
Flags: W
LayerCount: 2
Back
Fore
SplineSet
603 569 m 1,0,1
 571 329 571 329 477.5 113.5 c 128,-1,2
 384 -102 384 -102 248.5 -246.5 c 128,-1,3
 113 -391 113 -391 -51 -452 c 1,4,-1
 -102 -282 l 1,5,6
 91 -134 91 -134 200.5 121 c 128,-1,7
 310 376 310 376 342 786 c 1,8,-1
 348 884 l 1,9,10
 358 1295 358 1295 171 1440 c 1,11,-1
 244 1606 l 1,12,13
 418 1521 418 1521 514 1322.5 c 128,-1,14
 610 1124 610 1124 618 841 c 2,15,-1
 619 778 l 2,16,17
 617 682 617 682 606 597 c 2,18,-1
 603 569 l 1,0,1
EndSplineSet
EndChar

StartChar: asterisk
Encoding: 42 42 14
Width: 933
Flags: W
LayerCount: 2
Back
Fore
SplineSet
398 963 m 1,0,-1
 99 1052 l 1,1,-1
 190 1231 l 1,2,-1
 485 1097 l 1,3,-1
 523 1456 l 1,4,-1
 732 1456 l 1,5,-1
 646 1106 l 1,6,-1
 960 1229 l 1,7,-1
 991 1028 l 1,8,-1
 653 938 l 1,9,-1
 823 667 l 1,10,-1
 648 558 l 1,11,-1
 521 853 l 1,12,-1
 295 573 l 1,13,-1
 134 696 l 1,14,-1
 398 963 l 1,0,-1
EndSplineSet
EndChar

StartChar: plus
Encoding: 43 43 15
Width: 1071
Flags: W
LayerCount: 2
Back
Fore
SplineSet
721 826 m 1,0,-1
 1052 826 l 1,1,-1
 1002 537 l 1,2,-1
 672 537 l 1,3,-1
 603 146 l 1,4,-1
 296 146 l 1,5,-1
 364 537 l 1,6,-1
 32 537 l 1,7,-1
 82 826 l 1,8,-1
 414 826 l 1,9,-1
 480 1206 l 1,10,-1
 787 1206 l 1,11,-1
 721 826 l 1,0,-1
EndSplineSet
EndChar

StartChar: comma
Encoding: 44 44 16
Width: 545
Flags: W
LayerCount: 2
Back
Fore
SplineSet
52 -391 m 1,0,-1
 -113 -312 l 1,1,-1
 -21 -149 l 2,2,3
 31 -54 31 -54 44 21 c 2,4,-1
 85 254 l 1,5,-1
 349 254 l 1,6,-1
 314 46 l 2,7,8
 269 -221 269 -221 52 -391 c 1,0,-1
EndSplineSet
EndChar

StartChar: hyphen
Encoding: 45 45 17
Width: 903
Flags: W
LayerCount: 2
Back
Fore
SplineSet
714 497 m 1,0,-1
 129 497 l 1,1,-1
 174 758 l 1,2,-1
 759 758 l 1,3,-1
 714 497 l 1,0,-1
EndSplineSet
EndChar

StartChar: period
Encoding: 46 46 18
Width: 610
Flags: W
LayerCount: 2
Back
Fore
SplineSet
38 152 m 0,0,1
 36 228 36 228 90 278 c 128,-1,2
 144 328 144 328 219 328 c 0,3,4
 293 328 293 328 345 282.5 c 128,-1,5
 397 237 397 237 399 164 c 0,6,7
 401 89 401 89 348 38.5 c 128,-1,8
 295 -12 295 -12 218 -12 c 0,9,10
 142 -12 142 -12 91 34 c 128,-1,11
 40 80 40 80 38 152 c 0,0,1
EndSplineSet
EndChar

StartChar: slash
Encoding: 47 47 19
Width: 707
Flags: W
LayerCount: 2
Back
Fore
SplineSet
85 -125 m 1,0,-1
 -160 -125 l 1,1,-1
 596 1456 l 1,2,-1
 842 1456 l 1,3,-1
 85 -125 l 1,0,-1
EndSplineSet
Substitution2: "'frac' Diagonal Fractions lookup 63 subtable" fraction
EndChar

StartChar: zero
Encoding: 48 48 20
Width: 1160
Flags: W
LayerCount: 2
Back
Fore
SplineSet
491 -20 m 0,0,1
 367 -17 367 -17 274.5 38.5 c 128,-1,2
 182 94 182 94 132 201.5 c 128,-1,3
 82 309 82 309 78 446 c 0,4,5
 75 520 75 520 84 595 c 2,6,-1
 122 849 l 2,7,8
 168 1156 168 1156 319 1318.5 c 128,-1,9
 470 1481 470 1481 704 1476 c 0,10,11
 894 1472 894 1472 1001.5 1348 c 128,-1,12
 1109 1224 1109 1224 1117 1010 c 0,13,14
 1119 936 1119 936 1110 861 c 2,15,-1
 1070 602 l 2,16,17
 1022 291 1022 291 871.5 133 c 128,-1,18
 721 -25 721 -25 491 -20 c 0,0,1
788 906 m 2,19,20
 797 976 797 976 798 1029 c 0,21,22
 798 1212 798 1212 682 1218 c 0,23,24
 504 1227 504 1227 461 913 c 2,25,-1
 408 553 l 2,26,27
 398 470 398 470 398 430 c 0,28,29
 393 245 393 245 513 238 c 0,30,31
 694 229 694 229 736 551 c 1,32,-1
 788 906 l 2,19,20
EndSplineSet
Substitution2: "Single Substitution lookup 74 subtable" zero.dnom
Substitution2: "'numr' Numerators in Cyrillic lookup 73 subtable" zero.frac
Substitution2: "'numr' Numerators in Greek lookup 72 subtable" zero.frac
Substitution2: "'numr' Numerators lookup 71 subtable" zero.frac
Substitution2: "'numr' Numerators in Latin lookup 70 subtable" zero.frac
Substitution2: "'dnom' Denominators in Cyrillic lookup 69 subtable" zero.dnom
Substitution2: "'dnom' Denominators in Greek lookup 68 subtable" zero.dnom
Substitution2: "'dnom' Denominators lookup 67 subtable" zero.dnom
Substitution2: "'dnom' Denominators in Latin lookup 66 subtable" zero.dnom
Substitution2: "'frac' Diagonal Fractions lookup 65 subtable" zero.frac
Substitution2: "'pnum' Proportional Numbers in Cyrillic lookup 58 subtable" zero.pnum
Substitution2: "'pnum' Proportional Numbers in Greek lookup 57 subtable" zero.pnum
Substitution2: "'pnum' Proportional Numbers lookup 56 subtable" zero.pnum
Substitution2: "'pnum' Proportional Numbers in Latin lookup 55 subtable" zero.pnum
Substitution2: "'onum' Oldstyle Figures in Cyrillic lookup 50 subtable" zero.oldstyle
Substitution2: "'onum' Oldstyle Figures in Greek lookup 49 subtable" zero.oldstyle
Substitution2: "'onum' Oldstyle Figures lookup 48 subtable" zero.oldstyle
Substitution2: "'onum' Oldstyle Figures in Latin lookup 47 subtable" zero.oldstyle
EndChar

StartChar: one
Encoding: 49 49 21
Width: 1160
Flags: W
LayerCount: 2
Back
Fore
SplineSet
708 0 m 1,0,-1
 378 0 l 1,1,-1
 564 1070 l 1,2,-1
 225 974 l 1,3,-1
 271 1241 l 1,4,-1
 915 1456 l 1,5,-1
 952 1457 l 1,6,-1
 708 0 l 1,0,-1
EndSplineSet
Substitution2: "Single Substitution lookup 74 subtable" one.dnom
Substitution2: "'numr' Numerators in Cyrillic lookup 73 subtable" uni00B9
Substitution2: "'numr' Numerators in Greek lookup 72 subtable" uni00B9
Substitution2: "'numr' Numerators lookup 71 subtable" uni00B9
Substitution2: "'numr' Numerators in Latin lookup 70 subtable" uni00B9
Substitution2: "'dnom' Denominators in Cyrillic lookup 69 subtable" one.dnom
Substitution2: "'dnom' Denominators in Greek lookup 68 subtable" one.dnom
Substitution2: "'dnom' Denominators lookup 67 subtable" one.dnom
Substitution2: "'dnom' Denominators in Latin lookup 66 subtable" one.dnom
Substitution2: "'frac' Diagonal Fractions lookup 65 subtable" uni00B9
Substitution2: "'pnum' Proportional Numbers in Cyrillic lookup 58 subtable" one.pnum
Substitution2: "'pnum' Proportional Numbers in Greek lookup 57 subtable" one.pnum
Substitution2: "'pnum' Proportional Numbers lookup 56 subtable" one.pnum
Substitution2: "'pnum' Proportional Numbers in Latin lookup 55 subtable" one.pnum
Substitution2: "'onum' Oldstyle Figures in Cyrillic lookup 50 subtable" one.oldstyle
Substitution2: "'onum' Oldstyle Figures in Greek lookup 49 subtable" one.oldstyle
Substitution2: "'onum' Oldstyle Figures lookup 48 subtable" one.oldstyle
Substitution2: "'onum' Oldstyle Figures in Latin lookup 47 subtable" one.oldstyle
EndChar

StartChar: two
Encoding: 50 50 22
Width: 1160
Flags: W
LayerCount: 2
Back
Fore
SplineSet
979 0 m 1,0,-1
 -8 0 l 1,1,-1
 28 232 l 1,2,-1
 546 713 l 1,3,-1
 617 784 l 2,4,5
 784 952 784 952 770 1101 c 0,6,7
 759 1217 759 1217 650 1220 c 0,8,9
 573 1222 573 1222 519.5 1157.5 c 128,-1,10
 466 1093 466 1093 453 989 c 1,11,-1
 126 987 l 1,12,13
 134 1124 134 1124 209 1237.5 c 128,-1,14
 284 1351 284 1351 409.5 1415 c 128,-1,15
 535 1479 535 1479 677 1478 c 0,16,17
 890 1474 890 1474 1007 1362.5 c 128,-1,18
 1124 1251 1124 1251 1109 1061 c 0,19,20
 1100 949 1100 949 1035.5 843 c 128,-1,21
 971 737 971 737 848 620 c 2,22,-1
 696 480 l 1,23,-1
 470 262 l 1,24,-1
 1020 260 l 1,25,-1
 979 0 l 1,0,-1
EndSplineSet
Substitution2: "Single Substitution lookup 74 subtable" two.dnom
Substitution2: "'numr' Numerators in Cyrillic lookup 73 subtable" uni00B2
Substitution2: "'numr' Numerators in Greek lookup 72 subtable" uni00B2
Substitution2: "'numr' Numerators lookup 71 subtable" uni00B2
Substitution2: "'numr' Numerators in Latin lookup 70 subtable" uni00B2
Substitution2: "'dnom' Denominators in Cyrillic lookup 69 subtable" two.dnom
Substitution2: "'dnom' Denominators in Greek lookup 68 subtable" two.dnom
Substitution2: "'dnom' Denominators lookup 67 subtable" two.dnom
Substitution2: "'dnom' Denominators in Latin lookup 66 subtable" two.dnom
Substitution2: "'frac' Diagonal Fractions lookup 65 subtable" uni00B2
Substitution2: "'pnum' Proportional Numbers in Cyrillic lookup 58 subtable" two.pnum
Substitution2: "'pnum' Proportional Numbers in Greek lookup 57 subtable" two.pnum
Substitution2: "'pnum' Proportional Numbers lookup 56 subtable" two.pnum
Substitution2: "'pnum' Proportional Numbers in Latin lookup 55 subtable" two.pnum
Substitution2: "'onum' Oldstyle Figures in Cyrillic lookup 50 subtable" two.oldstyle
Substitution2: "'onum' Oldstyle Figures in Greek lookup 49 subtable" two.oldstyle
Substitution2: "'onum' Oldstyle Figures lookup 48 subtable" two.oldstyle
Substitution2: "'onum' Oldstyle Figures in Latin lookup 47 subtable" two.oldstyle
EndChar

StartChar: three
Encoding: 51 51 23
Width: 1160
Flags: W
LayerCount: 2
Back
Fore
SplineSet
426 869 m 1,0,-1
 573 868 l 2,1,2
 663 870 663 870 721 920.5 c 128,-1,3
 779 971 779 971 790 1062 c 0,4,5
 798 1130 798 1130 763 1174 c 128,-1,6
 728 1218 728 1218 658 1219 c 0,7,8
 593 1221 593 1221 543 1183 c 128,-1,9
 493 1145 493 1145 479 1082 c 1,10,-1
 149 1080 l 1,11,12
 155 1198 155 1198 225 1289 c 128,-1,13
 295 1380 295 1380 411.5 1429.5 c 128,-1,14
 528 1479 528 1479 662 1478 c 0,15,16
 882 1473 882 1473 1008 1362.5 c 128,-1,17
 1134 1252 1134 1252 1123 1068 c 0,18,19
 1110 862 1110 862 854 742 c 1,20,21
 951 694 951 694 999 609 c 128,-1,22
 1047 524 1047 524 1042 417 c 0,23,24
 1035 283 1035 283 957 183.5 c 128,-1,25
 879 84 879 84 748 30.5 c 128,-1,26
 617 -23 617 -23 467 -20 c 0,27,28
 336 -19 336 -19 229.5 35.5 c 128,-1,29
 123 90 123 90 66 186 c 128,-1,30
 9 282 9 282 10 406 c 1,31,-1
 338 406 l 1,32,33
 339 335 339 335 380 289 c 128,-1,34
 421 243 421 243 495 241 c 0,35,36
 578 239 578 239 642 290 c 128,-1,37
 706 341 706 341 718 424 c 0,38,39
 730 513 730 513 691.5 563.5 c 128,-1,40
 653 614 653 614 563 617 c 2,41,-1
 387 618 l 1,42,-1
 426 869 l 1,0,-1
EndSplineSet
Substitution2: "Single Substitution lookup 74 subtable" three.dnom
Substitution2: "'numr' Numerators in Cyrillic lookup 73 subtable" uni00B3
Substitution2: "'numr' Numerators in Greek lookup 72 subtable" uni00B3
Substitution2: "'numr' Numerators lookup 71 subtable" uni00B3
Substitution2: "'numr' Numerators in Latin lookup 70 subtable" uni00B3
Substitution2: "'dnom' Denominators in Cyrillic lookup 69 subtable" three.dnom
Substitution2: "'dnom' Denominators in Greek lookup 68 subtable" three.dnom
Substitution2: "'dnom' Denominators lookup 67 subtable" three.dnom
Substitution2: "'dnom' Denominators in Latin lookup 66 subtable" three.dnom
Substitution2: "'frac' Diagonal Fractions lookup 65 subtable" uni00B3
Substitution2: "'pnum' Proportional Numbers in Cyrillic lookup 58 subtable" three.pnum
Substitution2: "'pnum' Proportional Numbers in Greek lookup 57 subtable" three.pnum
Substitution2: "'pnum' Proportional Numbers lookup 56 subtable" three.pnum
Substitution2: "'pnum' Proportional Numbers in Latin lookup 55 subtable" three.pnum
Substitution2: "'onum' Oldstyle Figures in Cyrillic lookup 50 subtable" three.oldstyle
Substitution2: "'onum' Oldstyle Figures in Greek lookup 49 subtable" three.oldstyle
Substitution2: "'onum' Oldstyle Figures lookup 48 subtable" three.oldstyle
Substitution2: "'onum' Oldstyle Figures in Latin lookup 47 subtable" three.oldstyle
EndChar

StartChar: four
Encoding: 52 52 24
Width: 1160
Flags: W
LayerCount: 2
Back
Fore
SplineSet
946 569 m 1,0,-1
 1089 569 l 1,1,-1
 1044 309 l 1,2,-1
 901 309 l 1,3,-1
 847 0 l 1,4,-1
 518 0 l 1,5,-1
 572 309 l 1,6,-1
 27 309 l 1,7,-1
 45 531 l 1,8,-1
 760 1453 l 1,9,-1
 760 1460 l 1,10,-1
 1100 1455 l 1,11,-1
 946 569 l 1,0,-1
369 571 m 1,12,-1
 617 569 l 1,13,-1
 705 1021 l 1,14,-1
 369 571 l 1,12,-1
EndSplineSet
Substitution2: "Single Substitution lookup 74 subtable" four.dnom
Substitution2: "'numr' Numerators in Cyrillic lookup 73 subtable" four.frac
Substitution2: "'numr' Numerators in Greek lookup 72 subtable" four.frac
Substitution2: "'numr' Numerators lookup 71 subtable" four.frac
Substitution2: "'numr' Numerators in Latin lookup 70 subtable" four.frac
Substitution2: "'dnom' Denominators in Cyrillic lookup 69 subtable" four.dnom
Substitution2: "'dnom' Denominators in Greek lookup 68 subtable" four.dnom
Substitution2: "'dnom' Denominators lookup 67 subtable" four.dnom
Substitution2: "'dnom' Denominators in Latin lookup 66 subtable" four.dnom
Substitution2: "'frac' Diagonal Fractions lookup 65 subtable" four.frac
Substitution2: "'pnum' Proportional Numbers in Cyrillic lookup 58 subtable" four.pnum
Substitution2: "'pnum' Proportional Numbers in Greek lookup 57 subtable" four.pnum
Substitution2: "'pnum' Proportional Numbers lookup 56 subtable" four.pnum
Substitution2: "'pnum' Proportional Numbers in Latin lookup 55 subtable" four.pnum
Substitution2: "'onum' Oldstyle Figures in Cyrillic lookup 50 subtable" four.oldstyle
Substitution2: "'onum' Oldstyle Figures in Greek lookup 49 subtable" four.oldstyle
Substitution2: "'onum' Oldstyle Figures lookup 48 subtable" four.oldstyle
Substitution2: "'onum' Oldstyle Figures in Latin lookup 47 subtable" four.oldstyle
EndChar

StartChar: five
Encoding: 53 53 25
Width: 1160
Flags: W
LayerCount: 2
Back
Fore
SplineSet
121 716 m 1,0,-1
 323 1456 l 1,1,-1
 1153 1456 l 1,2,-1
 1111 1194 l 1,3,-1
 554 1194 l 1,4,-1
 465 903 l 1,5,6
 546 955 546 955 666 957 c 0,7,8
 858 957 858 957 961.5 824 c 128,-1,9
 1065 691 1065 691 1047 476 c 0,10,11
 1029 254 1029 254 874 114.5 c 128,-1,12
 719 -25 719 -25 499 -21 c 0,13,14
 370 -18 370 -18 264.5 39 c 128,-1,15
 159 96 159 96 101 194.5 c 128,-1,16
 43 293 43 293 44 415 c 1,17,-1
 372 415 l 1,18,19
 374 337 374 337 411 290 c 128,-1,20
 448 243 448 243 515 241 c 0,21,22
 597 238 597 238 651 302.5 c 128,-1,23
 705 367 705 367 720 499 c 0,24,25
 730 610 730 610 690 667.5 c 128,-1,26
 650 725 650 725 565 725 c 0,27,28
 456 725 456 725 388 651 c 1,29,-1
 121 716 l 1,0,-1
EndSplineSet
Substitution2: "Single Substitution lookup 74 subtable" five.dnom
Substitution2: "'numr' Numerators in Cyrillic lookup 73 subtable" five.frac
Substitution2: "'numr' Numerators in Greek lookup 72 subtable" five.frac
Substitution2: "'numr' Numerators lookup 71 subtable" five.frac
Substitution2: "'numr' Numerators in Latin lookup 70 subtable" five.frac
Substitution2: "'dnom' Denominators in Cyrillic lookup 69 subtable" five.dnom
Substitution2: "'dnom' Denominators in Greek lookup 68 subtable" five.dnom
Substitution2: "'dnom' Denominators lookup 67 subtable" five.dnom
Substitution2: "'dnom' Denominators in Latin lookup 66 subtable" five.dnom
Substitution2: "'frac' Diagonal Fractions lookup 65 subtable" five.frac
Substitution2: "'pnum' Proportional Numbers in Cyrillic lookup 58 subtable" five.pnum
Substitution2: "'pnum' Proportional Numbers in Greek lookup 57 subtable" five.pnum
Substitution2: "'pnum' Proportional Numbers lookup 56 subtable" five.pnum
Substitution2: "'pnum' Proportional Numbers in Latin lookup 55 subtable" five.pnum
Substitution2: "'onum' Oldstyle Figures in Cyrillic lookup 50 subtable" five.oldstyle
Substitution2: "'onum' Oldstyle Figures in Greek lookup 49 subtable" five.oldstyle
Substitution2: "'onum' Oldstyle Figures lookup 48 subtable" five.oldstyle
Substitution2: "'onum' Oldstyle Figures in Latin lookup 47 subtable" five.oldstyle
EndChar

StartChar: six
Encoding: 54 54 26
Width: 1160
Flags: W
LayerCount: 2
Back
Fore
SplineSet
1011 1478 m 1,0,-1
 985 1212 l 1,1,-1
 955 1212 l 2,2,3
 785 1210 785 1210 656.5 1122 c 128,-1,4
 528 1034 528 1034 452 868 c 1,5,6
 575 985 575 985 739 981 c 0,7,8
 856 979 856 979 937 914.5 c 128,-1,9
 1018 850 1018 850 1056.5 736.5 c 128,-1,10
 1095 623 1095 623 1084 489 c 0,11,12
 1073 354 1073 354 1002 239 c 128,-1,13
 931 124 931 124 815 55 c 0,14,15
 682 -24 682 -24 530 -21 c 0,16,17
 381 -19 381 -19 273 59 c 128,-1,18
 165 137 165 137 115 271.5 c 128,-1,19
 65 406 65 406 82 566 c 2,20,-1
 97 689 l 2,21,22
 126 910 126 910 244.5 1091.5 c 128,-1,23
 363 1273 363 1273 548.5 1374.5 c 128,-1,24
 734 1476 734 1476 950 1478 c 2,25,-1
 1011 1478 l 1,0,-1
612 725 m 0,26,27
 500 729 500 729 419 618 c 1,28,29
 400 478 400 478 400 426 c 0,30,31
 400 338 400 338 436 289.5 c 128,-1,32
 472 241 472 241 540 240 c 0,33,34
 640 238 640 238 702.5 340.5 c 128,-1,35
 765 443 765 443 753 569 c 0,36,37
 746 639 746 639 709 681.5 c 128,-1,38
 672 724 672 724 612 725 c 0,26,27
EndSplineSet
Substitution2: "Single Substitution lookup 74 subtable" six.dnom
Substitution2: "'numr' Numerators in Cyrillic lookup 73 subtable" six.frac
Substitution2: "'numr' Numerators in Greek lookup 72 subtable" six.frac
Substitution2: "'numr' Numerators lookup 71 subtable" six.frac
Substitution2: "'numr' Numerators in Latin lookup 70 subtable" six.frac
Substitution2: "'dnom' Denominators in Cyrillic lookup 69 subtable" six.dnom
Substitution2: "'dnom' Denominators in Greek lookup 68 subtable" six.dnom
Substitution2: "'dnom' Denominators lookup 67 subtable" six.dnom
Substitution2: "'dnom' Denominators in Latin lookup 66 subtable" six.dnom
Substitution2: "'frac' Diagonal Fractions lookup 65 subtable" six.frac
EndChar

StartChar: seven
Encoding: 55 55 27
Width: 1160
Flags: W
LayerCount: 2
Back
Fore
SplineSet
1172 1261 m 1,0,-1
 454 0 l 1,1,-1
 94 0 l 1,2,-1
 809 1196 l 1,3,-1
 142 1196 l 1,4,-1
 184 1456 l 1,5,-1
 1203 1456 l 1,6,-1
 1172 1261 l 1,0,-1
EndSplineSet
Substitution2: "Single Substitution lookup 74 subtable" seven.dnom
Substitution2: "'numr' Numerators in Cyrillic lookup 73 subtable" seven.frac
Substitution2: "'numr' Numerators in Greek lookup 72 subtable" seven.frac
Substitution2: "'numr' Numerators lookup 71 subtable" seven.frac
Substitution2: "'numr' Numerators in Latin lookup 70 subtable" seven.frac
Substitution2: "'dnom' Denominators in Cyrillic lookup 69 subtable" seven.dnom
Substitution2: "'dnom' Denominators in Greek lookup 68 subtable" seven.dnom
Substitution2: "'dnom' Denominators lookup 67 subtable" seven.dnom
Substitution2: "'dnom' Denominators in Latin lookup 66 subtable" seven.dnom
Substitution2: "'frac' Diagonal Fractions lookup 65 subtable" seven.frac
Substitution2: "'pnum' Proportional Numbers in Cyrillic lookup 58 subtable" seven.pnum
Substitution2: "'pnum' Proportional Numbers in Greek lookup 57 subtable" seven.pnum
Substitution2: "'pnum' Proportional Numbers lookup 56 subtable" seven.pnum
Substitution2: "'pnum' Proportional Numbers in Latin lookup 55 subtable" seven.pnum
Substitution2: "'onum' Oldstyle Figures in Cyrillic lookup 50 subtable" seven.oldstyle
Substitution2: "'onum' Oldstyle Figures in Greek lookup 49 subtable" seven.oldstyle
Substitution2: "'onum' Oldstyle Figures lookup 48 subtable" seven.oldstyle
Substitution2: "'onum' Oldstyle Figures in Latin lookup 47 subtable" seven.oldstyle
EndChar

StartChar: eight
Encoding: 56 56 28
Width: 1160
Flags: W
LayerCount: 2
Back
Fore
SplineSet
1126 1075 m 0,0,1
 1112 863 1112 863 879 744 c 1,2,3
 963 684 963 684 1004 598 c 128,-1,4
 1045 512 1045 512 1038 409 c 0,5,6
 1025 208 1025 208 873.5 92 c 128,-1,7
 722 -24 722 -24 498 -20 c 0,8,9
 400 -19 400 -19 313 10 c 128,-1,10
 226 39 226 39 164 97 c 0,11,12
 40 211 40 211 53 393 c 0,13,14
 67 630 67 630 338 756 c 1,15,16
 190 871 190 871 200 1058 c 0,17,18
 207 1185 207 1185 275 1281 c 128,-1,19
 343 1377 343 1377 457.5 1428.5 c 128,-1,20
 572 1480 572 1480 710 1477 c 0,21,22
 910 1473 910 1473 1024.5 1362 c 128,-1,23
 1139 1251 1139 1251 1126 1075 c 0,0,1
714 436 m 0,24,25
 723 514 723 514 689.5 564 c 128,-1,26
 656 614 656 614 588 616 c 0,27,28
 511 618 511 618 455 562.5 c 128,-1,29
 399 507 399 507 388 420 c 0,30,31
 379 338 379 338 414.5 289.5 c 128,-1,32
 450 241 450 241 518 239 c 0,33,34
 592 237 592 237 647 291 c 128,-1,35
 702 345 702 345 714 436 c 0,24,25
794 1057 m 0,36,37
 802 1131 802 1131 773 1174.5 c 128,-1,38
 744 1218 744 1218 688 1218 c 0,39,40
 623 1220 623 1220 578.5 1171 c 128,-1,41
 534 1122 534 1122 524 1041 c 0,42,43
 516 967 516 967 545 920.5 c 128,-1,44
 574 874 574 874 631 874 c 0,45,46
 694 872 694 872 739 922 c 128,-1,47
 784 972 784 972 794 1057 c 0,36,37
EndSplineSet
Substitution2: "Single Substitution lookup 74 subtable" eight.dnom
Substitution2: "'numr' Numerators in Cyrillic lookup 73 subtable" eight.frac
Substitution2: "'numr' Numerators in Greek lookup 72 subtable" eight.frac
Substitution2: "'numr' Numerators lookup 71 subtable" eight.frac
Substitution2: "'numr' Numerators in Latin lookup 70 subtable" eight.frac
Substitution2: "'dnom' Denominators in Cyrillic lookup 69 subtable" eight.dnom
Substitution2: "'dnom' Denominators in Greek lookup 68 subtable" eight.dnom
Substitution2: "'dnom' Denominators lookup 67 subtable" eight.dnom
Substitution2: "'dnom' Denominators in Latin lookup 66 subtable" eight.dnom
Substitution2: "'frac' Diagonal Fractions lookup 65 subtable" eight.frac
EndChar

StartChar: nine
Encoding: 57 57 29
Width: 1160
Flags: W
LayerCount: 2
Back
Fore
SplineSet
739 564 m 1,0,1
 625 465 625 465 496 465 c 0,2,3
 376 466 376 466 290.5 529 c 128,-1,4
 205 592 205 592 164 705 c 128,-1,5
 123 818 123 818 135 950 c 0,6,7
 147 1093 147 1093 226 1217.5 c 128,-1,8
 305 1342 305 1342 427.5 1411 c 128,-1,9
 550 1480 550 1480 689 1477 c 0,10,11
 873 1472 873 1472 984 1348 c 128,-1,12
 1095 1224 1095 1224 1111 1024 c 0,13,14
 1116 952 1116 952 1109 881 c 2,15,-1
 1095 773 l 2,16,17
 1048 408 1048 408 812.5 193.5 c 128,-1,18
 577 -21 577 -21 228 -21 c 2,19,-1
 207 -21 l 1,20,-1
 234 250 l 1,21,-1
 280 250 l 1,22,23
 614 257 614 257 739 564 c 1,0,1
598 707 m 0,24,25
 694 705 694 705 768 802 c 1,26,-1
 788 944 l 1,27,-1
 793 1027 l 1,28,29
 793 1117 793 1117 761 1167 c 128,-1,30
 729 1217 729 1217 666 1218 c 0,31,32
 576 1220 576 1220 516 1113.5 c 128,-1,33
 456 1007 456 1007 465 870 c 0,34,35
 469 796 469 796 503.5 752 c 128,-1,36
 538 708 538 708 598 707 c 0,24,25
EndSplineSet
Substitution2: "Single Substitution lookup 74 subtable" nine.dnom
Substitution2: "'numr' Numerators in Cyrillic lookup 73 subtable" nine.frac
Substitution2: "'numr' Numerators in Greek lookup 72 subtable" nine.frac
Substitution2: "'numr' Numerators lookup 71 subtable" nine.frac
Substitution2: "'numr' Numerators in Latin lookup 70 subtable" nine.frac
Substitution2: "'dnom' Denominators in Cyrillic lookup 69 subtable" nine.dnom
Substitution2: "'dnom' Denominators in Greek lookup 68 subtable" nine.dnom
Substitution2: "'dnom' Denominators lookup 67 subtable" nine.dnom
Substitution2: "'dnom' Denominators in Latin lookup 66 subtable" nine.dnom
Substitution2: "'frac' Diagonal Fractions lookup 65 subtable" nine.frac
Substitution2: "'pnum' Proportional Numbers in Cyrillic lookup 58 subtable" nine.pnum
Substitution2: "'pnum' Proportional Numbers in Greek lookup 57 subtable" nine.pnum
Substitution2: "'pnum' Proportional Numbers lookup 56 subtable" nine.pnum
Substitution2: "'pnum' Proportional Numbers in Latin lookup 55 subtable" nine.pnum
Substitution2: "'onum' Oldstyle Figures in Cyrillic lookup 50 subtable" nine.oldstyle
Substitution2: "'onum' Oldstyle Figures in Greek lookup 49 subtable" nine.oldstyle
Substitution2: "'onum' Oldstyle Figures lookup 48 subtable" nine.oldstyle
Substitution2: "'onum' Oldstyle Figures in Latin lookup 47 subtable" nine.oldstyle
EndChar

StartChar: less
Encoding: 60 60 32
Width: 1023
Flags: W
LayerCount: 2
Back
Fore
SplineSet
373 603 m 1,0,-1
 872 419 l 1,1,-1
 821 124 l 1,2,-1
 24 485 l 1,3,-1
 70 751 l 1,4,-1
 993 1111 l 1,5,-1
 937 792 l 1,6,-1
 373 603 l 1,0,-1
EndSplineSet
EndChar

StartChar: equal
Encoding: 61 61 33
Width: 1173
Flags: W
LayerCount: 2
Back
Fore
SplineSet
1045 722 m 1,0,-1
 144 722 l 1,1,-1
 190 982 l 1,2,-1
 1090 982 l 1,3,-1
 1045 722 l 1,0,-1
969 283 m 1,4,-1
 68 283 l 1,5,-1
 114 543 l 1,6,-1
 1014 543 l 1,7,-1
 969 283 l 1,4,-1
EndSplineSet
EndChar

StartChar: greater
Encoding: 62 62 34
Width: 1029
Flags: W
LayerCount: 2
Back
Fore
SplineSet
638 618 m 1,0,-1
 142 803 l 1,1,-1
 193 1096 l 1,2,-1
 985 736 l 1,3,-1
 939 470 l 1,4,-1
 21 110 l 1,5,-1
 77 429 l 1,6,-1
 638 618 l 1,0,-1
EndSplineSet
EndChar

StartChar: question
Encoding: 63 63 35
Width: 1022
Flags: W
LayerCount: 2
Back
Fore
SplineSet
321 459 m 1,0,1
 333 697 333 697 474 821 c 1,2,-1
 557 887 l 2,3,4
 625 942 625 942 659.5 998 c 128,-1,5
 694 1054 694 1054 691 1129 c 0,6,7
 688 1217 688 1217 598 1220 c 0,8,9
 540 1222 540 1222 500.5 1178 c 128,-1,10
 461 1134 461 1134 445 1054 c 1,11,-1
 116 1052 l 1,12,13
 131 1252 131 1252 269 1366.5 c 128,-1,14
 407 1481 407 1481 620 1477 c 0,15,16
 749 1474 749 1474 845.5 1426 c 128,-1,17
 942 1378 942 1378 989 1291 c 128,-1,18
 1036 1204 1036 1204 1028 1088 c 0,19,20
 1016 919 1016 919 838 774 c 2,21,-1
 721 681 l 1,22,23
 618 594 618 594 596 461 c 1,24,-1
 321 459 l 1,0,1
217 150 m 0,25,26
 215 227 215 227 269 277 c 128,-1,27
 323 327 323 327 399 327 c 0,28,29
 476 327 476 327 527 280 c 128,-1,30
 578 233 578 233 580 163 c 0,31,32
 582 86 582 86 528.5 36.5 c 128,-1,33
 475 -13 475 -13 398 -13 c 0,34,35
 324 -13 324 -13 271.5 31.5 c 128,-1,36
 219 76 219 76 217 150 c 0,25,26
EndSplineSet
EndChar

StartChar: at
Encoding: 64 64 36
Width: 1789
Flags: W
LayerCount: 2
Back
Fore
SplineSet
1184 -21 m 0,0,1
 1105 -19 1105 -19 1046.5 17 c 128,-1,2
 988 53 988 53 965 115 c 1,3,4
 845 -21 845 -21 696 -17 c 0,5,6
 585 -14 585 -14 521 68 c 128,-1,7
 457 150 457 150 453 284 c 0,8,9
 446 454 446 454 524.5 627.5 c 128,-1,10
 603 801 603 801 728 897 c 128,-1,11
 853 993 853 993 1005 991 c 0,12,13
 1083 989 1083 989 1152.5 964 c 128,-1,14
 1222 939 1222 939 1307 882 c 1,15,-1
 1168 282 l 1,16,-1
 1164 244 l 2,17,18
 1157 155 1157 155 1234 152 c 0,19,20
 1390 145 1390 145 1471 421 c 0,21,22
 1514 569 1514 569 1518 720 c 0,23,24
 1524 963 1524 963 1406.5 1098.5 c 128,-1,25
 1289 1234 1289 1234 1059 1238 c 0,26,27
 900 1241 900 1241 755 1170.5 c 128,-1,28
 610 1100 610 1100 494.5 961 c 128,-1,29
 379 822 379 822 311 639.5 c 128,-1,30
 243 457 243 457 237 273 c 0,31,32
 231 110 231 110 283.5 -12 c 128,-1,33
 336 -134 336 -134 443 -197.5 c 128,-1,34
 550 -261 550 -261 705 -262 c 0,35,36
 861 -264 861 -264 1041 -197 c 1,37,-1
 1070 -367 l 1,38,39
 941 -453 941 -453 704 -453 c 0,40,41
 498 -451 498 -451 346 -372 c 128,-1,42
 194 -293 194 -293 111 -140 c 128,-1,43
 28 13 28 13 23 213 c 0,44,45
 17 440 17 440 95.5 664.5 c 128,-1,46
 174 889 174 889 321.5 1061.5 c 128,-1,47
 469 1234 469 1234 660 1323.5 c 128,-1,48
 851 1413 851 1413 1058 1410 c 0,49,50
 1319 1407 1319 1407 1489 1267.5 c 128,-1,51
 1659 1128 1659 1128 1702 883 c 0,52,53
 1737 673 1737 673 1676.5 447.5 c 128,-1,54
 1616 222 1616 222 1487.5 98.5 c 128,-1,55
 1359 -25 1359 -25 1184 -21 c 0,0,1
713 428 m 0,56,57
 695 346 695 346 699 274 c 0,58,59
 701 228 701 228 722 199 c 128,-1,60
 743 170 743 170 781 169 c 0,61,62
 830 166 830 166 880 214 c 128,-1,63
 930 262 930 262 956 334 c 1,64,-1
 1076 795 l 1,65,66
 1043 802 1043 802 1023 802 c 0,67,68
 909 806 909 806 830 714 c 128,-1,69
 751 622 751 622 713 428 c 0,56,57
EndSplineSet
EndChar

StartChar: A
Encoding: 65 65 37
Width: 1363
Flags: W
LayerCount: 2
Back
Fore
SplineSet
857 272 m 1,0,-1
 392 272 l 1,1,-1
 263 0 l 1,2,-1
 -114 0 l 1,3,-1
 657 1456 l 1,4,-1
 979 1456 l 1,5,-1
 1248 0 l 1,6,-1
 892 0 l 1,7,-1
 857 272 l 1,0,-1
520 543 m 1,8,-1
 822 543 l 1,9,-1
 758 1045 l 1,10,-1
 520 543 l 1,8,-1
EndSplineSet
Substitution2: "'c2sc' Capitals to Small Capitals in Cyrillic lookup 3 subtable" A.c2sc
Substitution2: "'c2sc' Capitals to Small Capitals in Greek lookup 2 subtable" A.c2sc
Substitution2: "'c2sc' Capitals to Small Capitals lookup 1 subtable" A.c2sc
Substitution2: "'c2sc' Capitals to Small Capitals in Latin lookup 0 subtable" A.c2sc
Position2: "'cpsp' Capital Spacing in Cyrillic lookup 3 subtable" dx=36 dy=0 dh=72 dv=0
Position2: "'cpsp' Capital Spacing in Greek lookup 2 subtable" dx=36 dy=0 dh=72 dv=0
Position2: "'cpsp' Capital Spacing lookup 1 subtable" dx=36 dy=0 dh=72 dv=0
Position2: "'cpsp' Capital Spacing in Latin lookup 0 subtable" dx=36 dy=0 dh=72 dv=0
EndChar

StartChar: B
Encoding: 66 66 38
Width: 1291
Flags: W
LayerCount: 2
Back
Fore
SplineSet
2 0 m 1,0,-1
 254 1456 l 1,1,-1
 717 1455 l 2,2,3
 991 1454 991 1454 1126 1351 c 128,-1,4
 1261 1248 1261 1248 1249 1062 c 0,5,6
 1234 832 1234 832 997 736 c 1,7,8
 1082 706 1082 706 1129.5 627.5 c 128,-1,9
 1177 549 1177 549 1170 439 c 0,10,11
 1156 228 1156 228 1003.5 114 c 128,-1,12
 851 0 851 0 586 0 c 2,13,-1
 2 0 l 1,0,-1
452 619 m 1,14,-1
 391 270 l 1,15,-1
 596 269 l 2,16,17
 692 269 692 269 756 316.5 c 128,-1,18
 820 364 820 364 832 443 c 0,19,20
 860 610 860 610 704 618 c 1,21,-1
 452 619 l 1,14,-1
491 849 m 1,22,-1
 652 848 l 1,23,24
 875 853 875 853 902 1019 c 0,25,26
 926 1183 926 1183 732 1184 c 2,27,-1
 550 1185 l 1,28,-1
 491 849 l 1,22,-1
EndSplineSet
Substitution2: "'c2sc' Capitals to Small Capitals in Cyrillic lookup 3 subtable" B.c2sc
Substitution2: "'c2sc' Capitals to Small Capitals in Greek lookup 2 subtable" B.c2sc
Substitution2: "'c2sc' Capitals to Small Capitals lookup 1 subtable" B.c2sc
Substitution2: "'c2sc' Capitals to Small Capitals in Latin lookup 0 subtable" B.c2sc
Position2: "'cpsp' Capital Spacing in Cyrillic lookup 3 subtable" dx=36 dy=0 dh=72 dv=0
Position2: "'cpsp' Capital Spacing in Greek lookup 2 subtable" dx=36 dy=0 dh=72 dv=0
Position2: "'cpsp' Capital Spacing lookup 1 subtable" dx=36 dy=0 dh=72 dv=0
Position2: "'cpsp' Capital Spacing in Latin lookup 0 subtable" dx=36 dy=0 dh=72 dv=0
EndChar

StartChar: C
Encoding: 67 67 39
Width: 1314
Flags: W
LayerCount: 2
Back
Fore
SplineSet
1222 496 m 1,0,1
 1209 343 1209 343 1121.5 224 c 128,-1,2
 1034 105 1034 105 891.5 41 c 128,-1,3
 749 -23 749 -23 583 -20 c 0,4,5
 355 -15 355 -15 224 127 c 128,-1,6
 93 269 93 269 81 512 c 0,7,8
 72 674 72 674 116.5 865 c 128,-1,9
 161 1056 161 1056 261.5 1197.5 c 128,-1,10
 362 1339 362 1339 498.5 1409.5 c 128,-1,11
 635 1480 635 1480 797 1477 c 0,12,13
 1035 1473 1035 1473 1173.5 1334 c 128,-1,14
 1312 1195 1312 1195 1324 951 c 1,15,-1
 983 952 l 1,16,17
 985 1085 985 1085 935 1142 c 128,-1,18
 885 1199 885 1199 777 1203 c 0,19,20
 507 1212 507 1212 448 783 c 0,21,22
 421 589 421 589 421 506 c 0,23,24
 416 260 416 260 603 253 c 0,25,26
 724 249 724 249 796 312.5 c 128,-1,27
 868 376 868 376 888 492 c 1,28,-1
 1222 496 l 1,0,1
EndSplineSet
Substitution2: "'ss06' Style Set 6 in Cyrillic lookup 42 subtable" C.ss06
Substitution2: "'ss06' Style Set 6 in Greek lookup 41 subtable" C.ss06
Substitution2: "'ss06' Style Set 6 lookup 40 subtable" C.ss06
Substitution2: "'ss06' Style Set 6 in Latin lookup 39 subtable" C.ss06
Substitution2: "'c2sc' Capitals to Small Capitals in Cyrillic lookup 3 subtable" C.c2sc
Substitution2: "'c2sc' Capitals to Small Capitals in Greek lookup 2 subtable" C.c2sc
Substitution2: "'c2sc' Capitals to Small Capitals lookup 1 subtable" C.c2sc
Substitution2: "'c2sc' Capitals to Small Capitals in Latin lookup 0 subtable" C.c2sc
Position2: "'cpsp' Capital Spacing in Cyrillic lookup 3 subtable" dx=36 dy=0 dh=72 dv=0
Position2: "'cpsp' Capital Spacing in Greek lookup 2 subtable" dx=36 dy=0 dh=72 dv=0
Position2: "'cpsp' Capital Spacing lookup 1 subtable" dx=36 dy=0 dh=72 dv=0
Position2: "'cpsp' Capital Spacing in Latin lookup 0 subtable" dx=36 dy=0 dh=72 dv=0
EndChar

StartChar: D
Encoding: 68 68 40
Width: 1294
Flags: W
LayerCount: 2
Back
Fore
SplineSet
2 0 m 1,0,-1
 254 1456 l 1,1,-1
 682 1455 l 2,2,3
 871 1455 871 1455 1012 1355.5 c 128,-1,4
 1153 1256 1153 1256 1212 1084 c 0,5,6
 1263 933 1263 933 1243 758 c 2,7,-1
 1236 697 l 1,8,9
 1209 501 1209 501 1106 342 c 128,-1,10
 1003 183 1003 183 841 92.5 c 128,-1,11
 679 2 679 2 491 0 c 2,12,-1
 2 0 l 1,0,-1
550 1185 m 1,13,-1
 391 270 l 1,14,-1
 491 269 l 2,15,16
 667 269 667 269 773.5 405 c 128,-1,17
 880 541 880 541 900 821 c 2,18,-1
 902 854 l 2,19,20
 909 1014 909 1014 852 1097 c 128,-1,21
 795 1180 795 1180 681 1184 c 2,22,-1
 550 1185 l 1,13,-1
EndSplineSet
Substitution2: "'ss06' Style Set 6 in Cyrillic lookup 42 subtable" D.ss06
Substitution2: "'ss06' Style Set 6 in Greek lookup 41 subtable" D.ss06
Substitution2: "'ss06' Style Set 6 lookup 40 subtable" D.ss06
Substitution2: "'ss06' Style Set 6 in Latin lookup 39 subtable" D.ss06
Substitution2: "'c2sc' Capitals to Small Capitals in Cyrillic lookup 3 subtable" D.c2sc
Substitution2: "'c2sc' Capitals to Small Capitals in Greek lookup 2 subtable" D.c2sc
Substitution2: "'c2sc' Capitals to Small Capitals lookup 1 subtable" D.c2sc
Substitution2: "'c2sc' Capitals to Small Capitals in Latin lookup 0 subtable" D.c2sc
Position2: "'cpsp' Capital Spacing in Cyrillic lookup 3 subtable" dx=36 dy=0 dh=72 dv=0
Position2: "'cpsp' Capital Spacing in Greek lookup 2 subtable" dx=36 dy=0 dh=72 dv=0
Position2: "'cpsp' Capital Spacing lookup 1 subtable" dx=36 dy=0 dh=72 dv=0
Position2: "'cpsp' Capital Spacing in Latin lookup 0 subtable" dx=36 dy=0 dh=72 dv=0
EndChar

StartChar: E
Encoding: 69 69 41
Width: 1122
Flags: W
LayerCount: 2
Back
Fore
SplineSet
987 617 m 1,0,-1
 452 617 l 1,1,-1
 391 270 l 1,2,-1
 1024 270 l 1,3,-1
 977 0 l 1,4,-1
 2 0 l 1,5,-1
 254 1456 l 1,6,-1
 1231 1456 l 1,7,-1
 1184 1185 l 1,8,-1
 550 1185 l 1,9,-1
 496 878 l 1,10,-1
 1032 878 l 1,11,-1
 987 617 l 1,0,-1
EndSplineSet
Substitution2: "'c2sc' Capitals to Small Capitals in Cyrillic lookup 3 subtable" E.c2sc
Substitution2: "'c2sc' Capitals to Small Capitals in Greek lookup 2 subtable" E.c2sc
Substitution2: "'c2sc' Capitals to Small Capitals lookup 1 subtable" E.c2sc
Substitution2: "'c2sc' Capitals to Small Capitals in Latin lookup 0 subtable" E.c2sc
Position2: "'cpsp' Capital Spacing in Cyrillic lookup 3 subtable" dx=36 dy=0 dh=72 dv=0
Position2: "'cpsp' Capital Spacing in Greek lookup 2 subtable" dx=36 dy=0 dh=72 dv=0
Position2: "'cpsp' Capital Spacing lookup 1 subtable" dx=36 dy=0 dh=72 dv=0
Position2: "'cpsp' Capital Spacing in Latin lookup 0 subtable" dx=36 dy=0 dh=72 dv=0
EndChar

StartChar: F
Encoding: 70 70 42
Width: 1096
Flags: W
LayerCount: 2
Back
Fore
SplineSet
994 580 m 1,0,-1
 445 580 l 1,1,-1
 344 0 l 1,2,-1
 2 0 l 1,3,-1
 254 1456 l 1,4,-1
 1201 1456 l 1,5,-1
 1154 1185 l 1,6,-1
 550 1185 l 1,7,-1
 492 850 l 1,8,-1
 1041 850 l 1,9,-1
 994 580 l 1,0,-1
EndSplineSet
Substitution2: "'c2sc' Capitals to Small Capitals in Cyrillic lookup 3 subtable" F.c2sc
Substitution2: "'c2sc' Capitals to Small Capitals in Greek lookup 2 subtable" F.c2sc
Substitution2: "'c2sc' Capitals to Small Capitals lookup 1 subtable" F.c2sc
Substitution2: "'c2sc' Capitals to Small Capitals in Latin lookup 0 subtable" F.c2sc
Position2: "'cpsp' Capital Spacing in Cyrillic lookup 3 subtable" dx=36 dy=0 dh=72 dv=0
Position2: "'cpsp' Capital Spacing in Greek lookup 2 subtable" dx=36 dy=0 dh=72 dv=0
Position2: "'cpsp' Capital Spacing lookup 1 subtable" dx=36 dy=0 dh=72 dv=0
Position2: "'cpsp' Capital Spacing in Latin lookup 0 subtable" dx=36 dy=0 dh=72 dv=0
EndChar

StartChar: G
Encoding: 71 71 43
Width: 1364
Flags: W
LayerCount: 2
Back
Fore
SplineSet
1209 179 m 1,0,1
 1127 83 1127 83 970 30.5 c 128,-1,2
 813 -22 813 -22 622 -19 c 0,3,4
 439 -17 439 -17 313 73 c 128,-1,5
 187 163 187 163 133 324 c 128,-1,6
 79 485 79 485 104 687 c 2,7,-1
 112 747 l 2,8,9
 158 1086 158 1086 350.5 1284 c 128,-1,10
 543 1482 543 1482 822 1477 c 0,11,12
 1066 1473 1066 1473 1197 1346 c 128,-1,13
 1328 1219 1328 1219 1343 979 c 1,14,-1
 1015 980 l 1,15,16
 1008 1097 1008 1097 957.5 1151 c 128,-1,17
 907 1205 907 1205 814 1208 c 0,18,19
 676 1213 676 1213 586 1099.5 c 128,-1,20
 496 986 496 986 463 775 c 0,21,22
 435 595 435 595 443 495 c 0,23,24
 458 254 458 254 660 251 c 0,25,26
 782 249 782 249 874 310 c 1,27,-1
 919 537 l 1,28,-1
 682 537 l 1,29,-1
 724 778 l 1,30,-1
 1303 778 l 1,31,-1
 1209 179 l 1,0,1
EndSplineSet
Substitution2: "'ss06' Style Set 6 in Cyrillic lookup 42 subtable" G.ss06
Substitution2: "'ss06' Style Set 6 in Greek lookup 41 subtable" G.ss06
Substitution2: "'ss06' Style Set 6 lookup 40 subtable" G.ss06
Substitution2: "'ss06' Style Set 6 in Latin lookup 39 subtable" G.ss06
Substitution2: "'c2sc' Capitals to Small Capitals in Cyrillic lookup 3 subtable" G.c2sc
Substitution2: "'c2sc' Capitals to Small Capitals in Greek lookup 2 subtable" G.c2sc
Substitution2: "'c2sc' Capitals to Small Capitals lookup 1 subtable" G.c2sc
Substitution2: "'c2sc' Capitals to Small Capitals in Latin lookup 0 subtable" G.c2sc
Position2: "'cpsp' Capital Spacing in Cyrillic lookup 3 subtable" dx=36 dy=0 dh=72 dv=0
Position2: "'cpsp' Capital Spacing in Greek lookup 2 subtable" dx=36 dy=0 dh=72 dv=0
Position2: "'cpsp' Capital Spacing lookup 1 subtable" dx=36 dy=0 dh=72 dv=0
Position2: "'cpsp' Capital Spacing in Latin lookup 0 subtable" dx=36 dy=0 dh=72 dv=0
EndChar

StartChar: H
Encoding: 72 72 44
Width: 1406
Flags: W
LayerCount: 2
Back
Fore
SplineSet
1184 0 m 1,0,-1
 844 0 l 1,1,-1
 949 608 l 1,2,-1
 450 608 l 1,3,-1
 344 0 l 1,4,-1
 2 0 l 1,5,-1
 254 1456 l 1,6,-1
 597 1456 l 1,7,-1
 496 878 l 1,8,-1
 996 878 l 1,9,-1
 1096 1456 l 1,10,-1
 1437 1456 l 1,11,-1
 1184 0 l 1,0,-1
EndSplineSet
Substitution2: "'c2sc' Capitals to Small Capitals in Cyrillic lookup 3 subtable" H.c2sc
Substitution2: "'c2sc' Capitals to Small Capitals in Greek lookup 2 subtable" H.c2sc
Substitution2: "'c2sc' Capitals to Small Capitals lookup 1 subtable" H.c2sc
Substitution2: "'c2sc' Capitals to Small Capitals in Latin lookup 0 subtable" H.c2sc
Position2: "'cpsp' Capital Spacing in Cyrillic lookup 3 subtable" dx=36 dy=0 dh=72 dv=0
Position2: "'cpsp' Capital Spacing in Greek lookup 2 subtable" dx=36 dy=0 dh=72 dv=0
Position2: "'cpsp' Capital Spacing lookup 1 subtable" dx=36 dy=0 dh=72 dv=0
Position2: "'cpsp' Capital Spacing in Latin lookup 0 subtable" dx=36 dy=0 dh=72 dv=0
EndChar

StartChar: I
Encoding: 73 73 45
Width: 609
Flags: W
LayerCount: 2
Back
Fore
SplineSet
367 0 m 1,0,-1
 25 0 l 1,1,-1
 278 1456 l 1,2,-1
 619 1456 l 1,3,-1
 367 0 l 1,0,-1
EndSplineSet
Substitution2: "'c2sc' Capitals to Small Capitals in Cyrillic lookup 3 subtable" I.c2sc
Substitution2: "'c2sc' Capitals to Small Capitals in Greek lookup 2 subtable" I.c2sc
Substitution2: "'c2sc' Capitals to Small Capitals lookup 1 subtable" I.c2sc
Substitution2: "'c2sc' Capitals to Small Capitals in Latin lookup 0 subtable" I.c2sc
Position2: "'cpsp' Capital Spacing in Cyrillic lookup 3 subtable" dx=36 dy=0 dh=72 dv=0
Position2: "'cpsp' Capital Spacing in Greek lookup 2 subtable" dx=36 dy=0 dh=72 dv=0
Position2: "'cpsp' Capital Spacing lookup 1 subtable" dx=36 dy=0 dh=72 dv=0
Position2: "'cpsp' Capital Spacing in Latin lookup 0 subtable" dx=36 dy=0 dh=72 dv=0
EndChar

StartChar: J
Encoding: 74 74 46
Width: 1126
Flags: W
LayerCount: 2
Back
Fore
SplineSet
820 1456 m 1,0,-1
 1162 1456 l 1,1,-1
 992 457 l 1,2,3
 961 238 961 238 805.5 106.5 c 128,-1,4
 650 -25 650 -25 440 -21 c 0,5,6
 229 -17 229 -17 113.5 103 c 128,-1,7
 -2 223 -2 223 4 441 c 1,8,-1
 349 440 l 1,9,-1
 349 371 l 1,10,11
 353 252 353 252 464 249 c 0,12,13
 614 246 614 246 652 468 c 2,14,-1
 820 1456 l 1,0,-1
EndSplineSet
Substitution2: "'c2sc' Capitals to Small Capitals in Cyrillic lookup 3 subtable" J.c2sc
Substitution2: "'c2sc' Capitals to Small Capitals in Greek lookup 2 subtable" J.c2sc
Substitution2: "'c2sc' Capitals to Small Capitals lookup 1 subtable" J.c2sc
Substitution2: "'c2sc' Capitals to Small Capitals in Latin lookup 0 subtable" J.c2sc
Position2: "'cpsp' Capital Spacing in Cyrillic lookup 3 subtable" dx=36 dy=0 dh=72 dv=0
Position2: "'cpsp' Capital Spacing in Greek lookup 2 subtable" dx=36 dy=0 dh=72 dv=0
Position2: "'cpsp' Capital Spacing lookup 1 subtable" dx=36 dy=0 dh=72 dv=0
Position2: "'cpsp' Capital Spacing in Latin lookup 0 subtable" dx=36 dy=0 dh=72 dv=0
EndChar

StartChar: K
Encoding: 75 75 47
Width: 1281
Flags: W
LayerCount: 2
Back
Fore
SplineSet
587 538 m 1,0,-1
 409 371 l 1,1,-1
 344 0 l 1,2,-1
 2 0 l 1,3,-1
 254 1456 l 1,4,-1
 597 1456 l 1,5,-1
 488 833 l 1,6,-1
 630 1006 l 1,7,-1
 1008 1456 l 1,8,-1
 1452 1456 l 1,9,-1
 848 797 l 1,10,-1
 1183 0 l 1,11,-1
 792 0 l 1,12,-1
 587 538 l 1,0,-1
EndSplineSet
Substitution2: "'ss05' Style Set 5 in Cyrillic lookup 38 subtable" K.ss05
Substitution2: "'ss05' Style Set 5 in Greek lookup 37 subtable" K.ss05
Substitution2: "'ss05' Style Set 5 lookup 36 subtable" K.ss05
Substitution2: "'ss05' Style Set 5 in Latin lookup 35 subtable" K.ss05
Substitution2: "'ss04' Style Set 4 in Cyrillic lookup 34 subtable" K.ss04
Substitution2: "'ss04' Style Set 4 in Greek lookup 33 subtable" K.ss04
Substitution2: "'ss04' Style Set 4 lookup 32 subtable" K.ss04
Substitution2: "'ss04' Style Set 4 in Latin lookup 31 subtable" K.ss04
Substitution2: "'c2sc' Capitals to Small Capitals in Cyrillic lookup 3 subtable" K.c2sc
Substitution2: "'c2sc' Capitals to Small Capitals in Greek lookup 2 subtable" K.c2sc
Substitution2: "'c2sc' Capitals to Small Capitals lookup 1 subtable" K.c2sc
Substitution2: "'c2sc' Capitals to Small Capitals in Latin lookup 0 subtable" K.c2sc
Position2: "'cpsp' Capital Spacing in Cyrillic lookup 3 subtable" dx=36 dy=0 dh=72 dv=0
Position2: "'cpsp' Capital Spacing in Greek lookup 2 subtable" dx=36 dy=0 dh=72 dv=0
Position2: "'cpsp' Capital Spacing lookup 1 subtable" dx=36 dy=0 dh=72 dv=0
Position2: "'cpsp' Capital Spacing in Latin lookup 0 subtable" dx=36 dy=0 dh=72 dv=0
EndChar

StartChar: L
Encoding: 76 76 48
Width: 1087
Flags: W
LayerCount: 2
Back
Fore
SplineSet
391 270 m 1,0,-1
 984 270 l 1,1,-1
 937 0 l 1,2,-1
 2 0 l 1,3,-1
 254 1456 l 1,4,-1
 597 1456 l 1,5,-1
 391 270 l 1,0,-1
EndSplineSet
Substitution2: "'c2sc' Capitals to Small Capitals in Cyrillic lookup 3 subtable" L.c2sc
Substitution2: "'c2sc' Capitals to Small Capitals in Greek lookup 2 subtable" L.c2sc
Substitution2: "'c2sc' Capitals to Small Capitals lookup 1 subtable" L.c2sc
Substitution2: "'c2sc' Capitals to Small Capitals in Latin lookup 0 subtable" L.c2sc
Position2: "'cpsp' Capital Spacing in Cyrillic lookup 3 subtable" dx=36 dy=0 dh=72 dv=0
Position2: "'cpsp' Capital Spacing in Greek lookup 2 subtable" dx=36 dy=0 dh=72 dv=0
Position2: "'cpsp' Capital Spacing lookup 1 subtable" dx=36 dy=0 dh=72 dv=0
Position2: "'cpsp' Capital Spacing in Latin lookup 0 subtable" dx=36 dy=0 dh=72 dv=0
EndChar

StartChar: M
Encoding: 77 77 49
Width: 1751
Flags: W
LayerCount: 2
Back
Fore
SplineSet
698 1456 m 1,0,-1
 837 446 l 1,1,-1
 1325 1456 l 1,2,-1
 1781 1456 l 1,3,-1
 1529 0 l 1,4,-1
 1185 0 l 1,5,-1
 1247 357 l 1,6,-1
 1395 1015 l 1,7,-1
 885 0 l 1,8,-1
 658 0 l 1,9,-1
 493 1053 l 1,10,-1
 401 323 l 1,11,-1
 344 0 l 1,12,-1
 2 0 l 1,13,-1
 254 1456 l 1,14,-1
 698 1456 l 1,0,-1
EndSplineSet
Substitution2: "'c2sc' Capitals to Small Capitals in Cyrillic lookup 3 subtable" M.c2sc
Substitution2: "'c2sc' Capitals to Small Capitals in Greek lookup 2 subtable" M.c2sc
Substitution2: "'c2sc' Capitals to Small Capitals lookup 1 subtable" M.c2sc
Substitution2: "'c2sc' Capitals to Small Capitals in Latin lookup 0 subtable" M.c2sc
Position2: "'cpsp' Capital Spacing in Cyrillic lookup 3 subtable" dx=36 dy=0 dh=72 dv=0
Position2: "'cpsp' Capital Spacing in Greek lookup 2 subtable" dx=36 dy=0 dh=72 dv=0
Position2: "'cpsp' Capital Spacing lookup 1 subtable" dx=36 dy=0 dh=72 dv=0
Position2: "'cpsp' Capital Spacing in Latin lookup 0 subtable" dx=36 dy=0 dh=72 dv=0
EndChar

StartChar: N
Encoding: 78 78 50
Width: 1405
Flags: W
LayerCount: 2
Back
Fore
SplineSet
1183 0 m 1,0,-1
 852 0 l 1,1,-1
 504 919 l 1,2,-1
 344 0 l 1,3,-1
 2 0 l 1,4,-1
 254 1456 l 1,5,-1
 588 1456 l 1,6,-1
 935 537 l 1,7,-1
 1094 1456 l 1,8,-1
 1436 1456 l 1,9,-1
 1183 0 l 1,0,-1
EndSplineSet
Substitution2: "'c2sc' Capitals to Small Capitals in Cyrillic lookup 3 subtable" N.c2sc
Substitution2: "'c2sc' Capitals to Small Capitals in Greek lookup 2 subtable" N.c2sc
Substitution2: "'c2sc' Capitals to Small Capitals lookup 1 subtable" N.c2sc
Substitution2: "'c2sc' Capitals to Small Capitals in Latin lookup 0 subtable" N.c2sc
Position2: "'cpsp' Capital Spacing in Cyrillic lookup 3 subtable" dx=36 dy=0 dh=72 dv=0
Position2: "'cpsp' Capital Spacing in Greek lookup 2 subtable" dx=36 dy=0 dh=72 dv=0
Position2: "'cpsp' Capital Spacing lookup 1 subtable" dx=36 dy=0 dh=72 dv=0
Position2: "'cpsp' Capital Spacing in Latin lookup 0 subtable" dx=36 dy=0 dh=72 dv=0
EndChar

StartChar: O
Encoding: 79 79 51
Width: 1382
Flags: W
LayerCount: 2
Back
Fore
SplineSet
603 -20 m 0,0,1
 376 -15 376 -15 239 130 c 128,-1,2
 102 275 102 275 84 518 c 0,3,4
 74 638 74 638 103 800.5 c 128,-1,5
 132 963 132 963 206 1100 c 128,-1,6
 280 1237 280 1237 391 1328 c 0,7,8
 577 1481 577 1481 819 1476 c 0,9,10
 968 1473 968 1473 1079.5 1407.5 c 128,-1,11
 1191 1342 1191 1342 1258 1219 c 128,-1,12
 1325 1096 1325 1096 1336 939 c 0,13,14
 1344 828 1344 828 1322.5 686.5 c 128,-1,15
 1301 545 1301 545 1243.5 416.5 c 128,-1,16
 1186 288 1186 288 1095 190 c 128,-1,17
 1004 92 1004 92 880.5 34.5 c 128,-1,18
 757 -23 757 -23 603 -20 c 0,0,1
993 942 m 0,19,20
 983 1192 983 1192 799 1202 c 0,21,22
 657 1209 657 1209 564 1089.5 c 128,-1,23
 471 970 471 970 441 737 c 0,24,25
 422 593 422 593 427 514 c 0,26,27
 437 260 437 260 623 253 c 0,28,29
 745 247 745 247 833 340.5 c 128,-1,30
 921 434 921 434 960 612.5 c 128,-1,31
 999 791 999 791 993 942 c 0,19,20
EndSplineSet
Substitution2: "'ss06' Style Set 6 in Cyrillic lookup 42 subtable" O.ss06
Substitution2: "'ss06' Style Set 6 in Greek lookup 41 subtable" O.ss06
Substitution2: "'ss06' Style Set 6 lookup 40 subtable" O.ss06
Substitution2: "'ss06' Style Set 6 in Latin lookup 39 subtable" O.ss06
Substitution2: "'c2sc' Capitals to Small Capitals in Cyrillic lookup 3 subtable" O.c2sc
Substitution2: "'c2sc' Capitals to Small Capitals in Greek lookup 2 subtable" O.c2sc
Substitution2: "'c2sc' Capitals to Small Capitals lookup 1 subtable" O.c2sc
Substitution2: "'c2sc' Capitals to Small Capitals in Latin lookup 0 subtable" O.c2sc
Position2: "'cpsp' Capital Spacing in Cyrillic lookup 3 subtable" dx=36 dy=0 dh=72 dv=0
Position2: "'cpsp' Capital Spacing in Greek lookup 2 subtable" dx=36 dy=0 dh=72 dv=0
Position2: "'cpsp' Capital Spacing lookup 1 subtable" dx=36 dy=0 dh=72 dv=0
Position2: "'cpsp' Capital Spacing in Latin lookup 0 subtable" dx=36 dy=0 dh=72 dv=0
EndChar

StartChar: P
Encoding: 80 80 52
Width: 1303
Flags: W
LayerCount: 2
Back
Fore
SplineSet
430 494 m 1,0,-1
 344 0 l 1,1,-1
 2 0 l 1,2,-1
 254 1456 l 1,3,-1
 777 1455 l 2,4,5
 1020 1455 1020 1455 1159.5 1320 c 128,-1,6
 1299 1185 1299 1185 1282 970 c 0,7,8
 1270 823 1270 823 1188 715 c 128,-1,9
 1106 607 1106 607 971.5 550 c 128,-1,10
 837 493 837 493 670 493 c 2,11,-1
 430 494 l 1,0,-1
477 765 m 1,12,-1
 683 763 l 1,13,14
 813 766 813 766 882 847.5 c 128,-1,15
 951 929 951 929 937 1048 c 0,16,17
 929 1109 929 1109 890.5 1144.5 c 128,-1,18
 852 1180 852 1180 789 1184 c 2,19,-1
 550 1185 l 1,20,-1
 477 765 l 1,12,-1
EndSplineSet
Substitution2: "'c2sc' Capitals to Small Capitals in Cyrillic lookup 3 subtable" P.c2sc
Substitution2: "'c2sc' Capitals to Small Capitals in Greek lookup 2 subtable" P.c2sc
Substitution2: "'c2sc' Capitals to Small Capitals lookup 1 subtable" P.c2sc
Substitution2: "'c2sc' Capitals to Small Capitals in Latin lookup 0 subtable" P.c2sc
Position2: "'cpsp' Capital Spacing in Cyrillic lookup 3 subtable" dx=36 dy=0 dh=72 dv=0
Position2: "'cpsp' Capital Spacing in Greek lookup 2 subtable" dx=36 dy=0 dh=72 dv=0
Position2: "'cpsp' Capital Spacing lookup 1 subtable" dx=36 dy=0 dh=72 dv=0
Position2: "'cpsp' Capital Spacing in Latin lookup 0 subtable" dx=36 dy=0 dh=72 dv=0
EndChar

StartChar: Q
Encoding: 81 81 53
Width: 1382
Flags: W
LayerCount: 2
Back
Fore
SplineSet
1326 699 m 2,0,1
 1297 491 1297 491 1206.5 340.5 c 128,-1,2
 1116 190 1116 190 976 99 c 1,3,-1
 1171 -94 l 1,4,-1
 944 -266 l 1,5,-1
 686 -15 l 1,6,7
 630 -20 630 -20 602 -19 c 0,8,9
 455 -18 455 -18 341.5 48 c 128,-1,10
 228 114 228 114 162 238 c 128,-1,11
 96 362 96 362 85 522 c 0,12,13
 77 639 77 639 102 788.5 c 128,-1,14
 127 938 127 938 191 1068 c 0,15,16
 287 1263 287 1263 451 1371.5 c 128,-1,17
 615 1480 615 1480 820 1476 c 0,18,19
 968 1473 968 1473 1080 1407.5 c 128,-1,20
 1192 1342 1192 1342 1259.5 1216.5 c 128,-1,21
 1327 1091 1327 1091 1338 934 c 0,22,23
 1344 847 1344 847 1333 757 c 2,24,-1
 1326 699 l 2,0,1
995 942 m 0,25,26
 987 1073 987 1073 938.5 1135 c 128,-1,27
 890 1197 890 1197 800 1202 c 0,28,29
 655 1207 655 1207 564 1088 c 128,-1,30
 473 969 473 969 442 735 c 0,31,32
 423 595 423 595 428 513 c 0,33,34
 438 260 438 260 624 253 c 0,35,36
 759 246 759 246 850.5 358.5 c 128,-1,37
 942 471 942 471 976 692 c 0,38,39
 999 847 999 847 995 942 c 0,25,26
EndSplineSet
Substitution2: "'ss06' Style Set 6 in Cyrillic lookup 42 subtable" Q.ss06
Substitution2: "'ss06' Style Set 6 in Greek lookup 41 subtable" Q.ss06
Substitution2: "'ss06' Style Set 6 lookup 40 subtable" Q.ss06
Substitution2: "'ss06' Style Set 6 in Latin lookup 39 subtable" Q.ss06
Substitution2: "'c2sc' Capitals to Small Capitals in Cyrillic lookup 3 subtable" Q.c2sc
Substitution2: "'c2sc' Capitals to Small Capitals in Greek lookup 2 subtable" Q.c2sc
Substitution2: "'c2sc' Capitals to Small Capitals lookup 1 subtable" Q.c2sc
Substitution2: "'c2sc' Capitals to Small Capitals in Latin lookup 0 subtable" Q.c2sc
Position2: "'cpsp' Capital Spacing in Cyrillic lookup 3 subtable" dx=36 dy=0 dh=72 dv=0
Position2: "'cpsp' Capital Spacing in Greek lookup 2 subtable" dx=36 dy=0 dh=72 dv=0
Position2: "'cpsp' Capital Spacing lookup 1 subtable" dx=36 dy=0 dh=72 dv=0
Position2: "'cpsp' Capital Spacing in Latin lookup 0 subtable" dx=36 dy=0 dh=72 dv=0
EndChar

StartChar: R
Encoding: 82 82 54
Width: 1306
Flags: W
LayerCount: 2
Back
Fore
SplineSet
624 514 m 1,0,-1
 434 514 l 1,1,-1
 344 0 l 1,2,-1
 2 0 l 1,3,-1
 254 1456 l 1,4,-1
 768 1455 l 2,5,6
 1015 1455 1015 1455 1148.5 1339.5 c 128,-1,7
 1282 1224 1282 1224 1268 1024 c 0,8,9
 1257 866 1257 866 1177 762.5 c 128,-1,10
 1097 659 1097 659 953 599 c 1,11,-1
 1149 17 l 1,12,-1
 1149 0 l 1,13,-1
 784 0 l 1,14,-1
 624 514 l 1,0,-1
480 785 m 1,15,-1
 680 783 l 2,16,17
 762 783 762 783 822.5 823 c 128,-1,18
 883 863 883 863 909 932.5 c 128,-1,19
 935 1002 935 1002 924 1067 c 0,20,21
 904 1178 904 1178 782 1184 c 1,22,-1
 550 1185 l 1,23,-1
 480 785 l 1,15,-1
EndSplineSet
Substitution2: "'ss03' Style Set 3 in Cyrillic lookup 30 subtable" R.ss03
Substitution2: "'ss03' Style Set 3 in Greek lookup 29 subtable" R.ss03
Substitution2: "'ss03' Style Set 3 lookup 28 subtable" R.ss03
Substitution2: "'ss03' Style Set 3 in Latin lookup 27 subtable" R.ss03
Substitution2: "'c2sc' Capitals to Small Capitals in Cyrillic lookup 3 subtable" R.c2sc
Substitution2: "'c2sc' Capitals to Small Capitals in Greek lookup 2 subtable" R.c2sc
Substitution2: "'c2sc' Capitals to Small Capitals lookup 1 subtable" R.c2sc
Substitution2: "'c2sc' Capitals to Small Capitals in Latin lookup 0 subtable" R.c2sc
Position2: "'cpsp' Capital Spacing in Cyrillic lookup 3 subtable" dx=36 dy=0 dh=72 dv=0
Position2: "'cpsp' Capital Spacing in Greek lookup 2 subtable" dx=36 dy=0 dh=72 dv=0
Position2: "'cpsp' Capital Spacing lookup 1 subtable" dx=36 dy=0 dh=72 dv=0
Position2: "'cpsp' Capital Spacing in Latin lookup 0 subtable" dx=36 dy=0 dh=72 dv=0
EndChar

StartChar: S
Encoding: 83 83 55
Width: 1254
Flags: W
LayerCount: 2
Back
Fore
SplineSet
802 394 m 0,0,1
 824 507 824 507 680 569 c 2,2,-1
 516 637 l 1,3,4
 171 792 171 792 188 1059 c 0,5,6
 195 1181 195 1181 272 1276.5 c 128,-1,7
 349 1372 349 1372 485 1425 c 128,-1,8
 621 1478 621 1478 782 1476 c 0,9,10
 998 1472 998 1472 1129.5 1350 c 128,-1,11
 1261 1228 1261 1228 1259 1023 c 1,12,-1
 919 1023 l 1,13,14
 922 1107 922 1107 883.5 1157.5 c 128,-1,15
 845 1208 845 1208 757 1210 c 0,16,17
 671 1212 671 1212 605 1170 c 128,-1,18
 539 1128 539 1128 527 1057 c 0,19,20
 508 957 508 957 675.5 893 c 128,-1,21
 843 829 843 829 919 783 c 0,22,23
 1158 640 1158 640 1143 397 c 0,24,25
 1135 271 1135 271 1062 176 c 128,-1,26
 989 81 989 81 859.5 29 c 128,-1,27
 730 -23 730 -23 569 -21 c 0,28,29
 451 -19 451 -19 350 16 c 128,-1,30
 249 51 249 51 177 118 c 0,31,32
 31 253 31 253 37 473 c 1,33,-1
 380 472 l 1,34,35
 374 360 374 360 423 302.5 c 128,-1,36
 472 245 472 245 588 245 c 0,37,38
 674 245 674 245 731.5 284.5 c 128,-1,39
 789 324 789 324 802 394 c 0,0,1
EndSplineSet
Substitution2: "'c2sc' Capitals to Small Capitals in Cyrillic lookup 3 subtable" S.c2sc
Substitution2: "'c2sc' Capitals to Small Capitals in Greek lookup 2 subtable" S.c2sc
Substitution2: "'c2sc' Capitals to Small Capitals lookup 1 subtable" S.c2sc
Substitution2: "'c2sc' Capitals to Small Capitals in Latin lookup 0 subtable" S.c2sc
Position2: "'cpsp' Capital Spacing in Cyrillic lookup 3 subtable" dx=36 dy=0 dh=72 dv=0
Position2: "'cpsp' Capital Spacing in Greek lookup 2 subtable" dx=36 dy=0 dh=72 dv=0
Position2: "'cpsp' Capital Spacing lookup 1 subtable" dx=36 dy=0 dh=72 dv=0
Position2: "'cpsp' Capital Spacing in Latin lookup 0 subtable" dx=36 dy=0 dh=72 dv=0
EndChar

StartChar: T
Encoding: 84 84 56
Width: 1262
Flags: W
LayerCount: 2
Back
Fore
SplineSet
1318 1185 m 1,0,-1
 894 1185 l 1,1,-1
 689 0 l 1,2,-1
 346 0 l 1,3,-1
 552 1185 l 1,4,-1
 135 1185 l 1,5,-1
 183 1456 l 1,6,-1
 1365 1456 l 1,7,-1
 1318 1185 l 1,0,-1
EndSplineSet
Substitution2: "'c2sc' Capitals to Small Capitals in Cyrillic lookup 3 subtable" T.c2sc
Substitution2: "'c2sc' Capitals to Small Capitals in Greek lookup 2 subtable" T.c2sc
Substitution2: "'c2sc' Capitals to Small Capitals lookup 1 subtable" T.c2sc
Substitution2: "'c2sc' Capitals to Small Capitals in Latin lookup 0 subtable" T.c2sc
Position2: "'cpsp' Capital Spacing in Cyrillic lookup 3 subtable" dx=36 dy=0 dh=72 dv=0
Position2: "'cpsp' Capital Spacing in Greek lookup 2 subtable" dx=36 dy=0 dh=72 dv=0
Position2: "'cpsp' Capital Spacing lookup 1 subtable" dx=36 dy=0 dh=72 dv=0
Position2: "'cpsp' Capital Spacing in Latin lookup 0 subtable" dx=36 dy=0 dh=72 dv=0
EndChar

StartChar: U
Encoding: 85 85 57
Width: 1330
Flags: W
LayerCount: 2
Back
Fore
SplineSet
1368 1456 m 1,0,-1
 1206 506 l 1,1,2
 1171 259 1171 259 1002.5 117 c 128,-1,3
 834 -25 834 -25 578 -21 c 0,4,5
 419 -18 419 -18 302 47.5 c 128,-1,6
 185 113 185 113 129.5 232.5 c 128,-1,7
 74 352 74 352 92 505 c 1,8,-1
 254 1456 l 1,9,-1
 598 1456 l 1,10,-1
 437 504 l 2,11,12
 431 454 431 454 435 409 c 0,13,14
 440 335 440 335 481.5 294 c 128,-1,15
 523 253 523 253 599 250 c 0,16,17
 819 243 819 243 864 505 c 2,18,-1
 1026 1456 l 1,19,-1
 1368 1456 l 1,0,-1
EndSplineSet
Substitution2: "'c2sc' Capitals to Small Capitals in Cyrillic lookup 3 subtable" U.c2sc
Substitution2: "'c2sc' Capitals to Small Capitals in Greek lookup 2 subtable" U.c2sc
Substitution2: "'c2sc' Capitals to Small Capitals lookup 1 subtable" U.c2sc
Substitution2: "'c2sc' Capitals to Small Capitals in Latin lookup 0 subtable" U.c2sc
Position2: "'cpsp' Capital Spacing in Cyrillic lookup 3 subtable" dx=36 dy=0 dh=72 dv=0
Position2: "'cpsp' Capital Spacing in Greek lookup 2 subtable" dx=36 dy=0 dh=72 dv=0
Position2: "'cpsp' Capital Spacing lookup 1 subtable" dx=36 dy=0 dh=72 dv=0
Position2: "'cpsp' Capital Spacing in Latin lookup 0 subtable" dx=36 dy=0 dh=72 dv=0
EndChar

StartChar: V
Encoding: 86 86 58
Width: 1322
Flags: W
LayerCount: 2
Back
Fore
SplineSet
619 400 m 1,0,-1
 1065 1456 l 1,1,-1
 1457 1456 l 1,2,-1
 753 0 l 1,3,-1
 379 0 l 1,4,-1
 135 1456 l 1,5,-1
 505 1456 l 1,6,-1
 619 400 l 1,0,-1
EndSplineSet
Substitution2: "'c2sc' Capitals to Small Capitals in Cyrillic lookup 3 subtable" V.c2sc
Substitution2: "'c2sc' Capitals to Small Capitals in Greek lookup 2 subtable" V.c2sc
Substitution2: "'c2sc' Capitals to Small Capitals lookup 1 subtable" V.c2sc
Substitution2: "'c2sc' Capitals to Small Capitals in Latin lookup 0 subtable" V.c2sc
Position2: "'cpsp' Capital Spacing in Cyrillic lookup 3 subtable" dx=36 dy=0 dh=72 dv=0
Position2: "'cpsp' Capital Spacing in Greek lookup 2 subtable" dx=36 dy=0 dh=72 dv=0
Position2: "'cpsp' Capital Spacing lookup 1 subtable" dx=36 dy=0 dh=72 dv=0
Position2: "'cpsp' Capital Spacing in Latin lookup 0 subtable" dx=36 dy=0 dh=72 dv=0
EndChar

StartChar: W
Encoding: 87 87 59
Width: 1737
Flags: W
LayerCount: 2
Back
Fore
SplineSet
1189 547 m 1,0,-1
 1493 1456 l 1,1,-1
 1839 1456 l 1,2,-1
 1311 0 l 1,3,-1
 957 0 l 1,4,-1
 898 825 l 1,5,-1
 584 0 l 1,6,-1
 230 0 l 1,7,-1
 157 1456 l 1,8,-1
 490 1456 l 1,9,-1
 510 551 l 1,10,-1
 844 1456 l 1,11,-1
 1135 1456 l 1,12,-1
 1189 547 l 1,0,-1
EndSplineSet
Substitution2: "'c2sc' Capitals to Small Capitals in Cyrillic lookup 3 subtable" W.c2sc
Substitution2: "'c2sc' Capitals to Small Capitals in Greek lookup 2 subtable" W.c2sc
Substitution2: "'c2sc' Capitals to Small Capitals lookup 1 subtable" W.c2sc
Substitution2: "'c2sc' Capitals to Small Capitals in Latin lookup 0 subtable" W.c2sc
Position2: "'cpsp' Capital Spacing in Cyrillic lookup 3 subtable" dx=36 dy=0 dh=72 dv=0
Position2: "'cpsp' Capital Spacing in Greek lookup 2 subtable" dx=36 dy=0 dh=72 dv=0
Position2: "'cpsp' Capital Spacing lookup 1 subtable" dx=36 dy=0 dh=72 dv=0
Position2: "'cpsp' Capital Spacing in Latin lookup 0 subtable" dx=36 dy=0 dh=72 dv=0
EndChar

StartChar: X
Encoding: 88 88 60
Width: 1278
Flags: W
LayerCount: 2
Back
Fore
SplineSet
684 974 m 1,0,-1
 990 1456 l 1,1,-1
 1396 1456 l 1,2,-1
 878 720 l 1,3,-1
 1163 0 l 1,4,-1
 784 0 l 1,5,-1
 624 491 l 1,6,-1
 310 0 l 1,7,-1
 -99 0 l 1,8,-1
 431 748 l 1,9,-1
 155 1456 l 1,10,-1
 530 1456 l 1,11,-1
 684 974 l 1,0,-1
EndSplineSet
Substitution2: "'c2sc' Capitals to Small Capitals in Cyrillic lookup 3 subtable" X.c2sc
Substitution2: "'c2sc' Capitals to Small Capitals in Greek lookup 2 subtable" X.c2sc
Substitution2: "'c2sc' Capitals to Small Capitals lookup 1 subtable" X.c2sc
Substitution2: "'c2sc' Capitals to Small Capitals in Latin lookup 0 subtable" X.c2sc
Position2: "'cpsp' Capital Spacing in Cyrillic lookup 3 subtable" dx=36 dy=0 dh=72 dv=0
Position2: "'cpsp' Capital Spacing in Greek lookup 2 subtable" dx=36 dy=0 dh=72 dv=0
Position2: "'cpsp' Capital Spacing lookup 1 subtable" dx=36 dy=0 dh=72 dv=0
Position2: "'cpsp' Capital Spacing in Latin lookup 0 subtable" dx=36 dy=0 dh=72 dv=0
EndChar

StartChar: Y
Encoding: 89 89 61
Width: 1257
Flags: W
LayerCount: 2
Back
Fore
SplineSet
656 826 m 1,0,-1
 1024 1456 l 1,1,-1
 1409 1456 l 1,2,-1
 781 507 l 1,3,-1
 694 0 l 1,4,-1
 346 0 l 1,5,-1
 440 540 l 1,6,-1
 149 1455 l 1,7,-1
 505 1456 l 1,8,-1
 656 826 l 1,0,-1
EndSplineSet
Substitution2: "'c2sc' Capitals to Small Capitals in Cyrillic lookup 3 subtable" Y.c2sc
Substitution2: "'c2sc' Capitals to Small Capitals in Greek lookup 2 subtable" Y.c2sc
Substitution2: "'c2sc' Capitals to Small Capitals lookup 1 subtable" Y.c2sc
Substitution2: "'c2sc' Capitals to Small Capitals in Latin lookup 0 subtable" Y.c2sc
Position2: "'cpsp' Capital Spacing in Cyrillic lookup 3 subtable" dx=36 dy=0 dh=72 dv=0
Position2: "'cpsp' Capital Spacing in Greek lookup 2 subtable" dx=36 dy=0 dh=72 dv=0
Position2: "'cpsp' Capital Spacing lookup 1 subtable" dx=36 dy=0 dh=72 dv=0
Position2: "'cpsp' Capital Spacing in Latin lookup 0 subtable" dx=36 dy=0 dh=72 dv=0
EndChar

StartChar: Z
Encoding: 90 90 62
Width: 1222
Flags: W
LayerCount: 2
Back
Fore
SplineSet
437 272 m 1,0,-1
 1108 270 l 1,1,-1
 1061 0 l 1,2,-1
 -41 0 l 1,3,-1
 -6 200 l 1,4,-1
 833 1183 l 1,5,-1
 160 1185 l 1,6,-1
 208 1456 l 1,7,-1
 1307 1456 l 1,8,-1
 1273 1261 l 1,9,-1
 437 272 l 1,0,-1
EndSplineSet
Substitution2: "'c2sc' Capitals to Small Capitals in Cyrillic lookup 3 subtable" Z.c2sc
Substitution2: "'c2sc' Capitals to Small Capitals in Greek lookup 2 subtable" Z.c2sc
Substitution2: "'c2sc' Capitals to Small Capitals lookup 1 subtable" Z.c2sc
Substitution2: "'c2sc' Capitals to Small Capitals in Latin lookup 0 subtable" Z.c2sc
Position2: "'cpsp' Capital Spacing in Cyrillic lookup 3 subtable" dx=36 dy=0 dh=72 dv=0
Position2: "'cpsp' Capital Spacing in Greek lookup 2 subtable" dx=36 dy=0 dh=72 dv=0
Position2: "'cpsp' Capital Spacing lookup 1 subtable" dx=36 dy=0 dh=72 dv=0
Position2: "'cpsp' Capital Spacing in Latin lookup 0 subtable" dx=36 dy=0 dh=72 dv=0
EndChar

StartChar: bracketleft
Encoding: 91 91 63
Width: 570
Flags: W
LayerCount: 2
Back
Fore
SplineSet
682 1460 m 1,0,-1
 568 1460 l 1,1,-1
 324 -104 l 1,2,-1
 439 -104 l 1,3,-1
 400 -349 l 1,4,-1
 -44 -349 l 1,5,-1
 277 1706 l 1,6,-1
 721 1706 l 1,7,-1
 682 1460 l 1,0,-1
EndSplineSet
EndChar

StartChar: backslash
Encoding: 92 92 64
Width: 857
Flags: W
LayerCount: 2
Back
Fore
SplineSet
135 1456 m 1,0,-1
 464 1456 l 1,1,-1
 780 -125 l 1,2,-1
 449 -125 l 1,3,-1
 135 1456 l 1,0,-1
EndSplineSet
EndChar

StartChar: bracketright
Encoding: 93 93 65
Width: 570
Flags: W
LayerCount: 2
Back
Fore
SplineSet
186 1706 m 1,0,-1
 630 1706 l 1,1,-1
 309 -349 l 1,2,-1
 -136 -349 l 1,3,-1
 -97 -104 l 1,4,-1
 18 -104 l 1,5,-1
 262 1460 l 1,6,-1
 147 1460 l 1,7,-1
 186 1706 l 1,0,-1
EndSplineSet
EndChar

StartChar: asciicircum
Encoding: 94 94 66
Width: 899
Flags: W
LayerCount: 2
Back
Fore
SplineSet
554 1179 m 1,0,-1
 310 729 l 1,1,-1
 49 729 l 1,2,-1
 466 1456 l 1,3,-1
 709 1456 l 1,4,-1
 874 729 l 1,5,-1
 639 729 l 1,6,-1
 554 1179 l 1,0,-1
EndSplineSet
EndChar

StartChar: underscore
Encoding: 95 95 67
Width: 887
Flags: W
LayerCount: 2
Back
Fore
SplineSet
730 -251 m 1,0,-1
 -148 -251 l 1,1,-1
 -104 0 l 1,2,-1
 774 0 l 1,3,-1
 730 -251 l 1,0,-1
EndSplineSet
EndChar

StartChar: grave
Encoding: 96 96 68
Width: 684
Flags: W
LayerCount: 2
Back
Fore
SplineSet
681 1222 m 1,0,-1
 434 1222 l 1,1,-1
 205 1534 l 1,2,-1
 536 1536 l 1,3,-1
 681 1222 l 1,0,-1
EndSplineSet
EndChar

StartChar: a
Encoding: 97 97 69
Width: 1064
Flags: W
LayerCount: 2
Back
Fore
SplineSet
597 0 m 1,0,1
 583 39 583 39 583 98 c 1,2,3
 472 -24 472 -24 318 -20 c 0,4,5
 177 -18 177 -18 84 74 c 128,-1,6
 -9 166 -9 166 -3 297 c 0,7,8
 2 473 2 473 144 567.5 c 128,-1,9
 286 662 286 662 532 662 c 1,10,-1
 642 660 l 1,11,-1
 654 721 l 1,12,-1
 658 774 l 1,13,14
 654 865 654 865 567 868 c 0,15,16
 459 870 459 870 434 749 c 1,17,-1
 104 748 l 1,18,19
 109 857 109 857 175 937.5 c 128,-1,20
 241 1018 241 1018 354.5 1061.5 c 128,-1,21
 468 1105 468 1105 596 1102 c 0,22,23
 719 1099 719 1099 811.5 1050.5 c 128,-1,24
 904 1002 904 1002 950 915.5 c 128,-1,25
 996 829 996 829 985 716 c 1,26,-1
 904 207 l 1,27,-1
 899 145 l 2,28,29
 895 71 895 71 918 19 c 1,30,-1
 917 0 l 1,31,-1
 597 0 l 1,0,1
409 218 m 0,32,33
 510 214 510 214 586 307 c 1,34,-1
 619 481 l 1,35,-1
 534 482 l 2,36,37
 455 480 455 480 398 435.5 c 128,-1,38
 341 391 341 391 331 314 c 0,39,40
 326 273 326 273 346.5 246.5 c 128,-1,41
 367 220 367 220 409 218 c 0,32,33
EndSplineSet
Substitution2: "'smcp' Lowercase to Small Capitals in Cyrillic lookup 7 subtable" A.c2sc
Substitution2: "'smcp' Lowercase to Small Capitals in Greek lookup 6 subtable" A.c2sc
Substitution2: "'smcp' Lowercase to Small Capitals lookup 5 subtable" A.c2sc
Substitution2: "'smcp' Lowercase to Small Capitals in Latin lookup 4 subtable" A.c2sc
EndChar

StartChar: b
Encoding: 98 98 70
Width: 1128
Flags: W
LayerCount: 2
Back
Fore
SplineSet
1055 539 m 1,0,1
 1024 276 1024 276 900 125 c 128,-1,2
 776 -26 776 -26 574 -21 c 0,3,4
 414 -17 414 -17 328 113 c 1,5,-1
 287 0 l 1,6,-1
 -11 0 l 1,7,-1
 256 1536 l 1,8,-1
 585 1536 l 1,9,-1
 478 993 l 1,10,11
 587 1104 587 1104 721 1102 c 0,12,13
 880 1100 880 1100 969 988.5 c 128,-1,14
 1058 877 1058 877 1063 685 c 0,15,16
 1064 621 1064 621 1058 560 c 2,17,-1
 1055 539 l 1,0,1
728 559 m 2,18,19
 736 620 736 620 737 675 c 0,20,21
 737 836 737 836 622 843 c 0,22,23
 520 847 520 847 451 756 c 1,24,-1
 373 324 l 1,25,26
 404 241 404 241 509 239 c 0,27,28
 670 234 670 234 712 449 c 1,29,-1
 726 538 l 1,30,-1
 728 559 l 2,18,19
EndSplineSet
Substitution2: "'ss06' Style Set 6 in Cyrillic lookup 42 subtable" b.ss06
Substitution2: "'ss06' Style Set 6 in Greek lookup 41 subtable" b.ss06
Substitution2: "'ss06' Style Set 6 lookup 40 subtable" b.ss06
Substitution2: "'ss06' Style Set 6 in Latin lookup 39 subtable" b.ss06
Substitution2: "'smcp' Lowercase to Small Capitals in Cyrillic lookup 7 subtable" B.c2sc
Substitution2: "'smcp' Lowercase to Small Capitals in Greek lookup 6 subtable" B.c2sc
Substitution2: "'smcp' Lowercase to Small Capitals lookup 5 subtable" B.c2sc
Substitution2: "'smcp' Lowercase to Small Capitals in Latin lookup 4 subtable" B.c2sc
EndChar

StartChar: c
Encoding: 99 99 71
Width: 1042
Flags: W
LayerCount: 2
Back
Fore
SplineSet
488 239 m 0,0,1
 559 237 559 237 599 278.5 c 128,-1,2
 639 320 639 320 650 386 c 1,3,-1
 958 387 l 1,4,5
 952 268 952 268 887.5 174 c 128,-1,6
 823 80 823 80 713.5 28.5 c 128,-1,7
 604 -23 604 -23 479 -20 c 0,8,9
 263 -16 263 -16 146 135.5 c 128,-1,10
 29 287 29 287 51 527 c 1,11,-1
 54 551 l 2,12,13
 72 715 72 715 146 841.5 c 128,-1,14
 220 968 220 968 340.5 1037 c 128,-1,15
 461 1106 461 1106 610 1102 c 0,16,17
 799 1098 799 1098 908.5 981.5 c 128,-1,18
 1018 865 1018 865 1014 667 c 1,19,-1
 706 668 l 1,20,21
 711 840 711 840 583 843 c 0,22,23
 409 849 409 849 383 550 c 2,24,-1
 374 448 l 1,25,-1
 373 410 l 1,26,27
 373 242 373 242 488 239 c 0,0,1
EndSplineSet
Substitution2: "'ss06' Style Set 6 in Cyrillic lookup 42 subtable" c.ss06
Substitution2: "'ss06' Style Set 6 in Greek lookup 41 subtable" c.ss06
Substitution2: "'ss06' Style Set 6 lookup 40 subtable" c.ss06
Substitution2: "'ss06' Style Set 6 in Latin lookup 39 subtable" c.ss06
Substitution2: "'smcp' Lowercase to Small Capitals in Cyrillic lookup 7 subtable" C.c2sc
Substitution2: "'smcp' Lowercase to Small Capitals in Greek lookup 6 subtable" C.c2sc
Substitution2: "'smcp' Lowercase to Small Capitals lookup 5 subtable" C.c2sc
Substitution2: "'smcp' Lowercase to Small Capitals in Latin lookup 4 subtable" C.c2sc
EndChar

StartChar: d
Encoding: 100 100 72
Width: 1127
Flags: W
LayerCount: 2
Back
Fore
SplineSet
41 543 m 1,0,1
 72 799 72 799 197 953 c 128,-1,2
 322 1107 322 1107 523 1102 c 0,3,4
 661 1098 661 1098 752 986 c 1,5,-1
 857 1536 l 1,6,-1
 1187 1536 l 1,7,-1
 921 0 l 1,8,-1
 628 0 l 1,9,-1
 642 117 l 1,10,11
 521 -25 521 -25 373 -21 c 0,12,13
 217 -19 217 -19 128.5 94.5 c 128,-1,14
 40 208 40 208 34 399 c 0,15,16
 32 462 32 462 38 522 c 2,17,-1
 41 543 l 1,0,1
369 521 m 0,18,19
 361 457 361 457 362 409 c 0,20,21
 362 243 362 243 474 240 c 0,22,23
 571 237 571 237 647 333 c 1,24,-1
 721 748 l 1,25,26
 688 840 688 840 589 843 c 0,27,28
 497 845 497 845 440.5 763.5 c 128,-1,29
 384 682 384 682 369 521 c 0,18,19
EndSplineSet
Substitution2: "'ss06' Style Set 6 in Cyrillic lookup 42 subtable" d.ss06
Substitution2: "'ss06' Style Set 6 in Greek lookup 41 subtable" d.ss06
Substitution2: "'ss06' Style Set 6 lookup 40 subtable" d.ss06
Substitution2: "'ss06' Style Set 6 in Latin lookup 39 subtable" d.ss06
Substitution2: "'smcp' Lowercase to Small Capitals in Cyrillic lookup 7 subtable" D.c2sc
Substitution2: "'smcp' Lowercase to Small Capitals in Greek lookup 6 subtable" D.c2sc
Substitution2: "'smcp' Lowercase to Small Capitals lookup 5 subtable" D.c2sc
Substitution2: "'smcp' Lowercase to Small Capitals in Latin lookup 4 subtable" D.c2sc
EndChar

StartChar: e
Encoding: 101 101 73
Width: 1092
Flags: W
LayerCount: 2
Back
Fore
SplineSet
525 -20 m 2,0,1
 380 -19 380 -19 266.5 48.5 c 128,-1,2
 153 116 153 116 95 236.5 c 128,-1,3
 37 357 37 357 49 502 c 2,4,-1
 52 530 l 2,5,6
 79 797 79 797 237.5 952.5 c 128,-1,7
 396 1108 396 1108 626 1102 c 0,8,9
 765 1100 765 1100 864 1031.5 c 128,-1,10
 963 963 963 963 1009 842.5 c 128,-1,11
 1055 722 1055 722 1039 572 c 1,12,-1
 1020 435 l 1,13,-1
 376 435 l 1,14,15
 378 350 378 350 424 297 c 128,-1,16
 470 244 470 244 558 241 c 0,17,18
 701 237 701 237 815 351 c 1,19,-1
 953 168 l 1,20,21
 892 81 892 81 782.5 31.5 c 128,-1,22
 673 -18 673 -18 543 -20 c 2,23,-1
 525 -20 l 2,0,1
605 843 m 0,24,25
 535 845 535 845 483.5 799 c 128,-1,26
 432 753 432 753 394 645 c 1,27,-1
 723 645 l 1,28,-1
 729 674 l 2,29,30
 735 709 735 709 731 740 c 0,31,32
 714 840 714 840 605 843 c 0,24,25
EndSplineSet
Substitution2: "'ss07' Style Set 7 in Cyrillic lookup 46 subtable" e.ss07
Substitution2: "'ss07' Style Set 7 in Greek lookup 45 subtable" e.ss07
Substitution2: "'ss07' Style Set 7 lookup 44 subtable" e.ss07
Substitution2: "'ss07' Style Set 7 in Latin lookup 43 subtable" e.ss07
Substitution2: "'smcp' Lowercase to Small Capitals in Cyrillic lookup 7 subtable" E.c2sc
Substitution2: "'smcp' Lowercase to Small Capitals in Greek lookup 6 subtable" E.c2sc
Substitution2: "'smcp' Lowercase to Small Capitals lookup 5 subtable" E.c2sc
Substitution2: "'smcp' Lowercase to Small Capitals in Latin lookup 4 subtable" E.c2sc
EndChar

StartChar: f
Encoding: 102 102 74
Width: 730
Flags: W
LayerCount: 2
Back
Fore
SplineSet
59 0 m 1,0,-1
 206 848 l 1,1,-1
 54 848 l 1,2,-1
 94 1082 l 1,3,-1
 246 1083 l 1,4,-1
 259 1178 l 2,5,6
 284 1351 284 1351 397 1453 c 0,7,8
 518 1561 518 1561 712 1559 c 0,9,10
 762 1559 762 1559 875 1537 c 1,11,-1
 850 1288 l 1,12,13
 804 1300 804 1300 772 1300 c 0,14,15
 699 1300 699 1300 651.5 1266.5 c 128,-1,16
 604 1233 604 1233 591 1170 c 2,17,-1
 576 1082 l 1,18,-1
 781 1082 l 1,19,-1
 741 848 l 1,20,-1
 536 848 l 1,21,-1
 389 0 l 1,22,-1
 59 0 l 1,0,-1
EndSplineSet
Substitution2: "'smcp' Lowercase to Small Capitals in Cyrillic lookup 7 subtable" F.c2sc
Substitution2: "'smcp' Lowercase to Small Capitals in Greek lookup 6 subtable" F.c2sc
Substitution2: "'smcp' Lowercase to Small Capitals lookup 5 subtable" F.c2sc
Substitution2: "'smcp' Lowercase to Small Capitals in Latin lookup 4 subtable" F.c2sc
EndChar

StartChar: g
Encoding: 103 103 75
Width: 1153
Flags: W
LayerCount: 2
Back
Fore
SplineSet
43 543 m 0,0,1
 62 706 62 706 132.5 838 c 128,-1,2
 203 970 203 970 309 1037.5 c 128,-1,3
 415 1105 415 1105 549 1103 c 0,4,5
 712 1099 712 1099 795 986 c 1,6,-1
 830 1083 l 1,7,-1
 1134 1082 l 1,8,-1
 957 42 l 1,9,10
 927 -178 927 -178 764 -305 c 128,-1,11
 601 -432 601 -432 358 -426 c 0,12,13
 250 -424 250 -424 149 -383 c 128,-1,14
 48 -342 48 -342 -24 -259 c 1,15,-1
 132 -65 l 1,16,17
 219 -175 219 -175 358 -178 c 0,18,19
 577 -182 577 -182 636 55 c 2,20,-1
 644 88 l 1,21,22
 532 -22 532 -22 397 -20 c 0,23,24
 293 -19 293 -19 214 32.5 c 128,-1,25
 135 84 135 84 90 181 c 128,-1,26
 45 278 45 278 39 397 c 0,27,28
 35 457 35 457 43 543 c 0,0,1
368 436 m 0,29,30
 368 344 368 344 401 293 c 128,-1,31
 434 242 434 242 497 240 c 0,32,33
 590 236 590 236 666 312 c 1,34,-1
 751 771 l 1,35,36
 711 841 711 841 617 843 c 0,37,38
 521 845 521 845 456 761.5 c 128,-1,39
 391 678 391 678 374 542 c 0,40,41
 368 479 368 479 368 436 c 0,29,30
EndSplineSet
Substitution2: "'ss07' Style Set 7 in Cyrillic lookup 46 subtable" g.ss07
Substitution2: "'ss07' Style Set 7 in Greek lookup 45 subtable" g.ss07
Substitution2: "'ss07' Style Set 7 lookup 44 subtable" g.ss07
Substitution2: "'ss07' Style Set 7 in Latin lookup 43 subtable" g.ss07
Substitution2: "'ss06' Style Set 6 in Cyrillic lookup 42 subtable" g.ss06
Substitution2: "'ss06' Style Set 6 in Greek lookup 41 subtable" g.ss06
Substitution2: "'ss06' Style Set 6 lookup 40 subtable" g.ss06
Substitution2: "'ss06' Style Set 6 in Latin lookup 39 subtable" g.ss06
Substitution2: "'ss01' Style Set 1 in Cyrillic lookup 22 subtable" g.ss01
Substitution2: "'ss01' Style Set 1 in Greek lookup 21 subtable" g.ss01
Substitution2: "'ss01' Style Set 1 lookup 20 subtable" g.ss01
Substitution2: "'ss01' Style Set 1 in Latin lookup 19 subtable" g.ss01
Substitution2: "'smcp' Lowercase to Small Capitals in Cyrillic lookup 7 subtable" G.c2sc
Substitution2: "'smcp' Lowercase to Small Capitals in Greek lookup 6 subtable" G.c2sc
Substitution2: "'smcp' Lowercase to Small Capitals lookup 5 subtable" G.c2sc
Substitution2: "'smcp' Lowercase to Small Capitals in Latin lookup 4 subtable" G.c2sc
EndChar

StartChar: h
Encoding: 104 104 76
Width: 1131
Flags: W
LayerCount: 2
Back
Fore
SplineSet
463 964 m 1,0,1
 584 1105 584 1105 742 1103 c 0,2,3
 905 1099 905 1099 983.5 984 c 128,-1,4
 1062 869 1062 869 1040 672 c 1,5,-1
 928 0 l 1,6,-1
 599 0 l 1,7,-1
 712 676 l 2,8,9
 716 710 716 710 714 740 c 0,10,11
 707 839 707 839 604 842 c 0,12,13
 515 844 515 844 446 777 c 1,14,-1
 308 0 l 1,15,-1
 -21 0 l 1,16,-1
 246 1536 l 1,17,-1
 575 1536 l 1,18,-1
 463 964 l 1,0,1
EndSplineSet
Substitution2: "'smcp' Lowercase to Small Capitals in Cyrillic lookup 7 subtable" H.c2sc
Substitution2: "'smcp' Lowercase to Small Capitals in Greek lookup 6 subtable" H.c2sc
Substitution2: "'smcp' Lowercase to Small Capitals lookup 5 subtable" H.c2sc
Substitution2: "'smcp' Lowercase to Small Capitals in Latin lookup 4 subtable" H.c2sc
EndChar

StartChar: i
Encoding: 105 105 77
Width: 556
Flags: W
LayerCount: 2
Back
Fore
SplineSet
334 0 m 1,0,-1
 4 0 l 1,1,-1
 192 1082 l 1,2,-1
 522 1082 l 1,3,-1
 334 0 l 1,0,-1
221 1355 m 0,4,5
 219 1428 219 1428 272.5 1477 c 128,-1,6
 326 1526 326 1526 402 1526 c 0,7,8
 479 1526 479 1526 530.5 1482 c 128,-1,9
 582 1438 582 1438 584 1367 c 0,10,11
 586 1293 586 1293 533 1244.5 c 128,-1,12
 480 1196 480 1196 403 1196 c 0,13,14
 328 1196 328 1196 275.5 1239.5 c 128,-1,15
 223 1283 223 1283 221 1355 c 0,4,5
EndSplineSet
Substitution2: "Single Substitution lookup 74 subtable" glyph1096
Substitution2: "'smcp' Lowercase to Small Capitals in Cyrillic lookup 7 subtable" I.c2sc
Substitution2: "'smcp' Lowercase to Small Capitals in Greek lookup 6 subtable" I.c2sc
Substitution2: "'smcp' Lowercase to Small Capitals lookup 5 subtable" I.c2sc
Substitution2: "'smcp' Lowercase to Small Capitals in Latin lookup 4 subtable" I.c2sc
EndChar

StartChar: j
Encoding: 106 106 78
Width: 546
Flags: W
LayerCount: 2
Back
Fore
SplineSet
528 1082 m 1,0,-1
 339 -34 l 1,1,2
 315 -227 315 -227 193 -334.5 c 128,-1,3
 71 -442 71 -442 -117 -440 c 0,4,5
 -192 -438 -192 -438 -282 -421 c 1,6,-1
 -255 -165 l 1,7,8
 -200 -177 -200 -177 -164 -177 c 0,9,10
 -19 -179 -19 -179 8 -23 c 2,11,-1
 198 1082 l 1,12,-1
 528 1082 l 1,0,-1
223 1355 m 0,13,14
 221 1429 221 1429 275 1477 c 128,-1,15
 329 1525 329 1525 404 1525 c 0,16,17
 480 1527 480 1527 532 1482.5 c 128,-1,18
 584 1438 584 1438 586 1367 c 128,-1,19
 588 1296 588 1296 536.5 1247 c 128,-1,20
 485 1198 485 1198 405 1196 c 0,21,22
 329 1196 329 1196 277 1240.5 c 128,-1,23
 225 1285 225 1285 223 1355 c 0,13,14
EndSplineSet
Substitution2: "Single Substitution lookup 74 subtable" glyph1094
Substitution2: "'smcp' Lowercase to Small Capitals in Cyrillic lookup 7 subtable" J.c2sc
Substitution2: "'smcp' Lowercase to Small Capitals in Greek lookup 6 subtable" J.c2sc
Substitution2: "'smcp' Lowercase to Small Capitals lookup 5 subtable" J.c2sc
Substitution2: "'smcp' Lowercase to Small Capitals in Latin lookup 4 subtable" J.c2sc
EndChar

StartChar: k
Encoding: 107 107 79
Width: 1096
Flags: W
LayerCount: 2
Back
Fore
SplineSet
489 399 m 1,0,-1
 369 295 l 1,1,-1
 318 0 l 1,2,-1
 -11 0 l 1,3,-1
 256 1537 l 1,4,-1
 585 1537 l 1,5,-1
 433 717 l 1,6,-1
 473 765 l 1,7,-1
 772 1082 l 1,8,-1
 1189 1082 l 1,9,-1
 729 622 l 1,10,-1
 1008 0 l 1,11,-1
 647 0 l 1,12,-1
 489 399 l 1,0,-1
EndSplineSet
Substitution2: "'ss05' Style Set 5 in Cyrillic lookup 38 subtable" k.ss05
Substitution2: "'ss05' Style Set 5 in Greek lookup 37 subtable" k.ss05
Substitution2: "'ss05' Style Set 5 lookup 36 subtable" k.ss05
Substitution2: "'ss05' Style Set 5 in Latin lookup 35 subtable" k.ss05
Substitution2: "'ss04' Style Set 4 in Cyrillic lookup 34 subtable" k.ss04
Substitution2: "'ss04' Style Set 4 in Greek lookup 33 subtable" k.ss04
Substitution2: "'ss04' Style Set 4 lookup 32 subtable" k.ss04
Substitution2: "'ss04' Style Set 4 in Latin lookup 31 subtable" k.ss04
Substitution2: "'smcp' Lowercase to Small Capitals in Cyrillic lookup 7 subtable" K.c2sc
Substitution2: "'smcp' Lowercase to Small Capitals in Greek lookup 6 subtable" K.c2sc
Substitution2: "'smcp' Lowercase to Small Capitals lookup 5 subtable" K.c2sc
Substitution2: "'smcp' Lowercase to Small Capitals in Latin lookup 4 subtable" K.c2sc
EndChar

StartChar: l
Encoding: 108 108 80
Width: 556
Flags: W
LayerCount: 2
Back
Fore
SplineSet
334 0 m 1,0,-1
 4 0 l 1,1,-1
 270 1536 l 1,2,-1
 600 1536 l 1,3,-1
 334 0 l 1,0,-1
EndSplineSet
Substitution2: "'smcp' Lowercase to Small Capitals in Cyrillic lookup 7 subtable" L.c2sc
Substitution2: "'smcp' Lowercase to Small Capitals in Greek lookup 6 subtable" L.c2sc
Substitution2: "'smcp' Lowercase to Small Capitals lookup 5 subtable" L.c2sc
Substitution2: "'smcp' Lowercase to Small Capitals in Latin lookup 4 subtable" L.c2sc
EndChar

StartChar: m
Encoding: 109 109 81
Width: 1721
Flags: W
LayerCount: 2
Back
Fore
SplineSet
483 1083 m 1,0,-1
 461 953 l 1,1,2
 591 1106 591 1106 777 1102 c 0,3,4
 875 1100 875 1100 938 1056 c 128,-1,5
 1001 1012 1001 1012 1022 939 c 1,6,7
 1165 1106 1165 1106 1351 1102 c 0,8,9
 1501 1099 1501 1099 1573.5 989.5 c 128,-1,10
 1646 880 1646 880 1626 681 c 1,11,-1
 1513 0 l 1,12,-1
 1183 0 l 1,13,-1
 1298 682 l 1,14,-1
 1302 741 l 1,15,16
 1302 840 1302 840 1209 843 c 0,17,18
 1122 843 1122 843 1047 754 c 1,19,-1
 916 0 l 1,20,-1
 586 0 l 1,21,-1
 700 680 l 1,22,-1
 704 740 l 1,23,24
 704 843 704 843 611 843 c 0,25,26
 526 843 526 843 451 754 c 1,27,-1
 318 0 l 1,28,-1
 -11 0 l 1,29,-1
 177 1082 l 1,30,-1
 483 1083 l 1,0,-1
EndSplineSet
Substitution2: "'smcp' Lowercase to Small Capitals in Cyrillic lookup 7 subtable" M.c2sc
Substitution2: "'smcp' Lowercase to Small Capitals in Greek lookup 6 subtable" M.c2sc
Substitution2: "'smcp' Lowercase to Small Capitals lookup 5 subtable" M.c2sc
Substitution2: "'smcp' Lowercase to Small Capitals in Latin lookup 4 subtable" M.c2sc
EndChar

StartChar: n
Encoding: 110 110 82
Width: 1130
Flags: W
LayerCount: 2
Back
Fore
SplineSet
475 1083 m 1,0,-1
 452 953 l 1,1,2
 582 1107 582 1107 765 1103 c 0,3,4
 915 1100 915 1100 988.5 991.5 c 128,-1,5
 1062 883 1062 883 1042 681 c 1,6,-1
 928 0 l 1,7,-1
 598 0 l 1,8,-1
 713 683 l 2,9,10
 717 718 717 718 715 747 c 0,11,12
 708 842 708 842 603 842 c 0,13,14
 516 844 516 844 444 765 c 1,15,-1
 309 0 l 1,16,-1
 -20 0 l 1,17,-1
 168 1082 l 1,18,-1
 475 1083 l 1,0,-1
EndSplineSet
Substitution2: "'smcp' Lowercase to Small Capitals in Cyrillic lookup 7 subtable" N.c2sc
Substitution2: "'smcp' Lowercase to Small Capitals in Greek lookup 6 subtable" N.c2sc
Substitution2: "'smcp' Lowercase to Small Capitals lookup 5 subtable" N.c2sc
Substitution2: "'smcp' Lowercase to Small Capitals in Latin lookup 4 subtable" N.c2sc
EndChar

StartChar: o
Encoding: 111 111 83
Width: 1126
Flags: W
LayerCount: 2
Back
Fore
SplineSet
618 1102 m 0,0,1
 763 1100 763 1100 869 1029.5 c 128,-1,2
 975 959 975 959 1024.5 833 c 128,-1,3
 1074 707 1074 707 1060 553 c 2,4,-1
 1058 531 l 1,5,6
 1030 282 1030 282 873 129 c 128,-1,7
 716 -24 716 -24 485 -20 c 0,8,9
 341 -18 341 -18 236 51.5 c 128,-1,10
 131 121 131 121 80.5 246 c 128,-1,11
 30 371 30 371 44 524 c 0,12,13
 69 790 69 790 226.5 948 c 128,-1,14
 384 1106 384 1106 618 1102 c 0,0,1
373 524 m 1,15,-1
 370 465 l 2,16,17
 356 242 356 242 506 238 c 0,18,19
 700 232 700 232 731 553 c 1,20,-1
 735 644 l 2,21,22
 737 734 737 734 701.5 787.5 c 128,-1,23
 666 841 666 841 597 843 c 0,24,25
 506 846 506 846 447.5 768.5 c 128,-1,26
 389 691 389 691 373 524 c 1,15,-1
EndSplineSet
Substitution2: "'ss06' Style Set 6 in Cyrillic lookup 42 subtable" o.ss06
Substitution2: "'ss06' Style Set 6 in Greek lookup 41 subtable" o.ss06
Substitution2: "'ss06' Style Set 6 lookup 40 subtable" o.ss06
Substitution2: "'ss06' Style Set 6 in Latin lookup 39 subtable" o.ss06
Substitution2: "'smcp' Lowercase to Small Capitals in Cyrillic lookup 7 subtable" O.c2sc
Substitution2: "'smcp' Lowercase to Small Capitals in Greek lookup 6 subtable" O.c2sc
Substitution2: "'smcp' Lowercase to Small Capitals lookup 5 subtable" O.c2sc
Substitution2: "'smcp' Lowercase to Small Capitals in Latin lookup 4 subtable" O.c2sc
EndChar

StartChar: p
Encoding: 112 112 84
Width: 1128
Flags: W
LayerCount: 2
Back
Fore
SplineSet
1056 540 m 0,0,1
 1035 370 1035 370 967 237.5 c 128,-1,2
 899 105 899 105 798.5 40.5 c 128,-1,3
 698 -24 698 -24 574 -21 c 0,4,5
 432 -17 432 -17 344 91 c 1,6,-1
 246 -416 l 1,7,-1
 -83 -416 l 1,8,-1
 177 1082 l 1,9,-1
 481 1083 l 1,10,-1
 464 980 l 1,11,12
 573 1106 573 1106 721 1102 c 0,13,14
 879 1100 879 1100 967.5 989 c 128,-1,15
 1056 878 1056 878 1062 686 c 0,16,17
 1064 624 1064 624 1056 540 c 0,0,1
736 674 m 0,18,19
 731 839 731 839 624 842 c 0,20,21
 520 848 520 848 451 757 c 1,22,-1
 374 328 l 1,23,24
 405 241 405 241 512 239 c 0,25,26
 687 236 687 236 727 540 c 0,27,28
 736 636 736 636 736 674 c 0,18,19
EndSplineSet
Substitution2: "'ss06' Style Set 6 in Cyrillic lookup 42 subtable" p.ss06
Substitution2: "'ss06' Style Set 6 in Greek lookup 41 subtable" p.ss06
Substitution2: "'ss06' Style Set 6 lookup 40 subtable" p.ss06
Substitution2: "'ss06' Style Set 6 in Latin lookup 39 subtable" p.ss06
Substitution2: "'smcp' Lowercase to Small Capitals in Cyrillic lookup 7 subtable" P.c2sc
Substitution2: "'smcp' Lowercase to Small Capitals in Greek lookup 6 subtable" P.c2sc
Substitution2: "'smcp' Lowercase to Small Capitals lookup 5 subtable" P.c2sc
Substitution2: "'smcp' Lowercase to Small Capitals in Latin lookup 4 subtable" P.c2sc
EndChar

StartChar: q
Encoding: 113 113 85
Width: 1126
Flags: W
LayerCount: 2
Back
Fore
SplineSet
41 546 m 0,0,1
 61 712 61 712 127 844.5 c 128,-1,2
 193 977 193 977 293.5 1041 c 128,-1,3
 394 1105 394 1105 522 1102 c 0,4,5
 684 1098 684 1098 768 964 c 1,6,-1
 819 1083 l 1,7,-1
 1108 1082 l 1,8,-1
 848 -416 l 1,9,-1
 518 -416 l 1,10,-1
 619 92 l 1,11,12
 510 -24 510 -24 372 -20 c 0,13,14
 219 -18 219 -18 130 95 c 128,-1,15
 41 208 41 208 35 402 c 0,16,17
 33 460 33 460 41 546 c 0,0,1
363 442 m 2,18,19
 356 353 356 353 384 297.5 c 128,-1,20
 412 242 412 242 474 240 c 0,21,22
 575 236 575 236 646 327 c 1,23,-1
 723 758 l 1,24,25
 693 840 693 840 590 844 c 0,26,27
 409 847 409 847 371 546 c 1,28,-1
 363 442 l 2,18,19
EndSplineSet
Substitution2: "'ss06' Style Set 6 in Cyrillic lookup 42 subtable" q.ss06
Substitution2: "'ss06' Style Set 6 in Greek lookup 41 subtable" q.ss06
Substitution2: "'ss06' Style Set 6 lookup 40 subtable" q.ss06
Substitution2: "'ss06' Style Set 6 in Latin lookup 39 subtable" q.ss06
Substitution2: "'smcp' Lowercase to Small Capitals in Cyrillic lookup 7 subtable" Q.c2sc
Substitution2: "'smcp' Lowercase to Small Capitals in Greek lookup 6 subtable" Q.c2sc
Substitution2: "'smcp' Lowercase to Small Capitals lookup 5 subtable" Q.c2sc
Substitution2: "'smcp' Lowercase to Small Capitals in Latin lookup 4 subtable" Q.c2sc
EndChar

StartChar: r
Encoding: 114 114 86
Width: 763
Flags: W
LayerCount: 2
Back
Fore
SplineSet
768 777 m 1,0,1
 715 785 715 785 666 787 c 0,2,3
 518 791 518 791 440 685 c 1,4,-1
 318 0 l 1,5,-1
 -11 0 l 1,6,-1
 177 1082 l 1,7,-1
 484 1083 l 1,8,-1
 459 941 l 1,9,10
 565 1105 565 1105 709 1105 c 0,11,12
 750 1105 750 1105 811 1091 c 1,13,-1
 768 777 l 1,0,1
EndSplineSet
Substitution2: "'smcp' Lowercase to Small Capitals in Cyrillic lookup 7 subtable" R.c2sc
Substitution2: "'smcp' Lowercase to Small Capitals in Greek lookup 6 subtable" R.c2sc
Substitution2: "'smcp' Lowercase to Small Capitals lookup 5 subtable" R.c2sc
Substitution2: "'smcp' Lowercase to Small Capitals in Latin lookup 4 subtable" R.c2sc
EndChar

StartChar: s
Encoding: 115 115 87
Width: 1028
Flags: W
LayerCount: 2
Back
Fore
SplineSet
597 310 m 0,0,1
 610 376 610 376 495 409 c 2,2,-1
 424 427 l 2,3,4
 250 473 250 473 169 556 c 128,-1,5
 88 639 88 639 93 753 c 0,6,7
 98 909 98 909 231.5 1006.5 c 128,-1,8
 365 1104 365 1104 557 1102 c 0,9,10
 748 1100 748 1100 866.5 1005 c 128,-1,11
 985 910 985 910 987 749 c 1,12,-1
 659 750 l 1,13,14
 663 878 663 878 546 878 c 0,15,16
 496 878 496 878 453 848.5 c 128,-1,17
 410 819 410 819 402 770 c 0,18,19
 385 689 385 689 545 659 c 1,20,21
 684 626 684 626 760 582.5 c 128,-1,22
 836 539 836 539 876 475 c 128,-1,23
 916 411 916 411 913 321 c 0,24,25
 910 223 910 223 849 146 c 128,-1,26
 788 69 788 69 672.5 23 c 128,-1,27
 557 -23 557 -23 422 -20 c 0,28,29
 305 -19 305 -19 204.5 29 c 128,-1,30
 104 77 104 77 47.5 159.5 c 128,-1,31
 -9 242 -9 242 -11 349 c 1,32,-1
 295 347 l 1,33,34
 297 203 297 203 439 205 c 0,35,36
 500 205 500 205 543 232.5 c 128,-1,37
 586 260 586 260 597 310 c 0,0,1
EndSplineSet
Substitution2: "'smcp' Lowercase to Small Capitals in Cyrillic lookup 7 subtable" S.c2sc
Substitution2: "'smcp' Lowercase to Small Capitals in Greek lookup 6 subtable" S.c2sc
Substitution2: "'smcp' Lowercase to Small Capitals lookup 5 subtable" S.c2sc
Substitution2: "'smcp' Lowercase to Small Capitals in Latin lookup 4 subtable" S.c2sc
EndChar

StartChar: t
Encoding: 116 116 88
Width: 692
Flags: W
LayerCount: 2
Back
Fore
SplineSet
604 1351 m 1,0,-1
 557 1082 l 1,1,-1
 730 1082 l 1,2,-1
 689 848 l 1,3,-1
 516 848 l 1,4,-1
 432 351 l 2,5,6
 425 300 425 300 438.5 274 c 128,-1,7
 452 248 452 248 506 246 c 0,8,9
 527 245 527 245 592 251 c 1,10,-1
 568 7 l 1,11,12
 485 -20 485 -20 391 -18 c 0,13,14
 238 -16 238 -16 162 72 c 128,-1,15
 86 160 86 160 100 311 c 1,16,-1
 188 848 l 1,17,-1
 54 848 l 1,18,-1
 94 1082 l 1,19,-1
 228 1082 l 1,20,-1
 275 1351 l 1,21,-1
 604 1351 l 1,0,-1
EndSplineSet
Substitution2: "'smcp' Lowercase to Small Capitals in Cyrillic lookup 7 subtable" T.c2sc
Substitution2: "'smcp' Lowercase to Small Capitals in Greek lookup 6 subtable" T.c2sc
Substitution2: "'smcp' Lowercase to Small Capitals lookup 5 subtable" T.c2sc
Substitution2: "'smcp' Lowercase to Small Capitals in Latin lookup 4 subtable" T.c2sc
EndChar

StartChar: u
Encoding: 117 117 89
Width: 1130
Flags: W
LayerCount: 2
Back
Fore
SplineSet
656 118 m 1,0,1
 535 -25 535 -25 364 -21 c 0,2,3
 205 -19 205 -19 124.5 90 c 128,-1,4
 44 199 44 199 62 382 c 1,5,-1
 179 1082 l 1,6,-1
 508 1082 l 1,7,-1
 389 378 l 2,8,9
 386 349 386 349 389 325 c 0,10,11
 396 243 396 243 486 240 c 0,12,13
 590 236 590 236 663 322 c 1,14,-1
 797 1082 l 1,15,-1
 1128 1082 l 1,16,-1
 940 0 l 1,17,-1
 634 0 l 1,18,-1
 656 118 l 1,0,1
EndSplineSet
Substitution2: "'smcp' Lowercase to Small Capitals in Cyrillic lookup 7 subtable" U.c2sc
Substitution2: "'smcp' Lowercase to Small Capitals in Greek lookup 6 subtable" U.c2sc
Substitution2: "'smcp' Lowercase to Small Capitals lookup 5 subtable" U.c2sc
Substitution2: "'smcp' Lowercase to Small Capitals in Latin lookup 4 subtable" U.c2sc
EndChar

StartChar: v
Encoding: 118 118 90
Width: 1036
Flags: W
LayerCount: 2
Back
Fore
SplineSet
476 405 m 1,0,-1
 747 1082 l 1,1,-1
 1102 1082 l 1,2,-1
 590 0 l 1,3,-1
 255 0 l 1,4,-1
 82 1082 l 1,5,-1
 420 1082 l 1,6,-1
 476 405 l 1,0,-1
EndSplineSet
Substitution2: "'smcp' Lowercase to Small Capitals in Cyrillic lookup 7 subtable" V.c2sc
Substitution2: "'smcp' Lowercase to Small Capitals in Greek lookup 6 subtable" V.c2sc
Substitution2: "'smcp' Lowercase to Small Capitals lookup 5 subtable" V.c2sc
Substitution2: "'smcp' Lowercase to Small Capitals in Latin lookup 4 subtable" V.c2sc
EndChar

StartChar: w
Encoding: 119 119 91
Width: 1452
Flags: W
LayerCount: 2
Back
Fore
SplineSet
967 445 m 1,0,-1
 1184 1082 l 1,1,-1
 1506 1082 l 1,2,-1
 1071 0 l 1,3,-1
 794 0 l 1,4,-1
 732 638 l 1,5,-1
 447 0 l 1,6,-1
 168 0 l 1,7,-1
 108 1082 l 1,8,-1
 417 1082 l 1,9,-1
 407 438 l 1,10,-1
 684 1082 l 1,11,-1
 913 1082 l 1,12,-1
 967 445 l 1,0,-1
EndSplineSet
Substitution2: "'smcp' Lowercase to Small Capitals in Cyrillic lookup 7 subtable" W.c2sc
Substitution2: "'smcp' Lowercase to Small Capitals in Greek lookup 6 subtable" W.c2sc
Substitution2: "'smcp' Lowercase to Small Capitals lookup 5 subtable" W.c2sc
Substitution2: "'smcp' Lowercase to Small Capitals in Latin lookup 4 subtable" W.c2sc
EndChar

StartChar: x
Encoding: 120 120 92
Width: 1032
Flags: W
LayerCount: 2
Back
Fore
SplineSet
538 786 m 1,0,-1
 737 1082 l 1,1,-1
 1093 1082 l 1,2,-1
 724 540 l 1,3,-1
 922 0 l 1,4,-1
 594 0 l 1,5,-1
 480 318 l 1,6,-1
 269 0 l 1,7,-1
 -91 0 l 1,8,-1
 297 570 l 1,9,-1
 108 1082 l 1,10,-1
 439 1082 l 1,11,-1
 538 786 l 1,0,-1
EndSplineSet
Substitution2: "'smcp' Lowercase to Small Capitals in Cyrillic lookup 7 subtable" X.c2sc
Substitution2: "'smcp' Lowercase to Small Capitals in Greek lookup 6 subtable" X.c2sc
Substitution2: "'smcp' Lowercase to Small Capitals lookup 5 subtable" X.c2sc
Substitution2: "'smcp' Lowercase to Small Capitals in Latin lookup 4 subtable" X.c2sc
EndChar

StartChar: y
Encoding: 121 121 93
Width: 1039
Flags: W
LayerCount: 2
Back
Fore
SplineSet
484 476 m 1,0,-1
 764 1082 l 1,1,-1
 1127 1082 l 1,2,-1
 493 -162 l 2,3,4
 422 -309 422 -309 329.5 -374.5 c 128,-1,5
 237 -440 237 -440 109 -440 c 0,6,7
 52 -440 52 -440 -36 -418 c 1,8,-1
 -11 -177 l 1,9,-1
 27 -177 l 2,10,11
 88 -177 88 -177 134 -157.5 c 128,-1,12
 180 -138 180 -138 211 -82 c 2,13,-1
 258 8 l 1,14,-1
 85 1082 l 1,15,-1
 425 1082 l 1,16,-1
 484 476 l 1,0,-1
EndSplineSet
Substitution2: "'smcp' Lowercase to Small Capitals in Cyrillic lookup 7 subtable" Y.c2sc
Substitution2: "'smcp' Lowercase to Small Capitals in Greek lookup 6 subtable" Y.c2sc
Substitution2: "'smcp' Lowercase to Small Capitals lookup 5 subtable" Y.c2sc
Substitution2: "'smcp' Lowercase to Small Capitals in Latin lookup 4 subtable" Y.c2sc
EndChar

StartChar: z
Encoding: 122 122 94
Width: 1032
Flags: W
LayerCount: 2
Back
Fore
SplineSet
424 262 m 1,0,-1
 898 260 l 1,1,-1
 853 0 l 1,2,-1
 -41 0 l 1,3,-1
 -6 202 l 1,4,-1
 563 820 l 1,5,-1
 122 822 l 1,6,-1
 167 1082 l 1,7,-1
 1030 1082 l 1,8,-1
 996 885 l 1,9,-1
 424 262 l 1,0,-1
EndSplineSet
Substitution2: "'smcp' Lowercase to Small Capitals in Cyrillic lookup 7 subtable" Z.c2sc
Substitution2: "'smcp' Lowercase to Small Capitals in Greek lookup 6 subtable" Z.c2sc
Substitution2: "'smcp' Lowercase to Small Capitals lookup 5 subtable" Z.c2sc
Substitution2: "'smcp' Lowercase to Small Capitals in Latin lookup 4 subtable" Z.c2sc
EndChar

StartChar: braceleft
Encoding: 123 123 95
Width: 655
Flags: W
LayerCount: 2
Back
Fore
SplineSet
418 -360 m 1,0,1
 257 -306 257 -306 179.5 -185 c 128,-1,2
 102 -64 102 -64 120 106 c 1,3,-1
 150 327 l 1,4,-1
 151 383 l 1,5,6
 144 492 144 492 29 503 c 1,7,-1
 52 731 l 1,8,9
 216 738 216 738 248 929 c 1,10,-1
 276 1132 l 2,11,12
 301 1319 301 1319 405 1433 c 128,-1,13
 509 1547 509 1547 689 1600 c 1,14,-1
 737 1420 l 1,15,16
 669 1391 669 1391 625.5 1324 c 128,-1,17
 582 1257 582 1257 562 1132 c 2,18,-1
 531 901 l 1,19,20
 497 710 497 710 302 613 c 1,21,22
 378 559 378 559 408.5 479.5 c 128,-1,23
 439 400 439 400 431 309 c 2,24,-1
 397 24 l 1,25,26
 383 -130 383 -130 485 -184 c 1,27,-1
 418 -360 l 1,0,1
EndSplineSet
EndChar

StartChar: bar
Encoding: 124 124 96
Width: 517
Flags: W
LayerCount: 2
Back
Fore
SplineSet
210 -270 m 1,0,-1
 30 -270 l 1,1,-1
 300 1456 l 1,2,-1
 480 1456 l 1,3,-1
 210 -270 l 1,0,-1
EndSplineSet
EndChar

StartChar: braceright
Encoding: 125 125 97
Width: 655
Flags: W
LayerCount: 2
Back
Fore
SplineSet
-85 -182 m 1,0,1
 -17 -153 -17 -153 26.5 -86 c 128,-1,2
 70 -19 70 -19 90 106 c 2,3,-1
 121 337 l 1,4,5
 155 527 155 527 351 625 c 1,6,7
 274 678 274 678 243.5 758 c 128,-1,8
 213 838 213 838 221 929 c 1,9,10
 253 1169 253 1169 257 1214 c 0,11,12
 268 1369 268 1369 168 1422 c 1,13,-1
 241 1596 l 1,14,15
 401 1542 401 1542 475.5 1420 c 128,-1,16
 550 1298 550 1298 532 1132 c 1,17,-1
 502 911 l 1,18,-1
 501 855 l 1,19,20
 507 745 507 745 623 734 c 1,21,-1
 600 506 l 1,22,23
 436 499 436 499 404 309 c 1,24,-1
 371 71 l 1,25,26
 313 -262 313 -262 -37 -363 c 1,27,-1
 -85 -182 l 1,0,1
EndSplineSet
EndChar

StartChar: asciitilde
Encoding: 126 126 98
Width: 1266
Flags: W
LayerCount: 2
Back
Fore
SplineSet
1184 800 m 1,0,1
 1176 676 1176 676 1129 574 c 128,-1,2
 1082 472 1082 472 1004.5 418 c 128,-1,3
 927 364 927 364 822 366 c 0,4,5
 747 368 747 368 688.5 400.5 c 128,-1,6
 630 433 630 433 566 501.5 c 128,-1,7
 502 570 502 570 455 576 c 2,8,-1
 439 577 l 2,9,10
 383 577 383 577 346.5 529 c 128,-1,11
 310 481 310 481 299 405 c 1,12,-1
 69 408 l 1,13,14
 81 604 81 604 178.5 722 c 128,-1,15
 276 840 276 840 429 837 c 0,16,17
 561 834 561 834 670 721 c 2,18,-1
 711 678 l 2,19,20
 762 627 762 627 812 627 c 0,21,22
 921 627 921 627 952 800 c 1,23,-1
 1184 800 l 1,0,1
EndSplineSet
EndChar

StartChar: exclamdown
Encoding: 161 161 100
Width: 607
Flags: W
LayerCount: 2
Back
Fore
SplineSet
168 623 m 1,0,-1
 435 623 l 1,1,-1
 305 -372 l 1,2,-1
 -46 -372 l 1,3,-1
 168 623 l 1,0,-1
540 939 m 0,4,5
 542 864 542 864 489 813.5 c 128,-1,6
 436 763 436 763 358 763 c 0,7,8
 281 763 281 763 230 810 c 128,-1,9
 179 857 179 857 177 927 c 0,10,11
 175 1002 175 1002 228 1052.5 c 128,-1,12
 281 1103 281 1103 359 1103 c 0,13,14
 436 1103 436 1103 487 1056 c 128,-1,15
 538 1009 538 1009 540 939 c 0,4,5
EndSplineSet
EndChar

StartChar: cent
Encoding: 162 162 101
Width: 1183
Flags: W
LayerCount: 2
Back
Fore
SplineSet
527 239 m 0,0,1
 598 237 598 237 638.5 278.5 c 128,-1,2
 679 320 679 320 690 386 c 1,3,-1
 998 387 l 1,4,5
 989 228 989 228 883.5 122.5 c 128,-1,6
 778 17 778 17 604 -11 c 1,7,-1
 555 -245 l 1,8,-1
 359 -245 l 1,9,-1
 408 -10 l 1,10,11
 239 25 239 25 156.5 169.5 c 128,-1,12
 74 314 74 314 95 526 c 1,13,-1
 98 549 l 2,14,15
 127 781 127 781 254 923.5 c 128,-1,16
 381 1066 381 1066 584 1094 c 1,17,-1
 631 1318 l 1,18,-1
 827 1318 l 1,19,-1
 779 1090 l 1,20,21
 919 1055 919 1055 992 945 c 128,-1,22
 1065 835 1065 835 1060 667 c 1,23,-1
 752 668 l 1,24,25
 757 837 757 837 632 844 c 0,26,27
 459 850 459 850 426 550 c 1,28,-1
 415 411 l 1,29,30
 410 242 410 242 527 239 c 0,0,1
EndSplineSet
EndChar

StartChar: sterling
Encoding: 163 163 102
Width: 1202
Flags: W
LayerCount: 2
Back
Fore
SplineSet
597 561 m 1,0,-1
 585 450 l 2,1,2
 570 344 570 344 488 266 c 1,3,-1
 1084 270 l 1,4,-1
 1037 0 l 1,5,-1
 -2 0 l 1,6,-1
 46 269 l 1,7,-1
 132 267 l 1,8,9
 205 294 205 294 226 392 c 1,10,-1
 251 561 l 1,11,-1
 92 561 l 1,12,-1
 138 822 l 1,13,-1
 288 822 l 1,14,-1
 315 1038 l 2,15,16
 340 1243 340 1243 475.5 1361 c 128,-1,17
 611 1479 611 1479 813 1475 c 0,18,19
 1011 1471 1011 1471 1122 1358 c 128,-1,20
 1233 1245 1233 1245 1229 1047 c 1,21,-1
 906 1048 l 1,22,23
 909 1134 909 1134 881.5 1170 c 128,-1,24
 854 1206 854 1206 799 1206 c 0,25,26
 743 1208 743 1208 705 1162 c 128,-1,27
 667 1116 667 1116 656 1039 c 2,28,-1
 631 822 l 1,29,-1
 930 822 l 1,30,-1
 884 561 l 1,31,-1
 597 561 l 1,0,-1
EndSplineSet
Substitution2: "'c2sc' Capitals to Small Capitals in Cyrillic lookup 3 subtable" sterling.c2sc
Substitution2: "'c2sc' Capitals to Small Capitals in Greek lookup 2 subtable" sterling.c2sc
Substitution2: "'c2sc' Capitals to Small Capitals lookup 1 subtable" sterling.c2sc
Substitution2: "'c2sc' Capitals to Small Capitals in Latin lookup 0 subtable" sterling.c2sc
Position2: "'cpsp' Capital Spacing in Cyrillic lookup 3 subtable" dx=36 dy=0 dh=72 dv=0
Position2: "'cpsp' Capital Spacing in Greek lookup 2 subtable" dx=36 dy=0 dh=72 dv=0
Position2: "'cpsp' Capital Spacing lookup 1 subtable" dx=36 dy=0 dh=72 dv=0
Position2: "'cpsp' Capital Spacing in Latin lookup 0 subtable" dx=36 dy=0 dh=72 dv=0
EndChar

StartChar: currency
Encoding: 164 164 103
Width: 1365
Flags: W
LayerCount: 2
Back
Fore
SplineSet
961 105 m 1,0,1
 777 -24 777 -24 592 -20 c 0,2,3
 392 -16 392 -16 261 106 c 1,4,-1
 108 -26 l 1,5,-1
 -15 132 l 1,6,-1
 139 257 l 1,7,8
 82 442 82 442 102 602 c 0,9,10
 128 817 128 817 274 977 c 1,11,-1
 158 1134 l 1,12,-1
 307 1264 l 1,13,-1
 415 1121 l 1,14,15
 592 1237 592 1237 769 1233 c 0,16,17
 956 1231 956 1231 1090 1117 c 1,18,-1
 1261 1265 l 1,19,-1
 1384 1106 l 1,20,-1
 1215 967 l 1,21,22
 1276 776 1276 776 1257 615 c 0,23,24
 1232 412 1232 412 1099 255 c 1,25,-1
 1211 104 l 1,26,-1
 1061 -27 l 1,27,-1
 961 105 l 1,0,1
284 599 m 0,28,29
 268 488 268 488 302.5 389 c 128,-1,30
 337 290 337 290 413 232.5 c 128,-1,31
 489 175 489 175 594 171 c 0,32,33
 709 167 709 167 813.5 226.5 c 128,-1,34
 918 286 918 286 989 391.5 c 128,-1,35
 1060 497 1060 497 1076 617 c 0,36,37
 1091 727 1091 727 1058 824.5 c 128,-1,38
 1025 922 1025 922 948 980.5 c 128,-1,39
 871 1039 871 1039 767 1043 c 0,40,41
 652 1047 652 1047 547 988 c 128,-1,42
 442 929 442 929 371 823 c 128,-1,43
 300 717 300 717 284 599 c 0,28,29
EndSplineSet
EndChar

StartChar: yen
Encoding: 165 165 104
Width: 1231
Flags: W
LayerCount: 2
Back
Fore
SplineSet
656 882 m 1,0,-1
 984 1456 l 1,1,-1
 1368 1456 l 1,2,-1
 890 744 l 1,3,-1
 1085 742 l 1,4,-1
 1049 552 l 1,5,-1
 772 552 l 1,6,-1
 754 452 l 1,7,-1
 1033 452 l 1,8,-1
 1000 263 l 1,9,-1
 722 263 l 1,10,-1
 676 0 l 1,11,-1
 335 0 l 1,12,-1
 381 263 l 1,13,-1
 71 263 l 1,14,-1
 105 452 l 1,15,-1
 414 452 l 1,16,-1
 432 552 l 1,17,-1
 122 552 l 1,18,-1
 155 742 l 1,19,-1
 399 742 l 1,20,-1
 168 1455 l 1,21,-1
 527 1456 l 1,22,-1
 656 882 l 1,0,-1
EndSplineSet
Substitution2: "'c2sc' Capitals to Small Capitals in Cyrillic lookup 3 subtable" yen.c2sc
Substitution2: "'c2sc' Capitals to Small Capitals in Greek lookup 2 subtable" yen.c2sc
Substitution2: "'c2sc' Capitals to Small Capitals lookup 1 subtable" yen.c2sc
Substitution2: "'c2sc' Capitals to Small Capitals in Latin lookup 0 subtable" yen.c2sc
Position2: "'cpsp' Capital Spacing in Cyrillic lookup 3 subtable" dx=36 dy=0 dh=72 dv=0
Position2: "'cpsp' Capital Spacing in Greek lookup 2 subtable" dx=36 dy=0 dh=72 dv=0
Position2: "'cpsp' Capital Spacing lookup 1 subtable" dx=36 dy=0 dh=72 dv=0
Position2: "'cpsp' Capital Spacing in Latin lookup 0 subtable" dx=36 dy=0 dh=72 dv=0
EndChar

StartChar: brokenbar
Encoding: 166 166 105
Width: 518
Flags: W
LayerCount: 2
Back
Fore
SplineSet
-36 -270 m 1,0,-1
 102 525 l 1,1,-1
 387 525 l 1,2,-1
 249 -270 l 1,3,-1
 -36 -270 l 1,0,-1
417 698 m 1,4,-1
 131 698 l 1,5,-1
 263 1456 l 1,6,-1
 549 1456 l 1,7,-1
 417 698 l 1,4,-1
EndSplineSet
EndChar

StartChar: section
Encoding: 167 167 106
Width: 1272
Flags: W
LayerCount: 2
Back
Fore
SplineSet
1144 508 m 0,0,1
 1137 408 1137 408 1084 341.5 c 128,-1,2
 1031 275 1031 275 946 227 c 1,3,4
 1044 114 1044 114 1033 -53 c 0,5,6
 1018 -263 1018 -263 822 -364 c 0,7,8
 673 -440 673 -440 471 -437 c 0,9,10
 234 -435 234 -435 105 -326.5 c 128,-1,11
 -24 -218 -24 -218 -21 -24 c 1,12,-1
 306 -25 l 1,13,14
 304 -99 304 -99 347 -137 c 128,-1,15
 390 -175 390 -175 487 -175 c 0,16,17
 677 -175 677 -175 703 -55 c 0,18,19
 724 39 724 39 556 90.5 c 128,-1,20
 388 142 388 142 309 180.5 c 128,-1,21
 230 219 230 219 180 265 c 0,22,23
 71 365 71 365 81 520 c 0,24,25
 88 620 88 620 142 688 c 128,-1,26
 196 756 196 756 280 803 c 1,27,28
 181 916 181 916 191 1082 c 0,29,30
 199 1203 199 1203 272 1292.5 c 128,-1,31
 345 1382 345 1382 475 1430 c 128,-1,32
 605 1478 605 1478 756 1476 c 0,33,34
 904 1473 904 1473 1010.5 1423 c 128,-1,35
 1117 1373 1117 1373 1172.5 1278 c 128,-1,36
 1228 1183 1228 1183 1226 1050 c 1,37,-1
 900 1050 l 1,38,39
 902 1128 902 1128 861 1170 c 128,-1,40
 820 1212 820 1212 740 1214 c 0,41,42
 667 1216 667 1216 611 1191 c 0,43,44
 536 1157 536 1157 521 1085 c 0,45,46
 500 985 500 985 661 938 c 128,-1,47
 822 891 822 891 895 859 c 0,48,49
 1159 745 1159 745 1144 508 c 0,0,1
606 652 m 1,50,-1
 496 689 l 1,51,52
 433 638 433 638 418 560 c 0,53,54
 396 450 396 450 547 399 c 2,55,-1
 726 341 l 1,56,57
 797 399 797 399 811 470 c 0,58,59
 833 574 833 574 669 630 c 2,60,-1
 606 652 l 1,50,-1
EndSplineSet
EndChar

StartChar: dieresis
Encoding: 168 168 107
Width: 993
Flags: W
LayerCount: 2
Back
Fore
SplineSet
210 1361 m 0,0,1
 208 1416 208 1416 250.5 1456.5 c 128,-1,2
 293 1497 293 1497 354 1499 c 0,3,4
 416 1499 416 1499 458.5 1460.5 c 128,-1,5
 501 1422 501 1422 503 1369 c 0,6,7
 505 1312 505 1312 462.5 1272.5 c 128,-1,8
 420 1233 420 1233 361 1231 c 0,9,10
 299 1231 299 1231 255.5 1269 c 128,-1,11
 212 1307 212 1307 210 1361 c 0,0,1
714 1361 m 0,12,13
 712 1419 712 1419 755.5 1458 c 128,-1,14
 799 1497 799 1497 858 1499 c 0,15,16
 918 1499 918 1499 961.5 1461 c 128,-1,17
 1005 1423 1005 1423 1007 1369 c 0,18,19
 1009 1312 1009 1312 966.5 1272.5 c 128,-1,20
 924 1233 924 1233 864 1231 c 0,21,22
 803 1231 803 1231 759.5 1269 c 128,-1,23
 716 1307 716 1307 714 1361 c 0,12,13
EndSplineSet
EndChar

StartChar: copyright
Encoding: 169 169 108
Width: 1570
Flags: W
LayerCount: 2
Back
Fore
SplineSet
1088 597 m 1,0,1
 1078 447 1078 447 987 362.5 c 128,-1,2
 896 278 896 278 743 282 c 0,3,4
 595 286 595 286 512.5 395.5 c 128,-1,5
 430 505 430 505 443 669 c 2,6,-1
 454 779 l 2,7,8
 473 963 473 963 576.5 1070.5 c 128,-1,9
 680 1178 680 1178 835 1176 c 0,10,11
 980 1172 980 1172 1060 1089 c 128,-1,12
 1140 1006 1140 1006 1138 859 c 1,13,-1
 986 861 l 1,14,15
 999 1038 999 1038 840 1042 c 0,16,17
 747 1044 747 1044 684.5 972.5 c 128,-1,18
 622 901 622 901 607.5 776.5 c 128,-1,19
 593 652 593 652 592.5 631.5 c 128,-1,20
 592 611 592 611 594 584 c 0,21,22
 597 511 597 511 634 465.5 c 128,-1,23
 671 420 671 420 736 417 c 0,24,25
 905 410 905 410 936 596 c 1,26,-1
 1088 597 l 1,0,1
230 572 m 0,27,28
 249 365 249 365 377 236 c 128,-1,29
 505 107 505 107 692 105 c 0,30,31
 851 101 851 101 996 182 c 128,-1,32
 1141 263 1141 263 1243 411.5 c 128,-1,33
 1345 560 1345 560 1370 736 c 0,34,35
 1392 895 1392 895 1340.5 1037.5 c 128,-1,36
 1289 1180 1289 1180 1177 1263.5 c 128,-1,37
 1065 1347 1065 1347 913 1351 c 0,38,39
 730 1355 730 1355 565 1247.5 c 128,-1,40
 400 1140 400 1140 306 951 c 128,-1,41
 212 762 212 762 230 572 c 0,27,28
113 722 m 0,42,43
 133 919 133 919 245.5 1097.5 c 128,-1,44
 358 1276 358 1276 532 1378 c 128,-1,45
 706 1480 706 1480 901 1476 c 0,46,47
 1084 1472 1084 1472 1226 1373.5 c 128,-1,48
 1368 1275 1368 1275 1440.5 1101.5 c 128,-1,49
 1513 928 1513 928 1492 735 c 0,50,51
 1471 546 1471 546 1371.5 379 c 128,-1,52
 1272 212 1272 212 1117 107 c 0,53,54
 923 -24 923 -24 704 -20 c 0,55,56
 519 -16 519 -16 377.5 83.5 c 128,-1,57
 236 183 236 183 164 357 c 128,-1,58
 92 531 92 531 113 722 c 0,42,43
EndSplineSet
EndChar

StartChar: ordfeminine
Encoding: 170 170 109
Width: 887
Flags: W
LayerCount: 2
Back
Fore
SplineSet
616 702 m 1,0,-1
 613 774 l 1,1,2
 524 691 524 691 412 691 c 0,3,4
 308 691 308 691 245.5 751.5 c 128,-1,5
 183 812 183 812 185 911 c 0,6,7
 185 1026 185 1026 277.5 1088.5 c 128,-1,8
 370 1151 370 1151 539 1151 c 2,9,-1
 645 1149 l 1,10,-1
 658 1204 l 2,11,12
 662 1228 662 1228 661 1250 c 0,13,14
 658 1325 658 1325 580 1328 c 0,15,16
 460 1332 460 1332 433 1229 c 1,17,-1
 260 1242 l 1,18,19
 267 1352 267 1352 354.5 1415.5 c 128,-1,20
 442 1479 442 1479 574 1477 c 0,21,22
 695 1475 695 1475 767 1400 c 128,-1,23
 839 1325 839 1325 829 1200 c 1,24,-1
 776 853 l 1,25,-1
 772 794 l 2,26,27
 771 750 771 750 780 702 c 1,28,-1
 616 702 l 1,0,-1
445 833 m 0,29,30
 514 833 514 833 606 896 c 1,31,-1
 634 1033 l 1,32,-1
 554 1033 l 2,33,34
 470 1030 470 1030 419 998.5 c 128,-1,35
 368 967 368 967 359 915 c 0,36,37
 352 877 352 877 374.5 855 c 128,-1,38
 397 833 397 833 445 833 c 0,29,30
EndSplineSet
EndChar

StartChar: logicalnot
Encoding: 172 172 111
Width: 1100
Flags: W
LayerCount: 2
Back
Fore
SplineSet
893 374 m 1,0,-1
 697 374 l 1,1,-1
 743 634 l 1,2,-1
 126 634 l 1,3,-1
 156 805 l 1,4,-1
 968 805 l 1,5,-1
 893 374 l 1,0,-1
EndSplineSet
EndChar

StartChar: registered
Encoding: 174 174 113
Width: 1570
Flags: W
LayerCount: 2
Back
Fore
SplineSet
113 722 m 0,0,1
 133 919 133 919 245.5 1097.5 c 128,-1,2
 358 1276 358 1276 532 1378 c 128,-1,3
 706 1480 706 1480 901 1476 c 0,4,5
 1084 1472 1084 1472 1226 1373.5 c 128,-1,6
 1368 1275 1368 1275 1440.5 1101.5 c 128,-1,7
 1513 928 1513 928 1492 735 c 0,8,9
 1471 546 1471 546 1371.5 379 c 128,-1,10
 1272 212 1272 212 1117 107 c 0,11,12
 923 -24 923 -24 704 -20 c 0,13,14
 519 -16 519 -16 377.5 83.5 c 128,-1,15
 236 183 236 183 164 357 c 128,-1,16
 92 531 92 531 113 722 c 0,0,1
234 722 m 0,17,18
 212 564 212 564 263 421 c 128,-1,19
 314 278 314 278 427 193.5 c 128,-1,20
 540 109 540 109 692 105 c 0,21,22
 851 101 851 101 1000 185.5 c 128,-1,23
 1149 270 1149 270 1247.5 419 c 128,-1,24
 1346 568 1346 568 1370 736 c 0,25,26
 1392 894 1392 894 1340.5 1037.5 c 128,-1,27
 1289 1181 1289 1181 1177 1264 c 128,-1,28
 1065 1347 1065 1347 913 1351 c 0,29,30
 751 1355 751 1355 601.5 1270 c 128,-1,31
 452 1185 452 1185 354 1035.5 c 128,-1,32
 256 886 256 886 234 722 c 0,17,18
652 653 m 1,33,-1
 599 316 l 1,34,-1
 451 316 l 1,35,-1
 584 1166 l 1,36,-1
 840 1165 l 1,37,38
 979 1160 979 1160 1057 1092 c 128,-1,39
 1135 1024 1135 1024 1130 909 c 0,40,41
 1127 855 1127 855 1097.5 811.5 c 128,-1,42
 1068 768 1068 768 999 727 c 1,43,44
 1064 673 1064 673 1067 574 c 0,45,46
 1068 545 1068 545 1061.5 484.5 c 128,-1,47
 1055 424 1055 424 1057 396 c 2,48,-1
 1061 333 l 1,49,-1
 1060 314 l 1,50,-1
 912 315 l 1,51,52
 906 352 906 352 908 388 c 0,53,54
 909 431 909 431 920 516 c 0,55,56
 927 579 927 579 906 613 c 128,-1,57
 885 647 885 647 819 651 c 2,58,-1
 652 653 l 1,33,-1
673 787 m 1,59,-1
 781 786 l 2,60,61
 869 789 869 789 922 821.5 c 128,-1,62
 975 854 975 854 986 909 c 0,63,64
 997 970 997 970 968.5 999.5 c 128,-1,65
 940 1029 940 1029 852 1032 c 2,66,-1
 711 1033 l 1,67,-1
 673 787 l 1,59,-1
EndSplineSet
EndChar

StartChar: macron
Encoding: 175 175 114
Width: 1043
Flags: W
LayerCount: 2
Back
Fore
SplineSet
976 1285 m 1,0,-1
 262 1285 l 1,1,-1
 290 1458 l 1,2,-1
 1004 1458 l 1,3,-1
 976 1285 l 1,0,-1
EndSplineSet
EndChar

StartChar: degree
Encoding: 176 176 115
Width: 799
Flags: W
LayerCount: 2
Back
Fore
SplineSet
226 1186 m 0,0,1
 228 1305 228 1305 314.5 1392 c 128,-1,2
 401 1479 401 1479 518 1477 c 0,3,4
 623 1475 623 1475 695 1394.5 c 128,-1,5
 767 1314 767 1314 765 1204 c 0,6,7
 763 1088 763 1088 679 1001.5 c 128,-1,8
 595 915 595 915 479 917 c 0,9,10
 370 919 370 919 297 998 c 128,-1,11
 224 1077 224 1077 226 1186 c 0,0,1
377 1188 m 0,12,13
 371 1138 371 1138 398.5 1104.5 c 128,-1,14
 426 1071 426 1071 472 1071 c 0,15,16
 523 1071 523 1071 565 1109.5 c 128,-1,17
 607 1148 607 1148 615 1202 c 0,18,19
 622 1254 622 1254 595.5 1289 c 128,-1,20
 569 1324 569 1324 525 1324 c 0,21,22
 473 1324 473 1324 429.5 1284 c 128,-1,23
 386 1244 386 1244 377 1188 c 0,12,13
EndSplineSet
EndChar

StartChar: plusminus
Encoding: 177 177 116
Width: 1079
Flags: W
LayerCount: 2
Back
Fore
SplineSet
727 974 m 1,0,-1
 1030 974 l 1,1,-1
 987 703 l 1,2,-1
 685 703 l 1,3,-1
 630 355 l 1,4,-1
 343 355 l 1,5,-1
 398 703 l 1,6,-1
 96 703 l 1,7,-1
 139 974 l 1,8,-1
 440 974 l 1,9,-1
 490 1293 l 1,10,-1
 777 1293 l 1,11,-1
 727 974 l 1,0,-1
857 1 m 1,12,-1
 3 1 l 1,13,-1
 45 265 l 1,14,-1
 899 265 l 1,15,-1
 857 1 l 1,12,-1
EndSplineSet
EndChar

StartChar: uni00B2
Encoding: 178 178 117
Width: 755
Flags: W
LayerCount: 2
Back
Fore
SplineSet
688 667 m 1,0,-1
 77 667 l 1,1,-1
 105 826 l 1,2,-1
 405 1065 l 2,3,4
 525 1160 525 1160 539 1226 c 0,5,6
 546 1258 546 1258 530.5 1277.5 c 128,-1,7
 515 1297 515 1297 482 1296 c 0,8,9
 443 1296 443 1296 415.5 1266.5 c 128,-1,10
 388 1237 388 1237 378 1190 c 1,11,-1
 156 1188 l 1,12,13
 162 1312 162 1312 251 1392 c 128,-1,14
 340 1472 340 1472 471 1470 c 0,15,16
 610 1468 610 1468 687.5 1402 c 128,-1,17
 765 1336 765 1336 762 1224 c 0,18,19
 758 1094 758 1094 611 985 c 1,20,-1
 404 844 l 1,21,-1
 720 842 l 1,22,-1
 688 667 l 1,0,-1
EndSplineSet
EndChar

StartChar: uni00B3
Encoding: 179 179 118
Width: 755
Flags: W
LayerCount: 2
Back
Fore
SplineSet
354 1140 m 1,0,-1
 436 1140 l 2,1,2
 487 1142 487 1142 519.5 1166 c 128,-1,3
 552 1190 552 1190 559 1229 c 0,4,5
 564 1258 564 1258 544 1274.5 c 128,-1,6
 524 1291 524 1291 489 1291 c 0,7,8
 422 1295 422 1295 396 1241 c 1,9,-1
 169 1240 l 1,10,11
 176 1347 176 1347 260.5 1408.5 c 128,-1,12
 345 1470 345 1470 477 1468 c 0,13,14
 618 1465 618 1465 699.5 1405.5 c 128,-1,15
 781 1346 781 1346 778 1248 c 0,16,17
 775 1131 775 1131 617 1065 c 1,18,19
 736 1024 736 1024 736 895 c 0,20,21
 734 783 734 783 634.5 717.5 c 128,-1,22
 535 652 535 652 386 655 c 0,23,24
 257 657 257 657 174.5 725.5 c 128,-1,25
 92 794 92 794 90 909 c 1,26,-1
 305 908 l 1,27,28
 312 834 312 834 400 832 c 0,29,30
 446 832 446 832 481 856 c 128,-1,31
 516 880 516 880 523 919 c 0,32,33
 536 992 536 992 439 997 c 1,34,-1
 343 997 l 1,35,-1
 354 1140 l 1,0,-1
EndSplineSet
EndChar

StartChar: acute
Encoding: 180 180 119
Width: 680
Flags: W
LayerCount: 2
Back
Fore
SplineSet
415 1536 m 1,0,-1
 782 1536 l 1,1,-1
 463 1222 l 1,2,-1
 175 1222 l 1,3,-1
 415 1536 l 1,0,-1
EndSplineSet
EndChar

StartChar: mu
Encoding: 181 181 120
Width: 1284
Flags: W
LayerCount: 2
Back
Fore
SplineSet
540 1082 m 1,0,-1
 436 446 l 1,1,-1
 432 373 l 1,2,3
 432 246 432 246 546 243 c 0,4,5
 661 239 661 239 740 333 c 1,6,-1
 873 1082 l 1,7,-1
 1201 1082 l 1,8,-1
 1014 0 l 1,9,-1
 718 0 l 1,10,-1
 724 54 l 1,11,12
 623 -22 623 -22 512 -22 c 0,13,14
 436 -22 436 -22 365 15 c 1,15,-1
 281 -416 l 1,16,-1
 -49 -416 l 1,17,-1
 211 1082 l 1,18,-1
 540 1082 l 1,0,-1
EndSplineSet
EndChar

StartChar: paragraph
Encoding: 182 182 121
Width: 981
Flags: W
LayerCount: 2
Back
Fore
SplineSet
541 0 m 1,0,-1
 632 520 l 1,1,-1
 580 521 l 2,2,3
 369 524 369 524 253.5 651 c 128,-1,4
 138 778 138 778 156 980 c 0,5,6
 175 1194 175 1194 324 1325.5 c 128,-1,7
 473 1457 473 1457 696 1457 c 2,8,-1
 1018 1456 l 1,9,-1
 766 0 l 1,10,-1
 541 0 l 1,0,-1
EndSplineSet
EndChar

StartChar: periodcentered
Encoding: 183 183 122
Width: 647
Flags: W
LayerCount: 2
Back
Fore
SplineSet
150 679 m 0,0,1
 148 755 148 755 202 805 c 128,-1,2
 256 855 256 855 331 855 c 0,3,4
 405 855 405 855 457 809.5 c 128,-1,5
 509 764 509 764 511 691 c 0,6,7
 513 616 513 616 460 565.5 c 128,-1,8
 407 515 407 515 330 515 c 0,9,10
 254 515 254 515 203 561 c 128,-1,11
 152 607 152 607 150 679 c 0,0,1
EndSplineSet
EndChar

StartChar: cedilla
Encoding: 184 184 123
Width: 562
Flags: W
LayerCount: 2
Back
Fore
SplineSet
249 12 m 1,0,-1
 230 -55 l 1,1,2
 292 -69 292 -69 323.5 -112 c 128,-1,3
 355 -155 355 -155 355 -217 c 0,4,5
 355 -338 355 -338 252.5 -403.5 c 128,-1,6
 150 -469 150 -469 -43 -474 c 1,7,-1
 -31 -286 l 1,8,9
 58 -274 58 -274 72 -202 c 0,10,11
 81 -148 81 -148 1 -140 c 2,12,-1
 -41 -136 l 1,13,-1
 2 9 l 1,14,-1
 249 12 l 1,0,-1
EndSplineSet
EndChar

StartChar: uni00B9
Encoding: 185 185 124
Width: 755
Flags: W
LayerCount: 2
Back
Fore
SplineSet
538 667 m 1,0,-1
 320 667 l 1,1,-1
 411 1196 l 1,2,-1
 234 1160 l 1,3,-1
 265 1337 l 1,4,-1
 641 1453 l 1,5,-1
 666 1454 l 1,6,-1
 538 667 l 1,0,-1
EndSplineSet
EndChar

StartChar: ordmasculine
Encoding: 186 186 125
Width: 920
Flags: W
LayerCount: 2
Back
Fore
SplineSet
205 1120 m 1,0,1
 222 1281 222 1281 325.5 1381 c 128,-1,2
 429 1481 429 1481 580 1477 c 0,3,4
 728 1473 728 1473 809 1371.5 c 128,-1,5
 890 1270 890 1270 880 1121 c 2,6,-1
 874 1055 l 2,7,8
 858 884 858 884 753.5 784.5 c 128,-1,9
 649 685 649 685 500 689 c 0,10,11
 356 693 356 693 272 792.5 c 128,-1,12
 188 892 188 892 199 1044 c 2,13,-1
 205 1120 l 1,0,1
371 1041 m 2,14,15
 368 1005 368 1005 371 969 c 0,16,17
 376 908 376 908 409.5 871.5 c 128,-1,18
 443 835 443 835 499 834 c 0,19,20
 575 831 575 831 630 887.5 c 128,-1,21
 685 944 685 944 700 1044 c 1,22,-1
 711 1145 l 1,23,-1
 710 1194 l 1,24,25
 695 1326 695 1326 582 1329 c 0,26,27
 505 1332 505 1332 450 1276.5 c 128,-1,28
 395 1221 395 1221 380 1121 c 2,29,-1
 371 1041 l 2,14,15
EndSplineSet
EndChar

StartChar: questiondown
Encoding: 191 191 130
Width: 1022
Flags: W
LayerCount: 2
Back
Fore
SplineSet
679 632 m 1,0,1
 672 499 672 499 635.5 414.5 c 128,-1,2
 599 330 599 330 525 267 c 2,3,-1
 437 195 l 1,4,5
 299 76 299 76 310 -47 c 0,6,7
 317 -126 317 -126 393 -129 c 0,8,9
 523 -132 523 -132 555 37 c 1,10,-1
 885 39 l 1,11,12
 870 -160 870 -160 733.5 -274.5 c 128,-1,13
 597 -389 597 -389 381 -385 c 0,14,15
 187 -383 187 -383 74.5 -279.5 c 128,-1,16
 -38 -176 -38 -176 -25 2 c 0,17,18
 -16 168 -16 168 169 319 c 2,19,-1
 297 421 l 1,20,21
 386 498 386 498 407 630 c 1,22,-1
 679 632 l 1,0,1
798 940 m 0,23,24
 800 867 800 867 747 815.5 c 128,-1,25
 694 764 694 764 615 764 c 0,26,27
 540 764 540 764 488 810.5 c 128,-1,28
 436 857 436 857 434 928 c 0,29,30
 432 1003 432 1003 486.5 1053.5 c 128,-1,31
 541 1104 541 1104 617 1104 c 0,32,33
 692 1104 692 1104 744 1057.5 c 128,-1,34
 796 1011 796 1011 798 940 c 0,23,24
EndSplineSet
EndChar

StartChar: AE
Encoding: 198 198 137
Width: 1878
Flags: W
LayerCount: 2
Back
Fore
SplineSet
1693 0 m 1,0,-1
 821 0 l 1,1,-1
 865 329 l 1,2,-1
 503 329 l 1,3,-1
 298 0 l 1,4,-1
 -97 0 l 1,5,-1
 868 1456 l 1,6,-1
 1886 1456 l 1,7,-1
 1840 1192 l 1,8,-1
 1307 1192 l 1,9,-1
 1265 876 l 1,10,-1
 1707 876 l 1,11,-1
 1661 612 l 1,12,-1
 1230 612 l 1,13,-1
 1184 264 l 1,14,-1
 1739 264 l 1,15,-1
 1693 0 l 1,0,-1
668 601 m 1,16,-1
 902 599 l 1,17,-1
 963 1067 l 1,18,-1
 668 601 l 1,16,-1
EndSplineSet
EndChar

StartChar: Eth
Encoding: 208 208 147
Width: 1324
Flags: W
LayerCount: 2
Back
Fore
SplineSet
32 0 m 1,0,-1
 142 635 l 1,1,-1
 -24 635 l 1,2,-1
 9 826 l 1,3,-1
 175 826 l 1,4,-1
 284 1456 l 1,5,-1
 712 1455 l 2,6,7
 901 1455 901 1455 1042 1355.5 c 128,-1,8
 1183 1256 1183 1256 1242 1084 c 0,9,10
 1293 933 1293 933 1273 758 c 2,11,-1
 1266 697 l 1,12,13
 1239 501 1239 501 1136 342 c 128,-1,14
 1033 183 1033 183 871 92.5 c 128,-1,15
 709 2 709 2 521 0 c 2,16,-1
 32 0 l 1,0,-1
686 635 m 1,17,-1
 484 635 l 1,18,-1
 421 270 l 1,19,-1
 521 269 l 2,20,21
 701 269 701 269 808.5 411.5 c 128,-1,22
 916 554 916 554 932 854 c 0,23,24
 939 1014 939 1014 882 1097 c 128,-1,25
 825 1180 825 1180 711 1184 c 2,26,-1
 580 1185 l 1,27,-1
 517 826 l 1,28,-1
 720 826 l 1,29,-1
 686 635 l 1,17,-1
EndSplineSet
Substitution2: "'c2sc' Capitals to Small Capitals in Cyrillic lookup 3 subtable" Eth.c2sc
Substitution2: "'c2sc' Capitals to Small Capitals in Greek lookup 2 subtable" Eth.c2sc
Substitution2: "'c2sc' Capitals to Small Capitals lookup 1 subtable" Eth.c2sc
Substitution2: "'c2sc' Capitals to Small Capitals in Latin lookup 0 subtable" Eth.c2sc
Position2: "'cpsp' Capital Spacing in Cyrillic lookup 3 subtable" dx=36 dy=0 dh=72 dv=0
Position2: "'cpsp' Capital Spacing in Greek lookup 2 subtable" dx=36 dy=0 dh=72 dv=0
Position2: "'cpsp' Capital Spacing lookup 1 subtable" dx=36 dy=0 dh=72 dv=0
Position2: "'cpsp' Capital Spacing in Latin lookup 0 subtable" dx=36 dy=0 dh=72 dv=0
EndChar

StartChar: multiply
Encoding: 215 215 154
Width: 1061
Flags: W
LayerCount: 2
Back
Fore
SplineSet
15 394 m 1,0,-1
 358 700 l 1,1,-1
 121 1005 l 1,2,-1
 326 1176 l 1,3,-1
 558 877 l 1,4,-1
 894 1175 l 1,5,-1
 1062 979 l 1,6,-1
 716 673 l 1,7,-1
 955 368 l 1,8,-1
 750 197 l 1,9,-1
 518 495 l 1,10,-1
 182 198 l 1,11,-1
 15 394 l 1,0,-1
EndSplineSet
EndChar

StartChar: Oslash
Encoding: 216 216 155
Width: 1377
Flags: W
LayerCount: 2
Back
Fore
SplineSet
610 -21 m 0,0,1
 458 -19 458 -19 334 46 c 1,2,-1
 225 -95 l 1,3,-1
 4 -94 l 1,4,-1
 197 153 l 1,5,6
 57 387 57 387 96 698 c 2,7,-1
 101 736 l 2,8,9
 147 1073 147 1073 345 1277 c 128,-1,10
 543 1481 543 1481 828 1477 c 0,11,12
 977 1475 977 1475 1099 1411 c 1,13,-1
 1183 1518 l 1,14,-1
 1405 1517 l 1,15,-1
 1237 1304 l 1,16,17
 1376 1070 1376 1070 1338 762 c 2,18,-1
 1330 696 l 1,19,20
 1299 482 1299 482 1196 314.5 c 128,-1,21
 1093 147 1093 147 942 61.5 c 128,-1,22
 791 -24 791 -24 610 -21 c 0,0,1
1015 991 m 1,23,-1
 503 293 l 1,24,25
 548 253 548 253 628 251 c 0,26,27
 767 249 767 249 856 359.5 c 128,-1,28
 945 470 945 470 980 678.5 c 128,-1,29
 1015 887 1015 887 1015 991 c 1,23,-1
441 698 m 2,30,31
 422 565 422 565 419 468 c 1,32,-1
 929 1164 l 1,33,34
 883 1199 883 1199 810 1204 c 0,35,36
 666 1209 666 1209 574 1092 c 128,-1,37
 482 975 482 975 451 759 c 1,38,-1
 441 698 l 2,30,31
EndSplineSet
EndChar

StartChar: Thorn
Encoding: 222 222 161
Width: 1238
Flags: W
LayerCount: 2
Back
Fore
SplineSet
591 1456 m 1,0,-1
 546 1198 l 1,1,-1
 697 1197 l 2,2,3
 945 1196 945 1196 1081.5 1072.5 c 128,-1,4
 1218 949 1218 949 1202 746 c 0,5,6
 1191 602 1191 602 1111.5 496.5 c 128,-1,7
 1032 391 1032 391 896.5 334 c 128,-1,8
 761 277 761 277 596 277 c 2,9,-1
 387 278 l 1,10,-1
 338 0 l 1,11,-1
 8 0 l 1,12,-1
 260 1456 l 1,13,-1
 591 1456 l 1,0,-1
501 938 m 1,14,-1
 432 538 l 1,15,-1
 606 537 l 2,16,17
 714 539 714 539 785 594.5 c 128,-1,18
 856 650 856 650 871 744 c 0,19,20
 885 832 885 832 841.5 882.5 c 128,-1,21
 798 933 798 933 710 937 c 2,22,-1
 501 938 l 1,14,-1
EndSplineSet
EndChar

StartChar: germandbls
Encoding: 223 223 162
Width: 1300
Flags: W
LayerCount: 2
Back
Fore
SplineSet
355 0 m 1,0,-1
 25 0 l 1,1,-1
 212 1099 l 1,2,3
 241 1320 241 1320 391 1443.5 c 128,-1,4
 541 1567 541 1567 772 1561 c 0,5,6
 951 1557 951 1557 1059 1453 c 128,-1,7
 1167 1349 1167 1349 1156 1188 c 0,8,9
 1153 1144 1153 1144 1138 1105 c 128,-1,10
 1123 1066 1123 1066 1078.5 986.5 c 128,-1,11
 1034 907 1034 907 1024.5 882 c 128,-1,12
 1015 857 1015 857 1010 827 c 0,13,14
 1002 784 1002 784 1021 736 c 128,-1,15
 1040 688 1040 688 1095 612 c 128,-1,16
 1150 536 1150 536 1173 482 c 128,-1,17
 1196 428 1196 428 1194 378 c 0,18,19
 1185 192 1185 192 1046 84 c 128,-1,20
 907 -24 907 -24 686 -22 c 0,21,22
 528 -20 528 -20 422 28 c 1,23,-1
 500 284 l 1,24,25
 589 235 589 235 700 239 c 0,26,27
 767 241 767 241 812.5 278 c 128,-1,28
 858 315 858 315 869 373 c 0,29,30
 877 418 877 418 857.5 465.5 c 128,-1,31
 838 513 838 513 780 583.5 c 128,-1,32
 722 654 722 654 699 705 c 128,-1,33
 676 756 676 756 679 808 c 0,34,35
 684 879 684 879 739.5 983.5 c 128,-1,36
 795 1088 795 1088 804 1117 c 128,-1,37
 813 1146 813 1146 817 1177 c 0,38,39
 824 1231 824 1231 796.5 1267 c 128,-1,40
 769 1303 769 1303 713 1306 c 0,41,42
 570 1312 570 1312 540 1094 c 1,43,-1
 355 0 l 1,0,-1
EndSplineSet
Substitution2: "'c2sc' Capitals to Small Capitals in Cyrillic lookup 3 subtable" germandbls.c2sc
Substitution2: "'c2sc' Capitals to Small Capitals in Greek lookup 2 subtable" germandbls.c2sc
Substitution2: "'c2sc' Capitals to Small Capitals lookup 1 subtable" germandbls.c2sc
Substitution2: "'c2sc' Capitals to Small Capitals in Latin lookup 0 subtable" germandbls.c2sc
EndChar

StartChar: ae
Encoding: 230 230 169
Width: 1688
Flags: W
LayerCount: 2
Back
Fore
SplineSet
1117 -20 m 0,0,1
 880 -15 880 -15 769 113 c 1,2,3
 604 -24 604 -24 386 -20 c 0,4,5
 214 -18 214 -18 110 72 c 128,-1,6
 6 162 6 162 13 317 c 0,7,8
 20 482 20 482 163 569 c 128,-1,9
 306 656 306 656 558 656 c 2,10,-1
 699 655 l 1,11,-1
 709 704 l 2,12,13
 713 731 713 731 711 756 c 0,14,15
 704 839 704 839 618 842 c 0,16,17
 557 844 557 844 514.5 816.5 c 128,-1,18
 472 789 472 789 461 740 c 1,19,-1
 133 758 l 1,20,21
 138 862 138 862 200.5 939 c 128,-1,22
 263 1016 263 1016 382 1061 c 128,-1,23
 501 1106 501 1106 640 1103 c 0,24,25
 729 1103 729 1103 807 1079.5 c 128,-1,26
 885 1056 885 1056 936 1012 c 1,27,28
 1085 1105 1085 1105 1259 1101 c 0,29,30
 1389 1097 1389 1097 1480.5 1033 c 128,-1,31
 1572 969 1572 969 1612 859 c 128,-1,32
 1652 749 1652 749 1637 612 c 1,33,-1
 1610 435 l 1,34,-1
 997 435 l 1,35,36
 989 344 989 344 1035 294.5 c 128,-1,37
 1081 245 1081 245 1173 242 c 0,38,39
 1251 240 1251 240 1321 259.5 c 128,-1,40
 1391 279 1391 279 1461 308 c 1,41,-1
 1524 99 l 1,42,43
 1455 42 1455 42 1349 11 c 128,-1,44
 1243 -20 1243 -20 1117 -20 c 0,0,1
457 211 m 0,45,46
 533 209 533 209 636 274 c 1,47,-1
 672 451 l 1,48,-1
 560 452 l 2,49,50
 473 449 473 449 414 411.5 c 128,-1,51
 355 374 355 374 343 312 c 0,52,53
 335 264 335 264 366.5 237.5 c 128,-1,54
 398 211 398 211 457 211 c 0,45,46
1235 844 m 0,55,56
 1086 850 1086 850 1018 645 c 1,57,-1
 1316 645 l 1,58,59
 1327 700 1327 700 1327 731 c 0,60,61
 1327 781 1327 781 1303.5 811 c 128,-1,62
 1280 841 1280 841 1235 844 c 0,55,56
EndSplineSet
EndChar

StartChar: eth
Encoding: 240 240 179
Width: 1140
Flags: W
LayerCount: 2
Back
Fore
SplineSet
961 1305 m 1,0,1
 1051 1152 1051 1152 1088 993 c 128,-1,2
 1125 834 1125 834 1103 656 c 2,3,-1
 1094 593 l 2,4,5
 1068 411 1068 411 977.5 265.5 c 128,-1,6
 887 120 887 120 758.5 48 c 128,-1,7
 630 -24 630 -24 482 -21 c 0,8,9
 348 -18 348 -18 243 45 c 128,-1,10
 138 108 138 108 85 218.5 c 128,-1,11
 32 329 32 329 44 460 c 0,12,13
 63 688 63 688 199.5 827 c 128,-1,14
 336 966 336 966 547 962 c 0,15,16
 663 960 663 960 771 898 c 1,17,18
 764 1022 764 1022 684 1139 c 1,19,-1
 487 1027 l 1,20,-1
 427 1160 l 1,21,-1
 569 1237 l 1,22,23
 498 1295 498 1295 354 1335 c 1,24,-1
 481 1579 l 1,25,26
 700 1527 700 1527 852 1403 c 1,27,-1
 1035 1507 l 1,28,-1
 1093 1374 l 1,29,-1
 961 1305 l 1,0,1
508 238 m 0,30,31
 604 235 604 235 669 317 c 128,-1,32
 734 399 734 399 759 553 c 2,33,-1
 778 656 l 1,34,35
 724 722 724 722 606 722 c 0,36,37
 530 723 530 723 474.5 678 c 128,-1,38
 419 633 419 633 392.5 546 c 128,-1,39
 366 459 366 459 374 384 c 0,40,41
 381 317 381 317 416 278 c 128,-1,42
 451 239 451 239 508 238 c 0,30,31
EndSplineSet
Substitution2: "'smcp' Lowercase to Small Capitals in Cyrillic lookup 7 subtable" Eth.c2sc
Substitution2: "'smcp' Lowercase to Small Capitals in Greek lookup 6 subtable" Eth.c2sc
Substitution2: "'smcp' Lowercase to Small Capitals lookup 5 subtable" Eth.c2sc
Substitution2: "'smcp' Lowercase to Small Capitals in Latin lookup 4 subtable" Eth.c2sc
EndChar

StartChar: divide
Encoding: 247 247 186
Width: 1141
Flags: W
LayerCount: 2
Back
Fore
SplineSet
1065 563 m 1,0,-1
 50 563 l 1,1,-1
 93 807 l 1,2,-1
 1107 807 l 1,3,-1
 1065 563 l 1,0,-1
466 1080 m 0,4,5
 464 1152 464 1152 516.5 1201.5 c 128,-1,6
 569 1251 569 1251 646 1251 c 128,-1,7
 723 1251 723 1251 774.5 1207 c 128,-1,8
 826 1163 826 1163 828 1092 c 0,9,10
 830 1020 830 1020 777.5 970.5 c 128,-1,11
 725 921 725 921 647 921 c 0,12,13
 568 921 568 921 518 967 c 128,-1,14
 468 1013 468 1013 466 1080 c 0,4,5
326 271 m 0,15,16
 324 343 324 343 376.5 392.5 c 128,-1,17
 429 442 429 442 506 442 c 0,18,19
 586 442 586 442 636 396.5 c 128,-1,20
 686 351 686 351 688 283 c 0,21,22
 690 211 690 211 637.5 161.5 c 128,-1,23
 585 112 585 112 507 112 c 0,24,25
 428 112 428 112 378 158 c 128,-1,26
 328 204 328 204 326 271 c 0,15,16
EndSplineSet
EndChar

StartChar: oslash
Encoding: 248 248 187
Width: 1126
Flags: W
LayerCount: 2
Back
Fore
SplineSet
41 544 m 0,0,1
 61 708 61 708 139.5 838 c 128,-1,2
 218 968 218 968 343.5 1037 c 128,-1,3
 469 1106 469 1106 623 1104 c 0,4,5
 711 1102 711 1102 795 1076 c 1,6,-1
 894 1219 l 1,7,-1
 1083 1218 l 1,8,-1
 933 1003 l 1,9,10
 1050 872 1050 872 1059 675 c 0,11,12
 1061 618 1061 618 1053 532 c 0,13,14
 1023 283 1023 283 863.5 129 c 128,-1,15
 704 -25 704 -25 471 -21 c 0,16,17
 393 -21 393 -21 304 3 c 1,18,-1
 203 -145 l 1,19,-1
 13 -144 l 1,20,-1
 164 74 l 1,21,22
 44 203 44 203 36 402 c 0,23,24
 33 461 33 461 41 544 c 0,0,1
363 527 m 2,25,26
 347 436 347 436 347 370 c 1,27,-1
 656 838 l 1,28,29
 639 844 639 844 608 846 c 0,30,31
 420 849 420 849 366 547 c 1,32,-1
 363 527 l 2,25,26
746 701 m 1,33,-1
 443 241 l 1,34,-1
 485 236 l 1,35,36
 578 234 578 234 639 304.5 c 128,-1,37
 700 375 700 375 728 532 c 0,38,39
 744 642 744 642 746 701 c 1,33,-1
EndSplineSet
EndChar

StartChar: thorn
Encoding: 254 254 193
Width: 1124
Flags: W
LayerCount: 2
Back
Fore
SplineSet
1053 540 m 0,0,1
 1022 285 1022 285 895.5 129.5 c 128,-1,2
 769 -26 769 -26 572 -21 c 0,3,4
 429 -17 429 -17 343 89 c 1,5,-1
 245 -416 l 1,6,-1
 -85 -416 l 1,7,-1
 254 1536 l 1,8,-1
 584 1536 l 1,9,-1
 478 995 l 1,10,11
 583 1104 583 1104 719 1102 c 0,12,13
 876 1100 876 1100 964.5 990.5 c 128,-1,14
 1053 881 1053 881 1059 685 c 0,15,16
 1061 623 1061 623 1053 540 c 0,0,1
733 674 m 0,17,18
 733 839 733 839 621 842 c 0,19,20
 519 848 519 848 451 759 c 1,21,-1
 373 325 l 1,22,23
 404 242 404 242 508 240 c 0,24,25
 685 235 685 235 724 540 c 0,26,27
 733 634 733 634 733 674 c 0,17,18
EndSplineSet
EndChar

StartChar: Aogonek
Encoding: 260 260 199
Width: 1363
Flags: W
LayerCount: 2
Back
Fore
SplineSet
1150 0 m 1,0,-1
 1083 -42 l 2,1,2
 994 -99 994 -99 986 -167 c 0,3,4
 979 -219 979 -219 1025 -221 c 0,5,6
 1046 -222 1046 -222 1094 -204 c 1,7,-1
 1121 -375 l 1,8,9
 1056 -416 1056 -416 967 -416 c 0,10,11
 869 -416 869 -416 807.5 -360 c 128,-1,12
 746 -304 746 -304 746 -210 c 0,13,14
 746 -143 746 -143 778.5 -87 c 128,-1,15
 811 -31 811 -31 889 21 c 1,16,-1
 857 272 l 1,17,-1
 392 272 l 1,18,-1
 263 0 l 1,19,-1
 -114 0 l 1,20,-1
 657 1456 l 1,21,-1
 979 1456 l 1,22,-1
 1248 0 l 1,23,-1
 1150 0 l 1,0,-1
520 543 m 1,24,-1
 822 543 l 1,25,-1
 758 1045 l 1,26,-1
 520 543 l 1,24,-1
EndSplineSet
Substitution2: "'locl' Localized Forms in Latin lookup 12 subtable" Aogonek.locl
Substitution2: "'c2sc' Capitals to Small Capitals in Cyrillic lookup 3 subtable" Aogonek.c2sc
Substitution2: "'c2sc' Capitals to Small Capitals in Greek lookup 2 subtable" Aogonek.c2sc
Substitution2: "'c2sc' Capitals to Small Capitals lookup 1 subtable" Aogonek.c2sc
Substitution2: "'c2sc' Capitals to Small Capitals in Latin lookup 0 subtable" Aogonek.c2sc
Position2: "'cpsp' Capital Spacing in Cyrillic lookup 3 subtable" dx=36 dy=0 dh=72 dv=0
Position2: "'cpsp' Capital Spacing in Greek lookup 2 subtable" dx=36 dy=0 dh=72 dv=0
Position2: "'cpsp' Capital Spacing lookup 1 subtable" dx=36 dy=0 dh=72 dv=0
Position2: "'cpsp' Capital Spacing in Latin lookup 0 subtable" dx=36 dy=0 dh=72 dv=0
EndChar

StartChar: aogonek
Encoding: 261 261 200
Width: 1064
Flags: W
LayerCount: 2
Back
Fore
SplineSet
856 0 m 1,0,-1
 789 -42 l 2,1,2
 700 -99 700 -99 692 -167 c 0,3,4
 685 -219 685 -219 731 -221 c 0,5,6
 752 -222 752 -222 800 -204 c 1,7,-1
 827 -375 l 1,8,9
 762 -416 762 -416 673 -416 c 0,10,11
 575 -416 575 -416 513.5 -360 c 128,-1,12
 452 -304 452 -304 452 -210 c 0,13,14
 452 -75 452 -75 591 18 c 1,15,16
 583 50 583 50 583 98 c 1,17,18
 472 -24 472 -24 318 -20 c 0,19,20
 177 -18 177 -18 84 74 c 128,-1,21
 -9 166 -9 166 -3 297 c 0,22,23
 2 473 2 473 144 567.5 c 128,-1,24
 286 662 286 662 532 662 c 1,25,-1
 642 660 l 1,26,-1
 654 721 l 1,27,-1
 658 774 l 1,28,29
 654 865 654 865 567 868 c 0,30,31
 459 870 459 870 434 749 c 1,32,-1
 104 748 l 1,33,34
 109 857 109 857 175 937.5 c 128,-1,35
 241 1018 241 1018 354.5 1061.5 c 128,-1,36
 468 1105 468 1105 596 1102 c 0,37,38
 719 1099 719 1099 811.5 1050.5 c 128,-1,39
 904 1002 904 1002 950 915.5 c 128,-1,40
 996 829 996 829 985 716 c 1,41,-1
 904 207 l 1,42,-1
 899 145 l 2,43,44
 895 71 895 71 918 19 c 1,45,-1
 917 0 l 1,46,-1
 856 0 l 1,0,-1
409 218 m 0,47,48
 510 214 510 214 586 307 c 1,49,-1
 619 481 l 1,50,-1
 534 482 l 2,51,52
 455 480 455 480 398 435.5 c 128,-1,53
 341 391 341 391 331 314 c 0,54,55
 326 273 326 273 346.5 246.5 c 128,-1,56
 367 220 367 220 409 218 c 0,47,48
EndSplineSet
Substitution2: "'locl' Localized Forms in Latin lookup 12 subtable" aogonek.locl
Substitution2: "'smcp' Lowercase to Small Capitals in Cyrillic lookup 7 subtable" Aogonek.c2sc
Substitution2: "'smcp' Lowercase to Small Capitals in Greek lookup 6 subtable" Aogonek.c2sc
Substitution2: "'smcp' Lowercase to Small Capitals lookup 5 subtable" Aogonek.c2sc
Substitution2: "'smcp' Lowercase to Small Capitals in Latin lookup 4 subtable" Aogonek.c2sc
EndChar

StartChar: Dcroat
Encoding: 272 272 211
Width: 1324
Flags: W
LayerCount: 2
Back
Fore
SplineSet
32 0 m 1,0,-1
 142 635 l 1,1,-1
 -24 635 l 1,2,-1
 9 826 l 1,3,-1
 175 826 l 1,4,-1
 284 1456 l 1,5,-1
 712 1455 l 2,6,7
 901 1455 901 1455 1042 1355.5 c 128,-1,8
 1183 1256 1183 1256 1242 1084 c 0,9,10
 1293 933 1293 933 1273 758 c 2,11,-1
 1266 697 l 1,12,13
 1239 501 1239 501 1136 342 c 128,-1,14
 1033 183 1033 183 871 92.5 c 128,-1,15
 709 2 709 2 521 0 c 2,16,-1
 32 0 l 1,0,-1
686 635 m 1,17,-1
 484 635 l 1,18,-1
 421 270 l 1,19,-1
 521 269 l 2,20,21
 701 269 701 269 808.5 411.5 c 128,-1,22
 916 554 916 554 932 854 c 0,23,24
 939 1014 939 1014 882 1097 c 128,-1,25
 825 1180 825 1180 711 1184 c 2,26,-1
 580 1185 l 1,27,-1
 517 826 l 1,28,-1
 720 826 l 1,29,-1
 686 635 l 1,17,-1
EndSplineSet
Substitution2: "'c2sc' Capitals to Small Capitals in Cyrillic lookup 3 subtable" Dcroat.c2sc
Substitution2: "'c2sc' Capitals to Small Capitals in Greek lookup 2 subtable" Dcroat.c2sc
Substitution2: "'c2sc' Capitals to Small Capitals lookup 1 subtable" Dcroat.c2sc
Substitution2: "'c2sc' Capitals to Small Capitals in Latin lookup 0 subtable" Dcroat.c2sc
Position2: "'cpsp' Capital Spacing in Cyrillic lookup 3 subtable" dx=36 dy=0 dh=72 dv=0
Position2: "'cpsp' Capital Spacing in Greek lookup 2 subtable" dx=36 dy=0 dh=72 dv=0
Position2: "'cpsp' Capital Spacing lookup 1 subtable" dx=36 dy=0 dh=72 dv=0
Position2: "'cpsp' Capital Spacing in Latin lookup 0 subtable" dx=36 dy=0 dh=72 dv=0
EndChar

StartChar: dcroat
Encoding: 273 273 212
Width: 1157
Flags: W
LayerCount: 2
Back
Fore
SplineSet
1266 1215 m 1,0,-1
 1131 1215 l 1,1,-1
 921 0 l 1,2,-1
 628 0 l 1,3,-1
 642 117 l 1,4,5
 521 -25 521 -25 373 -21 c 0,6,7
 217 -19 217 -19 128.5 94.5 c 128,-1,8
 40 208 40 208 34 399 c 0,9,10
 32 462 32 462 38 522 c 2,11,-1
 41 543 l 1,12,13
 72 799 72 799 197 953 c 128,-1,14
 322 1107 322 1107 523 1102 c 0,15,16
 661 1098 661 1098 752 986 c 1,17,-1
 795 1215 l 1,18,-1
 556 1215 l 1,19,-1
 589 1406 l 1,20,-1
 832 1406 l 1,21,-1
 857 1536 l 1,22,-1
 1187 1536 l 1,23,-1
 1164 1406 l 1,24,-1
 1300 1406 l 1,25,-1
 1266 1215 l 1,0,-1
369 521 m 0,26,27
 361 457 361 457 362 409 c 0,28,29
 362 243 362 243 474 240 c 0,30,31
 571 237 571 237 647 333 c 1,32,-1
 721 748 l 1,33,34
 688 840 688 840 589 843 c 0,35,36
 497 845 497 845 440.5 763.5 c 128,-1,37
 384 682 384 682 369 521 c 0,26,27
EndSplineSet
Substitution2: "'smcp' Lowercase to Small Capitals in Cyrillic lookup 7 subtable" Dcroat.c2sc
Substitution2: "'smcp' Lowercase to Small Capitals in Greek lookup 6 subtable" Dcroat.c2sc
Substitution2: "'smcp' Lowercase to Small Capitals lookup 5 subtable" Dcroat.c2sc
Substitution2: "'smcp' Lowercase to Small Capitals in Latin lookup 4 subtable" Dcroat.c2sc
EndChar

StartChar: Eogonek
Encoding: 280 280 219
Width: 1122
Flags: W
LayerCount: 2
Back
Fore
SplineSet
987 617 m 1,0,-1
 452 617 l 1,1,-1
 391 270 l 1,2,-1
 1024 270 l 1,3,-1
 977 0 l 1,4,-1
 787 0 l 1,5,-1
 720 -42 l 2,6,7
 631 -99 631 -99 623 -167 c 0,8,9
 616 -219 616 -219 662 -221 c 0,10,11
 683 -222 683 -222 731 -204 c 1,12,-1
 758 -375 l 1,13,14
 693 -416 693 -416 604 -416 c 0,15,16
 506 -416 506 -416 444.5 -360 c 128,-1,17
 383 -304 383 -304 383 -210 c 0,18,19
 383 -87 383 -87 495 0 c 1,20,-1
 2 0 l 1,21,-1
 254 1456 l 1,22,-1
 1231 1456 l 1,23,-1
 1184 1185 l 1,24,-1
 550 1185 l 1,25,-1
 496 878 l 1,26,-1
 1032 878 l 1,27,-1
 987 617 l 1,0,-1
EndSplineSet
Substitution2: "'locl' Localized Forms in Latin lookup 12 subtable" Eogonek.locl
Substitution2: "'c2sc' Capitals to Small Capitals in Cyrillic lookup 3 subtable" Eogonek.c2sc
Substitution2: "'c2sc' Capitals to Small Capitals in Greek lookup 2 subtable" Eogonek.c2sc
Substitution2: "'c2sc' Capitals to Small Capitals lookup 1 subtable" Eogonek.c2sc
Substitution2: "'c2sc' Capitals to Small Capitals in Latin lookup 0 subtable" Eogonek.c2sc
Position2: "'cpsp' Capital Spacing in Cyrillic lookup 3 subtable" dx=36 dy=0 dh=72 dv=0
Position2: "'cpsp' Capital Spacing in Greek lookup 2 subtable" dx=36 dy=0 dh=72 dv=0
Position2: "'cpsp' Capital Spacing lookup 1 subtable" dx=36 dy=0 dh=72 dv=0
Position2: "'cpsp' Capital Spacing in Latin lookup 0 subtable" dx=36 dy=0 dh=72 dv=0
EndChar

StartChar: eogonek
Encoding: 281 281 220
Width: 1092
Flags: W
LayerCount: 2
Back
Fore
SplineSet
958 168 m 1,0,1
 885 63 885 63 735 11 c 1,2,-1
 690 -18 l 2,3,4
 617 -68 617 -68 610 -132 c 0,5,6
 603 -184 603 -184 649 -186 c 0,7,8
 670 -187 670 -187 718 -169 c 1,9,-1
 745 -340 l 1,10,11
 680 -381 680 -381 591 -381 c 0,12,13
 493 -381 493 -381 431.5 -325 c 128,-1,14
 370 -269 370 -269 370 -175 c 0,15,16
 370 -82 370 -82 433 -10 c 1,17,18
 249 22 249 22 143.5 164 c 128,-1,19
 38 306 38 306 54 502 c 1,20,-1
 57 530 l 2,21,22
 84 797 84 797 242.5 952.5 c 128,-1,23
 401 1108 401 1108 631 1102 c 0,24,25
 770 1100 770 1100 869 1031.5 c 128,-1,26
 968 963 968 963 1014 842.5 c 128,-1,27
 1060 722 1060 722 1044 572 c 1,28,-1
 1025 435 l 1,29,-1
 381 435 l 1,30,31
 383 350 383 350 429 297 c 128,-1,32
 475 244 475 244 563 241 c 0,33,34
 706 237 706 237 820 351 c 1,35,-1
 958 168 l 1,0,1
610 843 m 0,36,37
 540 845 540 845 488.5 799 c 128,-1,38
 437 753 437 753 399 645 c 1,39,-1
 728 645 l 1,40,-1
 734 674 l 2,41,42
 740 709 740 709 736 740 c 0,43,44
 719 840 719 840 610 843 c 0,36,37
EndSplineSet
Substitution2: "'locl' Localized Forms in Latin lookup 12 subtable" eogonek.locl
Substitution2: "'smcp' Lowercase to Small Capitals in Cyrillic lookup 7 subtable" Eogonek.c2sc
Substitution2: "'smcp' Lowercase to Small Capitals in Greek lookup 6 subtable" Eogonek.c2sc
Substitution2: "'smcp' Lowercase to Small Capitals lookup 5 subtable" Eogonek.c2sc
Substitution2: "'smcp' Lowercase to Small Capitals in Latin lookup 4 subtable" Eogonek.c2sc
EndChar

StartChar: Hbar
Encoding: 294 294 233
Width: 1457
Flags: W
LayerCount: 2
Back
Fore
SplineSet
1424 1243 m 1,0,-1
 1538 1243 l 1,1,-1
 1506 1060 l 1,2,-1
 1392 1060 l 1,3,-1
 1209 0 l 1,4,-1
 868 0 l 1,5,-1
 974 608 l 1,6,-1
 474 608 l 1,7,-1
 369 0 l 1,8,-1
 26 0 l 1,9,-1
 210 1060 l 1,10,-1
 111 1060 l 1,11,-1
 143 1243 l 1,12,-1
 241 1243 l 1,13,-1
 279 1456 l 1,14,-1
 621 1456 l 1,15,-1
 584 1243 l 1,16,-1
 1083 1243 l 1,17,-1
 1121 1456 l 1,18,-1
 1461 1456 l 1,19,-1
 1424 1243 l 1,0,-1
521 878 m 1,20,-1
 1020 878 l 1,21,-1
 1052 1060 l 1,22,-1
 553 1060 l 1,23,-1
 521 878 l 1,20,-1
EndSplineSet
EndChar

StartChar: hbar
Encoding: 295 295 234
Width: 1161
Flags: W
LayerCount: 2
Back
Fore
SplineSet
755 1211 m 1,0,-1
 541 1211 l 1,1,-1
 493 964 l 1,2,3
 614 1105 614 1105 772 1103 c 0,4,5
 935 1099 935 1099 1013.5 984 c 128,-1,6
 1092 869 1092 869 1070 672 c 1,7,-1
 958 0 l 1,8,-1
 629 0 l 1,9,-1
 742 676 l 2,10,11
 746 710 746 710 744 740 c 0,12,13
 737 839 737 839 634 842 c 0,14,15
 545 844 545 844 476 777 c 1,16,-1
 338 0 l 1,17,-1
 9 0 l 1,18,-1
 219 1211 l 1,19,-1
 45 1211 l 1,20,-1
 78 1402 l 1,21,-1
 252 1402 l 1,22,-1
 276 1536 l 1,23,-1
 605 1536 l 1,24,-1
 579 1402 l 1,25,-1
 789 1402 l 1,26,-1
 755 1211 l 1,0,-1
EndSplineSet
EndChar

StartChar: dotlessi
Encoding: 305 305 244
Width: 576
Flags: W
LayerCount: 2
Back
Fore
SplineSet
345 0 m 1,0,-1
 14 0 l 1,1,-1
 202 1082 l 1,2,-1
 533 1082 l 1,3,-1
 345 0 l 1,0,-1
EndSplineSet
Substitution2: "'smcp' Lowercase to Small Capitals in Cyrillic lookup 7 subtable" Idotaccent.c2sc
Substitution2: "'smcp' Lowercase to Small Capitals in Greek lookup 6 subtable" Idotaccent.c2sc
Substitution2: "'smcp' Lowercase to Small Capitals lookup 5 subtable" Idotaccent.c2sc
Substitution2: "'smcp' Lowercase to Small Capitals in Latin lookup 4 subtable" Idotaccent.c2sc
EndChar

StartChar: kgreenlandic
Encoding: 312 312 251
Width: 1215
Flags: W
LayerCount: 2
Back
Fore
SplineSet
527 378 m 1,0,-1
 405 378 l 1,1,-1
 338 0 l 1,2,-1
 10 0 l 1,3,-1
 197 1082 l 1,4,-1
 526 1082 l 1,5,-1
 458 693 l 1,6,-1
 535 693 l 1,7,-1
 821 1082 l 1,8,-1
 1261 1081 l 1,9,-1
 828 560 l 1,10,-1
 1066 0 l 1,11,-1
 657 0 l 1,12,-1
 527 378 l 1,0,-1
EndSplineSet
EndChar

StartChar: Lslash
Encoding: 321 321 260
Width: 1135
Flags: W
LayerCount: 2
Back
Fore
SplineSet
553 920 m 1,0,-1
 751 972 l 1,1,-1
 718 784 l 1,2,-1
 521 731 l 1,3,-1
 441 270 l 1,4,-1
 1034 270 l 1,5,-1
 986 0 l 1,6,-1
 51 0 l 1,7,-1
 161 633 l 1,8,-1
 23 597 l 1,9,-1
 56 785 l 1,10,-1
 194 822 l 1,11,-1
 304 1456 l 1,12,-1
 646 1456 l 1,13,-1
 553 920 l 1,0,-1
EndSplineSet
EndChar

StartChar: lslash
Encoding: 322 322 261
Width: 652
Flags: W
LayerCount: 2
Back
Fore
SplineSet
538 931 m 1,0,-1
 676 972 l 1,1,-1
 643 782 l 1,2,-1
 505 740 l 1,3,-1
 376 0 l 1,4,-1
 46 0 l 1,5,-1
 157 634 l 1,6,-1
 23 595 l 1,7,-1
 57 785 l 1,8,-1
 190 825 l 1,9,-1
 313 1536 l 1,10,-1
 643 1536 l 1,11,-1
 538 931 l 1,0,-1
EndSplineSet
EndChar

StartChar: Eng
Encoding: 330 330 269
Width: 1419
Flags: W
LayerCount: 2
Back
Fore
SplineSet
1447 1456 m 1,0,-1
 1197 -6 l 1,1,2
 1172 -211 1172 -211 1048.5 -326.5 c 128,-1,3
 925 -442 925 -442 733 -440 c 0,4,5
 655 -438 655 -438 562 -421 c 1,6,-1
 605 -155 l 1,7,8
 659 -169 659 -169 701 -169 c 0,9,10
 758 -167 758 -167 795 -131 c 128,-1,11
 832 -95 832 -95 857 -8 c 2,12,-1
 859 0 l 1,13,-1
 506 920 l 1,14,-1
 346 0 l 1,15,-1
 5 0 l 1,16,-1
 257 1456 l 1,17,-1
 589 1456 l 1,18,-1
 945 537 l 1,19,-1
 1105 1456 l 1,20,-1
 1447 1456 l 1,0,-1
EndSplineSet
EndChar

StartChar: eng
Encoding: 331 331 270
Width: 1126
Flags: W
LayerCount: 2
Back
Fore
SplineSet
478 1083 m 1,0,-1
 453 926 l 1,1,2
 587 1106 587 1106 767 1102 c 0,3,4
 899 1100 899 1100 970 1009 c 128,-1,5
 1041 918 1041 918 1043 756 c 1,6,-1
 1038 651 l 1,7,-1
 931 -15 l 1,8,9
 906 -212 906 -212 789 -326.5 c 128,-1,10
 672 -441 672 -441 479 -441 c 0,11,12
 396 -439 396 -439 314 -423 c 1,13,-1
 351 -165 l 1,14,15
 402 -183 402 -183 449 -181 c 0,16,17
 569 -181 569 -181 600 -15 c 2,18,-1
 709 653 l 1,19,-1
 714 713 l 1,20,21
 718 836 718 836 627 841 c 0,22,23
 537 844 537 844 448 769 c 1,24,-1
 311 0 l 1,25,-1
 -18 0 l 1,26,-1
 170 1082 l 1,27,-1
 478 1083 l 1,0,-1
EndSplineSet
EndChar

StartChar: OE
Encoding: 338 338 277
Width: 1944
Flags: W
LayerCount: 2
Back
Fore
SplineSet
1763 0 m 1,0,-1
 899 0 l 1,1,-1
 703 -17 l 1,2,-1
 616 -18 l 1,3,4
 451 -15 451 -15 323 62 c 128,-1,5
 195 139 195 139 133 275.5 c 128,-1,6
 71 412 71 412 92 576 c 1,7,-1
 140 887 l 2,8,9
 166 1059 166 1059 262 1194.5 c 128,-1,10
 358 1330 358 1330 507.5 1403.5 c 128,-1,11
 657 1477 657 1477 835 1477 c 1,12,-1
 908 1475 l 1,13,-1
 1115 1456 l 1,14,-1
 2017 1456 l 1,15,-1
 1970 1185 l 1,16,-1
 1336 1185 l 1,17,-1
 1282 878 l 1,18,-1
 1818 878 l 1,19,-1
 1772 617 l 1,20,-1
 1238 617 l 1,21,-1
 1177 270 l 1,22,-1
 1810 270 l 1,23,-1
 1763 0 l 1,0,-1
631 242 m 0,24,25
 714 239 714 239 824 250 c 1,26,-1
 1002 1205 l 1,27,28
 906 1220 906 1220 823 1220 c 0,29,30
 686 1222 686 1222 591.5 1134 c 128,-1,31
 497 1046 497 1046 471 888 c 2,32,-1
 422 575 l 2,33,34
 414 513 414 513 419 455 c 0,35,36
 427 358 427 358 481.5 302 c 128,-1,37
 536 246 536 246 631 242 c 0,24,25
EndSplineSet
Substitution2: "'c2sc' Capitals to Small Capitals in Cyrillic lookup 3 subtable" OE.c2sc
Substitution2: "'c2sc' Capitals to Small Capitals in Greek lookup 2 subtable" OE.c2sc
Substitution2: "'c2sc' Capitals to Small Capitals lookup 1 subtable" OE.c2sc
Substitution2: "'c2sc' Capitals to Small Capitals in Latin lookup 0 subtable" OE.c2sc
Position2: "'cpsp' Capital Spacing in Cyrillic lookup 3 subtable" dx=36 dy=0 dh=72 dv=0
Position2: "'cpsp' Capital Spacing in Greek lookup 2 subtable" dx=36 dy=0 dh=72 dv=0
Position2: "'cpsp' Capital Spacing lookup 1 subtable" dx=36 dy=0 dh=72 dv=0
Position2: "'cpsp' Capital Spacing in Latin lookup 0 subtable" dx=36 dy=0 dh=72 dv=0
EndChar

StartChar: oe
Encoding: 339 339 278
Width: 1800
Flags: W
LayerCount: 2
Back
Fore
SplineSet
72 545 m 1,0,1
 102 798 102 798 262 952.5 c 128,-1,2
 422 1107 422 1107 654 1103 c 0,3,4
 866 1098 866 1098 982 979 c 1,5,6
 1140 1106 1140 1106 1330 1102 c 0,7,8
 1530 1098 1530 1098 1637.5 961 c 128,-1,9
 1745 824 1745 824 1720 612 c 1,10,-1
 1693 435 l 1,11,-1
 1092 436 l 1,12,13
 1090 353 1090 353 1131 300 c 128,-1,14
 1172 247 1172 247 1258 243 c 0,15,16
 1339 240 1339 240 1411.5 259.5 c 128,-1,17
 1484 279 1484 279 1558 308 c 1,18,-1
 1621 99 l 1,19,20
 1552 43 1552 43 1445 11.5 c 128,-1,21
 1338 -20 1338 -20 1201 -20 c 0,22,23
 990 -15 990 -15 873 107 c 1,24,25
 707 -24 707 -24 503 -20 c 0,26,27
 287 -16 287 -16 168.5 131.5 c 128,-1,28
 50 279 50 279 69 510 c 2,29,-1
 70 523 l 1,30,-1
 72 545 l 1,0,1
394 433 m 2,31,32
 392 342 392 342 426 291 c 128,-1,33
 460 240 460 240 528 238 c 0,34,35
 619 235 619 235 678.5 307.5 c 128,-1,36
 738 380 738 380 757 532 c 1,37,-1
 764 643 l 2,38,39
 766 736 766 736 732 788.5 c 128,-1,40
 698 841 698 841 630 843 c 0,41,42
 539 846 539 846 479.5 770 c 128,-1,43
 420 694 420 694 401 544 c 1,44,-1
 394 433 l 2,31,32
1307 844 m 0,45,46
 1195 847 1195 847 1133 702 c 1,47,-1
 1111 645 l 1,48,-1
 1399 645 l 1,49,50
 1411 705 1411 705 1410 736 c 0,51,52
 1406 841 1406 841 1307 844 c 0,45,46
EndSplineSet
Substitution2: "'smcp' Lowercase to Small Capitals in Cyrillic lookup 7 subtable" OE.c2sc
Substitution2: "'smcp' Lowercase to Small Capitals in Greek lookup 6 subtable" OE.c2sc
Substitution2: "'smcp' Lowercase to Small Capitals lookup 5 subtable" OE.c2sc
Substitution2: "'smcp' Lowercase to Small Capitals in Latin lookup 4 subtable" OE.c2sc
EndChar

StartChar: Tbar
Encoding: 358 358 297
Width: 1262
Flags: W
LayerCount: 2
Back
Fore
SplineSet
969 723 m 1,0,-1
 814 723 l 1,1,-1
 689 0 l 1,2,-1
 346 0 l 1,3,-1
 471 723 l 1,4,-1
 259 723 l 1,5,-1
 292 914 l 1,6,-1
 505 914 l 1,7,-1
 552 1185 l 1,8,-1
 135 1185 l 1,9,-1
 183 1456 l 1,10,-1
 1365 1456 l 1,11,-1
 1318 1185 l 1,12,-1
 894 1185 l 1,13,-1
 847 914 l 1,14,-1
 1003 914 l 1,15,-1
 969 723 l 1,0,-1
EndSplineSet
Substitution2: "'c2sc' Capitals to Small Capitals in Cyrillic lookup 3 subtable" Tbar.c2sc
Substitution2: "'c2sc' Capitals to Small Capitals in Greek lookup 2 subtable" Tbar.c2sc
Substitution2: "'c2sc' Capitals to Small Capitals lookup 1 subtable" Tbar.c2sc
Substitution2: "'c2sc' Capitals to Small Capitals in Latin lookup 0 subtable" Tbar.c2sc
Position2: "'cpsp' Capital Spacing in Cyrillic lookup 3 subtable" dx=36 dy=0 dh=72 dv=0
Position2: "'cpsp' Capital Spacing in Greek lookup 2 subtable" dx=36 dy=0 dh=72 dv=0
Position2: "'cpsp' Capital Spacing lookup 1 subtable" dx=36 dy=0 dh=72 dv=0
Position2: "'cpsp' Capital Spacing in Latin lookup 0 subtable" dx=36 dy=0 dh=72 dv=0
EndChar

StartChar: tbar
Encoding: 359 359 298
Width: 692
Flags: W
LayerCount: 2
Back
Fore
SplineSet
658 507 m 1,0,-1
 458 507 l 1,1,-1
 432 351 l 2,2,3
 425 300 425 300 438.5 274 c 128,-1,4
 452 248 452 248 506 246 c 0,5,6
 527 245 527 245 592 251 c 1,7,-1
 568 7 l 1,8,9
 485 -20 485 -20 391 -18 c 0,10,11
 238 -16 238 -16 162 72 c 128,-1,12
 86 160 86 160 100 311 c 1,13,-1
 132 507 l 1,14,-1
 -52 507 l 1,15,-1
 -19 698 l 1,16,-1
 163 698 l 1,17,-1
 188 848 l 1,18,-1
 54 848 l 1,19,-1
 94 1082 l 1,20,-1
 228 1082 l 1,21,-1
 275 1351 l 1,22,-1
 604 1351 l 1,23,-1
 557 1082 l 1,24,-1
 730 1082 l 1,25,-1
 689 848 l 1,26,-1
 516 848 l 1,27,-1
 490 698 l 1,28,-1
 692 698 l 1,29,-1
 658 507 l 1,0,-1
EndSplineSet
Substitution2: "'smcp' Lowercase to Small Capitals in Cyrillic lookup 7 subtable" Tbar.c2sc
Substitution2: "'smcp' Lowercase to Small Capitals in Greek lookup 6 subtable" Tbar.c2sc
Substitution2: "'smcp' Lowercase to Small Capitals lookup 5 subtable" Tbar.c2sc
Substitution2: "'smcp' Lowercase to Small Capitals in Latin lookup 4 subtable" Tbar.c2sc
EndChar

StartChar: Uogonek
Encoding: 370 370 309
Width: 1330
Flags: W
LayerCount: 2
Back
Fore
SplineSet
1368 1456 m 1,0,-1
 1206 506 l 1,1,2
 1181 331 1181 331 1090.5 210 c 128,-1,3
 1000 89 1000 89 860 30 c 1,4,5
 826 7 826 7 800 -21 c 128,-1,6
 774 -49 774 -49 769 -91 c 0,7,8
 762 -143 762 -143 808 -145 c 0,9,10
 829 -146 829 -146 877 -128 c 1,11,-1
 904 -299 l 1,12,13
 839 -340 839 -340 750 -340 c 0,14,15
 652 -340 652 -340 590.5 -284 c 128,-1,16
 529 -228 529 -228 529 -134 c 0,17,18
 529 -72 529 -72 556 -20 c 1,19,20
 403 -13 403 -13 290.5 54.5 c 128,-1,21
 178 122 178 122 126 239 c 128,-1,22
 74 356 74 356 92 505 c 1,23,-1
 254 1456 l 1,24,-1
 598 1456 l 1,25,-1
 437 504 l 2,26,27
 431 454 431 454 435 409 c 0,28,29
 440 335 440 335 481.5 294 c 128,-1,30
 523 253 523 253 599 250 c 0,31,32
 819 243 819 243 864 505 c 2,33,-1
 1026 1456 l 1,34,-1
 1368 1456 l 1,0,-1
EndSplineSet
Substitution2: "'c2sc' Capitals to Small Capitals in Cyrillic lookup 3 subtable" Uogonek.c2sc
Substitution2: "'c2sc' Capitals to Small Capitals in Greek lookup 2 subtable" Uogonek.c2sc
Substitution2: "'c2sc' Capitals to Small Capitals lookup 1 subtable" Uogonek.c2sc
Substitution2: "'c2sc' Capitals to Small Capitals in Latin lookup 0 subtable" Uogonek.c2sc
Position2: "'cpsp' Capital Spacing in Cyrillic lookup 3 subtable" dx=36 dy=0 dh=72 dv=0
Position2: "'cpsp' Capital Spacing in Greek lookup 2 subtable" dx=36 dy=0 dh=72 dv=0
Position2: "'cpsp' Capital Spacing lookup 1 subtable" dx=36 dy=0 dh=72 dv=0
Position2: "'cpsp' Capital Spacing in Latin lookup 0 subtable" dx=36 dy=0 dh=72 dv=0
EndChar

StartChar: uogonek
Encoding: 371 371 310
Width: 1130
Flags: W
LayerCount: 2
Back
Fore
SplineSet
898 0 m 1,0,-1
 831 -42 l 2,1,2
 742 -99 742 -99 734 -167 c 0,3,4
 727 -219 727 -219 773 -221 c 0,5,6
 794 -222 794 -222 842 -204 c 1,7,-1
 869 -375 l 1,8,9
 804 -416 804 -416 715 -416 c 0,10,11
 617 -416 617 -416 555.5 -360 c 128,-1,12
 494 -304 494 -304 494 -210 c 0,13,14
 494 -71 494 -71 638 22 c 1,15,-1
 656 118 l 1,16,17
 535 -25 535 -25 364 -21 c 0,18,19
 205 -19 205 -19 124.5 90 c 128,-1,20
 44 199 44 199 62 382 c 1,21,-1
 179 1082 l 1,22,-1
 508 1082 l 1,23,-1
 389 378 l 2,24,25
 386 349 386 349 389 325 c 0,26,27
 396 243 396 243 486 240 c 0,28,29
 590 236 590 236 663 322 c 1,30,-1
 797 1082 l 1,31,-1
 1128 1082 l 1,32,-1
 940 0 l 1,33,-1
 898 0 l 1,0,-1
EndSplineSet
Substitution2: "'smcp' Lowercase to Small Capitals in Cyrillic lookup 7 subtable" Uogonek.c2sc
Substitution2: "'smcp' Lowercase to Small Capitals in Greek lookup 6 subtable" Uogonek.c2sc
Substitution2: "'smcp' Lowercase to Small Capitals lookup 5 subtable" Uogonek.c2sc
Substitution2: "'smcp' Lowercase to Small Capitals in Latin lookup 4 subtable" Uogonek.c2sc
EndChar

StartChar: longs
Encoding: 383 383 322
Width: 533
Flags: W
LayerCount: 2
Back
Fore
SplineSet
-14 0 m 1,0,-1
 185 1170 l 1,1,2
 208 1354 208 1354 331 1458 c 128,-1,3
 454 1562 454 1562 649 1560 c 0,4,5
 713 1560 713 1560 818 1540 c 1,6,-1
 776 1287 l 1,7,8
 724 1300 724 1300 678 1300 c 0,9,10
 615 1300 615 1300 573 1266.5 c 128,-1,11
 531 1233 531 1233 518 1170 c 2,12,-1
 316 0 l 1,13,-1
 -14 0 l 1,0,-1
EndSplineSet
EndChar

StartChar: uni018F
Encoding: 399 399 323
Width: 1397
Flags: W
LayerCount: 2
Back
Fore
SplineSet
607 -21 m 0,0,1
 425 -19 425 -19 297.5 69 c 128,-1,2
 170 157 170 157 116 313.5 c 128,-1,3
 62 470 62 470 88 670 c 1,4,-1
 117 847 l 1,5,-1
 1006 846 l 1,6,7
 1029 1002 1029 1002 952.5 1087.5 c 128,-1,8
 876 1173 876 1173 720 1177 c 0,9,10
 524 1181 524 1181 316 1120 c 1,11,-1
 294 1406 l 1,12,13
 414 1470 414 1470 660 1475 c 2,14,-1
 759 1476 l 1,15,16
 955 1473 955 1473 1097 1389.5 c 128,-1,17
 1239 1306 1239 1306 1305 1154.5 c 128,-1,18
 1371 1003 1371 1003 1346 811 c 2,19,-1
 1321 640 l 2,20,21
 1293 452 1293 452 1192.5 298.5 c 128,-1,22
 1092 145 1092 145 939 61 c 128,-1,23
 786 -23 786 -23 607 -21 c 0,0,1
630 275 m 0,24,25
 745 272 745 272 831 348 c 128,-1,26
 917 424 917 424 971 573 c 1,27,-1
 418 572 l 1,28,-1
 410 538 l 2,29,30
 399 478 399 478 409 430 c 0,31,32
 428 340 428 340 512 300 c 0,33,34
 563 276 563 276 630 275 c 0,24,25
EndSplineSet
EndChar

StartChar: florin
Encoding: 402 402 324
Width: 745
Flags: W
LayerCount: 2
Back
Fore
SplineSet
738 848 m 1,0,-1
 531 848 l 1,1,-1
 395 -35 l 1,2,3
 371 -228 371 -228 260.5 -335 c 128,-1,4
 150 -442 150 -442 -28 -440 c 0,5,6
 -104 -438 -104 -438 -194 -421 c 1,7,-1
 -155 -165 l 1,8,9
 -105 -180 -105 -180 -71 -180 c 0,10,11
 -14 -180 -14 -180 19 -147 c 128,-1,12
 52 -114 52 -114 64 -35 c 2,13,-1
 200 848 l 1,14,-1
 48 848 l 1,15,-1
 85 1082 l 1,16,-1
 236 1082 l 1,17,-1
 248 1179 l 2,18,19
 272 1359 272 1359 393.5 1460 c 128,-1,20
 515 1561 515 1561 708 1559 c 0,21,22
 768 1559 768 1559 878 1538 c 1,23,-1
 834 1287 l 1,24,25
 782 1300 782 1300 736 1300 c 0,26,27
 605 1298 605 1298 580 1170 c 1,28,-1
 567 1082 l 1,29,-1
 775 1082 l 1,30,-1
 738 848 l 1,0,-1
EndSplineSet
EndChar

StartChar: Ohorn
Encoding: 416 416 325
Width: 1420
Flags: W
LayerCount: 2
Back
Fore
SplineSet
604 -20 m 0,0,1
 395 -16 395 -16 260 110.5 c 128,-1,2
 125 237 125 237 92 458 c 1,3,-1
 85 521 l 1,4,5
 77 639 77 639 102 788.5 c 128,-1,6
 127 938 127 938 191.5 1067.5 c 128,-1,7
 256 1197 256 1197 350.5 1289.5 c 128,-1,8
 445 1382 445 1382 565.5 1430.5 c 128,-1,9
 686 1479 686 1479 821 1476 c 0,10,11
 951 1474 951 1474 1062 1422.5 c 128,-1,12
 1173 1371 1173 1371 1247 1272 c 1,13,14
 1362 1315 1362 1315 1390 1469 c 1,15,-1
 1403 1556 l 1,16,-1
 1599 1557 l 1,17,18
 1587 1378 1587 1378 1519.5 1273 c 128,-1,19
 1452 1168 1452 1168 1327 1125 c 1,20,21
 1341 1033 1341 1033 1343 944 c 1,22,-1
 1341 860 l 1,23,24
 1325 578 1325 578 1228.5 383.5 c 128,-1,25
 1132 189 1132 189 969 82.5 c 128,-1,26
 806 -24 806 -24 604 -20 c 0,0,1
995 943 m 0,27,28
 990 1066 990 1066 940 1132.5 c 128,-1,29
 890 1199 890 1199 800 1202 c 0,30,31
 663 1209 663 1209 571.5 1098 c 128,-1,32
 480 987 480 987 447 765 c 0,33,34
 424 610 424 610 428 514 c 0,35,36
 438 260 438 260 624 253 c 0,37,38
 758 246 758 246 851 359.5 c 128,-1,39
 944 473 944 473 977 692 c 0,40,41
 999 839 999 839 995 943 c 0,27,28
EndSplineSet
EndChar

StartChar: ohorn
Encoding: 417 417 326
Width: 1172
Flags: W
LayerCount: 2
Back
Fore
SplineSet
43 545 m 1,0,1
 63 708 63 708 141.5 838 c 128,-1,2
 220 968 220 968 345 1036.5 c 128,-1,3
 470 1105 470 1105 624 1103 c 0,4,5
 858 1098 858 1098 981 947 c 1,6,7
 1023 983 1023 983 1047.5 1034.5 c 128,-1,8
 1072 1086 1072 1086 1085 1177 c 1,9,-1
 1263 1178 l 1,10,11
 1251 1040 1251 1040 1199 956.5 c 128,-1,12
 1147 873 1147 873 1051 826 c 1,13,14
 1062 757 1062 757 1064 690 c 0,15,16
 1066 622 1066 622 1058 553 c 2,17,-1
 1055 532 l 2,18,19
 1020 276 1020 276 863 125.5 c 128,-1,20
 706 -25 706 -25 475 -21 c 0,21,22
 329 -17 329 -17 225 52.5 c 128,-1,23
 121 122 121 122 73.5 246.5 c 128,-1,24
 26 371 26 371 41 523 c 2,25,-1
 43 545 l 1,0,1
365 434 m 2,26,27
 361 345 361 345 395 292.5 c 128,-1,28
 429 240 429 240 498 238 c 0,29,30
 589 235 589 235 648 308 c 128,-1,31
 707 381 707 381 726 532 c 1,32,-1
 734 643 l 1,33,34
 736 735 736 735 702 788 c 128,-1,35
 668 841 668 841 600 843 c 0,36,37
 510 846 510 846 450.5 772 c 128,-1,38
 391 698 391 698 372 544 c 1,39,-1
 365 434 l 2,26,27
EndSplineSet
EndChar

StartChar: Uhorn
Encoding: 431 431 327
Width: 1440
Flags: W
LayerCount: 2
Back
Fore
SplineSet
1377 1456 m 1,0,-1
 1334 1220 l 1,1,2
 1438 1231 1438 1231 1493 1297 c 128,-1,3
 1548 1363 1548 1363 1565 1537 c 1,4,-1
 1763 1538 l 1,5,6
 1743 1299 1743 1299 1633.5 1183.5 c 128,-1,7
 1524 1068 1524 1068 1316 1061 c 1,8,-1
 1215 505 l 1,9,10
 1179 256 1179 256 1010.5 116 c 128,-1,11
 842 -24 842 -24 586 -20 c 0,12,13
 468 -18 468 -18 371 20 c 128,-1,14
 274 58 274 58 209 128 c 0,15,16
 74 271 74 271 101 505 c 1,17,-1
 263 1456 l 1,18,-1
 607 1456 l 1,19,-1
 446 504 l 2,20,21
 440 454 440 454 444 409 c 0,22,23
 454 254 454 254 609 249 c 0,24,25
 828 242 828 242 874 510 c 2,26,-1
 1035 1456 l 1,27,-1
 1377 1456 l 1,0,-1
EndSplineSet
EndChar

StartChar: uhorn
Encoding: 432 432 328
Width: 1204
Flags: W
LayerCount: 2
Back
Fore
SplineSet
1411 1182 m 1,0,1
 1400 1008 1400 1008 1319.5 914.5 c 128,-1,2
 1239 821 1239 821 1086 797 c 1,3,-1
 940 0 l 1,4,-1
 634 0 l 1,5,-1
 655 118 l 1,6,7
 534 -24 534 -24 363 -22 c 0,8,9
 205 -20 205 -20 125 90 c 128,-1,10
 45 200 45 200 63 382 c 1,11,-1
 179 1082 l 1,12,-1
 508 1082 l 1,13,-1
 388 378 l 2,14,15
 385 349 385 349 388 325 c 0,16,17
 395 243 395 243 485 240 c 0,18,19
 590 236 590 236 663 322 c 1,20,-1
 797 1082 l 1,21,-1
 1128 1082 l 1,22,-1
 1095 945 l 1,23,24
 1156 974 1156 974 1189 1026.5 c 128,-1,25
 1222 1079 1222 1079 1235 1181 c 1,26,-1
 1411 1182 l 1,0,1
EndSplineSet
EndChar

StartChar: uni0237
Encoding: 567 567 356
Width: 596
Flags: W
LayerCount: 2
Back
Fore
SplineSet
547 1082 m 1,0,-1
 360 -14 l 1,1,2
 335 -210 335 -210 217 -325 c 128,-1,3
 99 -440 99 -440 -94 -440 c 0,4,5
 -169 -438 -169 -438 -259 -421 c 1,6,-1
 -218 -165 l 1,7,8
 -169 -180 -169 -180 -124 -180 c 0,9,10
 2 -180 2 -180 32 -4 c 2,11,-1
 218 1082 l 1,12,-1
 547 1082 l 1,0,-1
EndSplineSet
EndChar

StartChar: uni0259
Encoding: 601 601 357
Width: 1061
Flags: W
LayerCount: 2
Back
Fore
SplineSet
576 1102 m 0,0,1
 714 1100 714 1100 819.5 1031 c 128,-1,2
 925 962 925 962 975.5 843 c 128,-1,3
 1026 724 1026 724 1012 581 c 2,4,-1
 1011 569 l 1,5,6
 983 292 983 292 829 133 c 128,-1,7
 675 -26 675 -26 449 -20 c 0,8,9
 247 -14 247 -14 139.5 123 c 128,-1,10
 32 260 32 260 57 471 c 1,11,-1
 84 648 l 1,12,-1
 685 647 l 1,13,14
 686 729 686 729 645 782.5 c 128,-1,15
 604 836 604 836 518 840 c 0,16,17
 437 843 437 843 365 823.5 c 128,-1,18
 293 804 293 804 219 775 c 1,19,-1
 157 984 l 1,20,21
 228 1042 228 1042 337.5 1073 c 128,-1,22
 447 1104 447 1104 576 1102 c 0,0,1
471 239 m 0,23,24
 534 236 534 236 581 281.5 c 128,-1,25
 628 327 628 327 666 438 c 1,26,-1
 379 438 l 1,27,-1
 372 408 l 2,28,29
 367 377 367 377 368 348 c 0,30,31
 372 242 372 242 471 239 c 0,23,24
EndSplineSet
EndChar

StartChar: circumflex
Encoding: 710 710 359
Width: 1012
Flags: W
LayerCount: 2
Back
Fore
SplineSet
1029 1264 m 1,0,-1
 1029 1242 l 1,1,-1
 779 1242 l 1,2,-1
 649 1377 l 1,3,-1
 471 1242 l 1,4,-1
 209 1242 l 1,5,-1
 208 1266 l 1,6,-1
 556 1536 l 1,7,-1
 741 1536 l 1,8,-1
 1029 1264 l 1,0,-1
EndSplineSet
EndChar

StartChar: caron
Encoding: 711 711 360
Width: 965
Flags: W
LayerCount: 2
Back
Fore
SplineSet
603 1404 m 1,0,-1
 769 1536 l 1,1,-1
 1058 1542 l 1,2,-1
 1059 1521 l 1,3,-1
 708 1243 l 1,4,-1
 497 1243 l 1,5,-1
 212 1523 l 1,6,-1
 211 1543 l 1,7,-1
 485 1537 l 1,8,-1
 603 1404 l 1,0,-1
EndSplineSet
EndChar

StartChar: breve
Encoding: 728 728 362
Width: 909
Flags: W
LayerCount: 2
Back
Fore
SplineSet
947 1540 m 1,0,1
 941 1397 941 1397 834.5 1312 c 128,-1,2
 728 1227 728 1227 571 1231 c 0,3,4
 422 1233 422 1233 328.5 1316.5 c 128,-1,5
 235 1400 235 1400 233 1540 c 1,6,-1
 455 1538 l 1,7,8
 453 1414 453 1414 571 1410 c 0,9,10
 634 1409 634 1409 673.5 1443.5 c 128,-1,11
 713 1478 713 1478 724 1538 c 1,12,-1
 947 1540 l 1,0,1
EndSplineSet
EndChar

StartChar: dotaccent
Encoding: 729 729 363
Width: 556
Flags: W
LayerCount: 2
Back
Fore
SplineSet
239 1373 m 0,0,1
 237 1439 237 1439 284.5 1482.5 c 128,-1,2
 332 1526 332 1526 398 1526 c 0,3,4
 465 1528 465 1528 512 1487.5 c 128,-1,5
 559 1447 559 1447 561 1383 c 128,-1,6
 563 1319 563 1319 517.5 1275 c 128,-1,7
 472 1231 472 1231 403 1231 c 0,8,9
 336 1229 336 1229 288.5 1269.5 c 128,-1,10
 241 1310 241 1310 239 1373 c 0,0,1
EndSplineSet
EndChar

StartChar: ring
Encoding: 730 730 364
Width: 664
Flags: W
LayerCount: 2
Back
Fore
SplineSet
236 1287 m 0,0,1
 234 1375 234 1375 301 1436.5 c 128,-1,2
 368 1498 368 1498 461 1498 c 0,3,4
 547 1498 547 1498 609.5 1440.5 c 128,-1,5
 672 1383 672 1383 672 1301 c 0,6,7
 672 1212 672 1212 606.5 1153 c 128,-1,8
 541 1094 541 1094 449 1094 c 0,9,10
 362 1094 362 1094 300 1149 c 128,-1,11
 238 1204 238 1204 236 1287 c 0,0,1
354 1288 m 0,12,13
 348 1248 348 1248 368.5 1219 c 128,-1,14
 389 1190 389 1190 431 1190 c 0,15,16
 475 1190 475 1190 511.5 1222.5 c 128,-1,17
 548 1255 548 1255 554 1300 c 0,18,19
 560 1339 560 1339 539.5 1369.5 c 128,-1,20
 519 1400 519 1400 477 1400 c 0,21,22
 431 1400 431 1400 395.5 1366.5 c 128,-1,23
 360 1333 360 1333 354 1288 c 0,12,13
EndSplineSet
EndChar

StartChar: ogonek
Encoding: 731 731 365
Width: 636
Flags: W
LayerCount: 2
Back
Fore
SplineSet
306 0 m 1,0,-1
 239 -42 l 2,1,2
 150 -99 150 -99 142 -167 c 0,3,4
 135 -219 135 -219 181 -221 c 0,5,6
 202 -222 202 -222 250 -204 c 1,7,-1
 277 -375 l 1,8,9
 212 -416 212 -416 123 -416 c 0,10,11
 25 -416 25 -416 -36.5 -360 c 128,-1,12
 -98 -304 -98 -304 -98 -210 c 0,13,14
 -98 -128 -98 -128 -49 -62.5 c 128,-1,15
 0 3 0 3 116 61 c 1,16,-1
 306 0 l 1,0,-1
EndSplineSet
EndChar

StartChar: tilde
Encoding: 732 732 366
Width: 967
Flags: W
LayerCount: 2
Back
Fore
SplineSet
998 1533 m 1,0,1
 991 1412 991 1412 925 1334 c 128,-1,2
 859 1256 859 1256 759 1256 c 0,3,4
 723 1256 723 1256 691 1270 c 128,-1,5
 659 1284 659 1284 624.5 1302.5 c 128,-1,6
 590 1321 590 1321 559.5 1333 c 128,-1,7
 529 1345 529 1345 495 1344 c 0,8,9
 428 1341 428 1341 404 1253 c 1,10,-1
 216 1263 l 1,11,12
 223 1380 223 1380 290.5 1460.5 c 128,-1,13
 358 1541 358 1541 457 1539 c 0,14,15
 502 1538 502 1538 577.5 1500 c 128,-1,16
 653 1462 653 1462 675.5 1456.5 c 128,-1,17
 698 1451 698 1451 723 1452 c 0,18,19
 788 1455 788 1455 817 1543 c 1,20,-1
 998 1533 l 1,0,1
EndSplineSet
EndChar

StartChar: hungarumlaut
Encoding: 733 733 367
Width: 867
Flags: W
LayerCount: 2
Back
Fore
SplineSet
785 1535 m 1,0,-1
 1079 1535 l 1,1,-1
 769 1235 l 1,2,-1
 514 1235 l 1,3,-1
 785 1535 l 1,0,-1
382 1535 m 1,4,-1
 677 1535 l 1,5,-1
 394 1235 l 1,6,-1
 138 1235 l 1,7,-1
 382 1535 l 1,4,-1
EndSplineSet
EndChar

StartChar: uni02F3
Encoding: 755 755 368
Width: 658
Flags: W
LayerCount: 2
Back
Fore
SplineSet
8 -231 m 0,0,1
 6 -158 6 -158 61.5 -104.5 c 128,-1,2
 117 -51 117 -51 197 -51 c 0,3,4
 273 -51 273 -51 326.5 -99 c 128,-1,5
 380 -147 380 -147 382 -219 c 0,6,7
 384 -295 384 -295 328.5 -345.5 c 128,-1,8
 273 -396 273 -396 195 -396 c 0,9,10
 119 -396 119 -396 64.5 -349 c 128,-1,11
 10 -302 10 -302 8 -231 c 0,0,1
129 -230 m 0,12,13
 124 -255 124 -255 137.5 -275 c 128,-1,14
 151 -295 151 -295 177 -295 c 0,15,16
 208 -295 208 -295 231 -271.5 c 128,-1,17
 254 -248 254 -248 259 -220 c 0,18,19
 264 -196 264 -196 253 -175 c 128,-1,20
 242 -154 242 -154 215 -153 c 0,21,22
 185 -153 185 -153 159 -177 c 128,-1,23
 133 -201 133 -201 129 -230 c 0,12,13
EndSplineSet
EndChar

StartChar: gravecomb
Encoding: 768 768 369
Width: 10
Flags: W
LayerCount: 2
Back
Fore
SplineSet
-242 1223 m 1,0,-1
 -490 1222 l 1,1,-1
 -715 1534 l 1,2,-1
 -384 1536 l 1,3,-1
 -242 1223 l 1,0,-1
EndSplineSet
EndChar

StartChar: acutecomb
Encoding: 769 769 370
Width: 10
Flags: W
LayerCount: 2
Back
Fore
SplineSet
-326 1536 m 1,0,-1
 43 1535 l 1,1,-1
 -282 1222 l 1,2,-1
 -572 1222 l 1,3,-1
 -326 1536 l 1,0,-1
EndSplineSet
EndChar

StartChar: hookabovecomb
Encoding: 777 777 372
Width: 10
Flags: W
LayerCount: 2
Back
Fore
SplineSet
-610 1275 m 1,0,-1
 -615 1403 l 1,1,-1
 -584 1405 l 2,2,3
 -478 1413 -478 1413 -465 1471 c 0,4,5
 -454 1524 -454 1524 -539 1529 c 2,6,-1
 -582 1530 l 1,7,-1
 -565 1676 l 1,8,-1
 -469 1671 l 1,9,10
 -181 1645 -181 1645 -181 1485 c 0,11,12
 -181 1366 -181 1366 -340 1339 c 1,13,-1
 -349 1274 l 1,14,-1
 -610 1275 l 1,0,-1
EndSplineSet
EndChar

StartChar: uni030F
Encoding: 783 783 373
Width: 10
Flags: W
LayerCount: 2
Back
Fore
SplineSet
-374 1252 m 1,0,-1
 -661 1252 l 1,1,-1
 -890 1518 l 1,2,-1
 -566 1518 l 1,3,-1
 -374 1252 l 1,0,-1
-6 1252 m 1,4,-1
 -294 1252 l 1,5,-1
 -486 1518 l 1,6,-1
 -161 1518 l 1,7,-1
 -6 1252 l 1,4,-1
EndSplineSet
EndChar

StartChar: dotbelowcomb
Encoding: 803 803 374
Width: 10
Flags: W
LayerCount: 2
Back
Fore
SplineSet
-902 -235 m 0,0,1
 -906 -168 -906 -168 -851.5 -124 c 128,-1,2
 -797 -80 -797 -80 -722 -80 c 128,-1,3
 -647 -80 -647 -80 -594 -120 c 128,-1,4
 -541 -160 -541 -160 -539 -225 c 0,5,6
 -537 -294 -537 -294 -590.5 -337 c 128,-1,7
 -644 -380 -644 -380 -719 -380 c 128,-1,8
 -794 -380 -794 -380 -847 -340 c 128,-1,9
 -900 -300 -900 -300 -902 -235 c 0,0,1
EndSplineSet
EndChar

StartChar: tonos
Encoding: 900 900 375
Width: 766
Flags: W
LayerCount: 2
Back
Fore
SplineSet
483 1602 m 1,0,-1
 793 1602 l 1,1,-1
 549 1256 l 1,2,-1
 341 1256 l 1,3,-1
 483 1602 l 1,0,-1
EndSplineSet
EndChar

StartChar: dieresistonos
Encoding: 901 901 376
Width: 1138
Flags: W
LayerCount: 2
Back
Fore
SplineSet
707 1780 m 1,0,-1
 1003 1780 l 1,1,-1
 766 1424 l 1,2,-1
 608 1424 l 1,3,-1
 707 1780 l 1,0,-1
231 1360 m 0,4,5
 229 1418 229 1418 272.5 1458.5 c 128,-1,6
 316 1499 316 1499 375 1499 c 0,7,8
 435 1499 435 1499 479 1462 c 128,-1,9
 523 1425 523 1425 525 1370 c 0,10,11
 527 1312 527 1312 484 1271.5 c 128,-1,12
 441 1231 441 1231 382 1231 c 0,13,14
 321 1231 321 1231 277 1268.5 c 128,-1,15
 233 1306 233 1306 231 1360 c 0,4,5
848 1360 m 0,16,17
 846 1416 846 1416 888 1456.5 c 128,-1,18
 930 1497 930 1497 991 1499 c 0,19,20
 1051 1501 1051 1501 1095.5 1462 c 128,-1,21
 1140 1423 1140 1423 1142 1370 c 0,22,23
 1144 1312 1144 1312 1101 1271.5 c 128,-1,24
 1058 1231 1058 1231 999 1231 c 0,25,26
 938 1231 938 1231 894 1268.5 c 128,-1,27
 850 1306 850 1306 848 1360 c 0,16,17
EndSplineSet
EndChar

StartChar: Gamma
Encoding: 915 915 388
Width: 1118
Flags: W
LayerCount: 2
Back
Fore
SplineSet
1162 1185 m 1,0,-1
 548 1185 l 1,1,-1
 342 0 l 1,2,-1
 0 0 l 1,3,-1
 252 1456 l 1,4,-1
 1209 1456 l 1,5,-1
 1162 1185 l 1,0,-1
EndSplineSet
Substitution2: "'c2sc' Capitals to Small Capitals in Cyrillic lookup 3 subtable" Gamma.c2sc
Substitution2: "'c2sc' Capitals to Small Capitals in Greek lookup 2 subtable" Gamma.c2sc
Substitution2: "'c2sc' Capitals to Small Capitals lookup 1 subtable" Gamma.c2sc
Substitution2: "'c2sc' Capitals to Small Capitals in Latin lookup 0 subtable" Gamma.c2sc
Position2: "'cpsp' Capital Spacing in Cyrillic lookup 3 subtable" dx=36 dy=0 dh=72 dv=0
Position2: "'cpsp' Capital Spacing in Greek lookup 2 subtable" dx=36 dy=0 dh=72 dv=0
Position2: "'cpsp' Capital Spacing lookup 1 subtable" dx=36 dy=0 dh=72 dv=0
Position2: "'cpsp' Capital Spacing in Latin lookup 0 subtable" dx=36 dy=0 dh=72 dv=0
EndChar

StartChar: Delta
Encoding: 8710 8710 389
AltUni2: 000394.ffffffff.0
Width: 1488
Flags: W
LayerCount: 2
Back
Fore
SplineSet
874 1456 m 1,0,-1
 877 1452 l 1,1,-1
 882 1457 l 1,2,-1
 1074 1456 l 1,3,-1
 1376 0 l 1,4,-1
 -96 0 l 1,5,-1
 696 1455 l 1,6,-1
 874 1456 l 1,0,-1
417 272 m 1,7,-1
 978 270 l 1,8,-1
 832 1053 l 1,9,-1
 417 272 l 1,7,-1
EndSplineSet
Substitution2: "'c2sc' Capitals to Small Capitals in Cyrillic lookup 3 subtable" Delta.c2sc
Substitution2: "'c2sc' Capitals to Small Capitals in Greek lookup 2 subtable" Delta.c2sc
Substitution2: "'c2sc' Capitals to Small Capitals lookup 1 subtable" Delta.c2sc
Substitution2: "'c2sc' Capitals to Small Capitals in Latin lookup 0 subtable" Delta.c2sc
Position2: "'cpsp' Capital Spacing in Cyrillic lookup 3 subtable" dx=36 dy=0 dh=72 dv=0
Position2: "'cpsp' Capital Spacing in Greek lookup 2 subtable" dx=36 dy=0 dh=72 dv=0
Position2: "'cpsp' Capital Spacing lookup 1 subtable" dx=36 dy=0 dh=72 dv=0
Position2: "'cpsp' Capital Spacing in Latin lookup 0 subtable" dx=36 dy=0 dh=72 dv=0
EndChar

StartChar: Theta
Encoding: 920 920 393
Width: 1384
Flags: W
LayerCount: 2
Back
Fore
SplineSet
845 589 m 1,0,-1
 536 589 l 1,1,-1
 582 848 l 1,2,-1
 890 848 l 1,3,-1
 845 589 l 1,0,-1
605 -20 m 0,4,5
 396 -16 396 -16 261 110.5 c 128,-1,6
 126 237 126 237 93 458 c 1,7,-1
 86 521 l 1,8,9
 78 639 78 639 103 788.5 c 128,-1,10
 128 938 128 938 192 1068 c 0,11,12
 288 1263 288 1263 452 1371.5 c 128,-1,13
 616 1480 616 1480 821 1476 c 0,14,15
 970 1473 970 1473 1081.5 1407.5 c 128,-1,16
 1193 1342 1193 1342 1260 1219 c 128,-1,17
 1327 1096 1327 1096 1338 939 c 0,18,19
 1344 852 1344 852 1334 763 c 2,20,-1
 1328 718 l 2,21,22
 1282 379 1282 379 1084.5 177 c 128,-1,23
 887 -25 887 -25 605 -20 c 0,4,5
995 943 m 0,24,25
 984 1195 984 1195 801 1202 c 0,26,27
 661 1207 661 1207 570.5 1095 c 128,-1,28
 480 983 480 983 447 762 c 0,29,30
 424 607 424 607 429 513 c 0,31,32
 439 260 439 260 625 253 c 0,33,34
 747 247 747 247 835 340.5 c 128,-1,35
 923 434 923 434 962 612.5 c 128,-1,36
 1001 791 1001 791 995 943 c 0,24,25
EndSplineSet
Substitution2: "'c2sc' Capitals to Small Capitals in Cyrillic lookup 3 subtable" Theta.c2sc
Substitution2: "'c2sc' Capitals to Small Capitals in Greek lookup 2 subtable" Theta.c2sc
Substitution2: "'c2sc' Capitals to Small Capitals lookup 1 subtable" Theta.c2sc
Substitution2: "'c2sc' Capitals to Small Capitals in Latin lookup 0 subtable" Theta.c2sc
Position2: "'cpsp' Capital Spacing in Cyrillic lookup 3 subtable" dx=36 dy=0 dh=72 dv=0
Position2: "'cpsp' Capital Spacing in Greek lookup 2 subtable" dx=36 dy=0 dh=72 dv=0
Position2: "'cpsp' Capital Spacing lookup 1 subtable" dx=36 dy=0 dh=72 dv=0
Position2: "'cpsp' Capital Spacing in Latin lookup 0 subtable" dx=36 dy=0 dh=72 dv=0
EndChar

StartChar: Lambda
Encoding: 923 923 396
Width: 1286
Flags: W
LayerCount: 2
Back
Fore
SplineSet
716 1013 m 1,0,-1
 271 0 l 1,1,-1
 -109 0 l 1,2,-1
 596 1456 l 1,3,-1
 967 1456 l 1,4,-1
 1169 0 l 1,5,-1
 808 0 l 1,6,-1
 716 1013 l 1,0,-1
EndSplineSet
Substitution2: "'c2sc' Capitals to Small Capitals in Cyrillic lookup 3 subtable" Lambda.c2sc
Substitution2: "'c2sc' Capitals to Small Capitals in Greek lookup 2 subtable" Lambda.c2sc
Substitution2: "'c2sc' Capitals to Small Capitals lookup 1 subtable" Lambda.c2sc
Substitution2: "'c2sc' Capitals to Small Capitals in Latin lookup 0 subtable" Lambda.c2sc
Position2: "'cpsp' Capital Spacing in Cyrillic lookup 3 subtable" dx=36 dy=0 dh=72 dv=0
Position2: "'cpsp' Capital Spacing in Greek lookup 2 subtable" dx=36 dy=0 dh=72 dv=0
Position2: "'cpsp' Capital Spacing lookup 1 subtable" dx=36 dy=0 dh=72 dv=0
Position2: "'cpsp' Capital Spacing in Latin lookup 0 subtable" dx=36 dy=0 dh=72 dv=0
EndChar

StartChar: Xi
Encoding: 926 926 399
Width: 1129
Flags: W
LayerCount: 2
Back
Fore
SplineSet
21 270 m 1,0,-1
 1002 270 l 1,1,-1
 954 0 l 1,2,-1
 -26 0 l 1,3,-1
 21 270 l 1,0,-1
250 857 m 1,4,-1
 980 857 l 1,5,-1
 935 600 l 1,6,-1
 205 600 l 1,7,-1
 250 857 l 1,4,-1
261 1456 m 1,8,-1
 1150 1456 l 1,9,-1
 1102 1185 l 1,10,-1
 214 1185 l 1,11,-1
 261 1456 l 1,8,-1
EndSplineSet
Substitution2: "'c2sc' Capitals to Small Capitals in Cyrillic lookup 3 subtable" Xi.c2sc
Substitution2: "'c2sc' Capitals to Small Capitals in Greek lookup 2 subtable" Xi.c2sc
Substitution2: "'c2sc' Capitals to Small Capitals lookup 1 subtable" Xi.c2sc
Substitution2: "'c2sc' Capitals to Small Capitals in Latin lookup 0 subtable" Xi.c2sc
Position2: "'cpsp' Capital Spacing in Cyrillic lookup 3 subtable" dx=36 dy=0 dh=72 dv=0
Position2: "'cpsp' Capital Spacing in Greek lookup 2 subtable" dx=36 dy=0 dh=72 dv=0
Position2: "'cpsp' Capital Spacing lookup 1 subtable" dx=36 dy=0 dh=72 dv=0
Position2: "'cpsp' Capital Spacing in Latin lookup 0 subtable" dx=36 dy=0 dh=72 dv=0
EndChar

StartChar: Pi
Encoding: 928 928 401
Width: 1408
Flags: W
LayerCount: 2
Back
Fore
SplineSet
1190 0 m 1,0,-1
 848 0 l 1,1,-1
 1053 1185 l 1,2,-1
 548 1185 l 1,3,-1
 342 0 l 1,4,-1
 0 0 l 1,5,-1
 252 1456 l 1,6,-1
 1443 1456 l 1,7,-1
 1190 0 l 1,0,-1
EndSplineSet
Substitution2: "'c2sc' Capitals to Small Capitals in Cyrillic lookup 3 subtable" Pi.c2sc
Substitution2: "'c2sc' Capitals to Small Capitals in Greek lookup 2 subtable" Pi.c2sc
Substitution2: "'c2sc' Capitals to Small Capitals lookup 1 subtable" Pi.c2sc
Substitution2: "'c2sc' Capitals to Small Capitals in Latin lookup 0 subtable" Pi.c2sc
Position2: "'cpsp' Capital Spacing in Cyrillic lookup 3 subtable" dx=36 dy=0 dh=72 dv=0
Position2: "'cpsp' Capital Spacing in Greek lookup 2 subtable" dx=36 dy=0 dh=72 dv=0
Position2: "'cpsp' Capital Spacing lookup 1 subtable" dx=36 dy=0 dh=72 dv=0
Position2: "'cpsp' Capital Spacing in Latin lookup 0 subtable" dx=36 dy=0 dh=72 dv=0
EndChar

StartChar: Sigma
Encoding: 931 931 403
Width: 1129
Flags: W
LayerCount: 2
Back
Fore
SplineSet
863 733 m 1,0,-1
 480 271 l 1,1,-1
 1021 269 l 1,2,-1
 974 0 l 1,3,-1
 -34 0 l 1,4,-1
 -5 166 l 1,5,-1
 505 754 l 1,6,-1
 195 1321 l 1,7,-1
 219 1456 l 1,8,-1
 1215 1456 l 1,9,-1
 1167 1185 l 1,10,-1
 630 1185 l 1,11,-1
 863 747 l 1,12,-1
 863 733 l 1,0,-1
EndSplineSet
Substitution2: "'c2sc' Capitals to Small Capitals in Cyrillic lookup 3 subtable" Sigma.c2sc
Substitution2: "'c2sc' Capitals to Small Capitals in Greek lookup 2 subtable" Sigma.c2sc
Substitution2: "'c2sc' Capitals to Small Capitals lookup 1 subtable" Sigma.c2sc
Substitution2: "'c2sc' Capitals to Small Capitals in Latin lookup 0 subtable" Sigma.c2sc
Position2: "'cpsp' Capital Spacing in Cyrillic lookup 3 subtable" dx=36 dy=0 dh=72 dv=0
Position2: "'cpsp' Capital Spacing in Greek lookup 2 subtable" dx=36 dy=0 dh=72 dv=0
Position2: "'cpsp' Capital Spacing lookup 1 subtable" dx=36 dy=0 dh=72 dv=0
Position2: "'cpsp' Capital Spacing in Latin lookup 0 subtable" dx=36 dy=0 dh=72 dv=0
EndChar

StartChar: Phi
Encoding: 934 934 406
Width: 1595
Flags: W
LayerCount: 2
Back
Fore
SplineSet
1087 1290 m 1,0,1
 1315 1274 1315 1274 1445 1117 c 0,2,3
 1573 961 1573 961 1553 726 c 0,4,5
 1538 563 1538 563 1452.5 438 c 128,-1,6
 1367 313 1367 313 1224 242 c 128,-1,7
 1081 171 1081 171 908 164 c 1,8,-1
 871 0 l 1,9,-1
 531 0 l 1,10,-1
 568 165 l 1,11,12
 417 174 417 174 303.5 246 c 128,-1,13
 190 318 190 318 135 439 c 128,-1,14
 80 560 80 560 94 709 c 0,15,16
 109 876 109 876 196.5 1006.5 c 128,-1,17
 284 1137 284 1137 427.5 1211 c 128,-1,18
 571 1285 571 1285 747 1292 c 1,19,-1
 783 1456 l 1,20,-1
 1124 1456 l 1,21,-1
 1087 1290 l 1,0,1
429 707 m 0,22,23
 400 492 400 492 602 458 c 1,24,-1
 709 1001 l 1,25,26
 591 983 591 983 517 905 c 128,-1,27
 443 827 443 827 429 707 c 0,22,23
1221 823 m 0,28,29
 1202 967 1202 967 1052 998 c 1,30,-1
 944 456 l 1,31,32
 1036 467 1036 467 1104 519 c 128,-1,33
 1172 571 1172 571 1201.5 654.5 c 128,-1,34
 1231 738 1231 738 1221 823 c 0,28,29
EndSplineSet
Substitution2: "'c2sc' Capitals to Small Capitals in Cyrillic lookup 3 subtable" Phi.c2sc
Substitution2: "'c2sc' Capitals to Small Capitals in Greek lookup 2 subtable" Phi.c2sc
Substitution2: "'c2sc' Capitals to Small Capitals lookup 1 subtable" Phi.c2sc
Substitution2: "'c2sc' Capitals to Small Capitals in Latin lookup 0 subtable" Phi.c2sc
Position2: "'cpsp' Capital Spacing in Cyrillic lookup 3 subtable" dx=36 dy=0 dh=72 dv=0
Position2: "'cpsp' Capital Spacing in Greek lookup 2 subtable" dx=36 dy=0 dh=72 dv=0
Position2: "'cpsp' Capital Spacing lookup 1 subtable" dx=36 dy=0 dh=72 dv=0
Position2: "'cpsp' Capital Spacing in Latin lookup 0 subtable" dx=36 dy=0 dh=72 dv=0
EndChar

StartChar: Psi
Encoding: 936 936 408
Width: 1491
Flags: W
LayerCount: 2
Back
Fore
SplineSet
946 671 m 1,0,1
 1049 695 1049 695 1111.5 775.5 c 128,-1,2
 1174 856 1174 856 1198 1011 c 2,3,-1
 1272 1456 l 1,4,-1
 1616 1456 l 1,5,-1
 1542 1017 l 1,6,7
 1503 749 1503 749 1338.5 587.5 c 128,-1,8
 1174 426 1174 426 915 403 c 1,9,-1
 837 0 l 1,10,-1
 496 0 l 1,11,-1
 574 402 l 1,12,13
 339 423 339 423 216 594 c 128,-1,14
 93 765 93 765 125 1017 c 1,15,-1
 199 1456 l 1,16,-1
 541 1456 l 1,17,-1
 468 1016 l 2,18,19
 461 964 461 964 460 911 c 0,20,21
 458 821 458 821 495 759.5 c 128,-1,22
 532 698 532 698 605 675 c 1,23,-1
 749 1456 l 1,24,-1
 1090 1456 l 1,25,-1
 946 671 l 1,0,1
EndSplineSet
Substitution2: "'c2sc' Capitals to Small Capitals in Cyrillic lookup 3 subtable" Psi.c2sc
Substitution2: "'c2sc' Capitals to Small Capitals in Greek lookup 2 subtable" Psi.c2sc
Substitution2: "'c2sc' Capitals to Small Capitals lookup 1 subtable" Psi.c2sc
Substitution2: "'c2sc' Capitals to Small Capitals in Latin lookup 0 subtable" Psi.c2sc
Position2: "'cpsp' Capital Spacing in Cyrillic lookup 3 subtable" dx=36 dy=0 dh=72 dv=0
Position2: "'cpsp' Capital Spacing in Greek lookup 2 subtable" dx=36 dy=0 dh=72 dv=0
Position2: "'cpsp' Capital Spacing lookup 1 subtable" dx=36 dy=0 dh=72 dv=0
Position2: "'cpsp' Capital Spacing in Latin lookup 0 subtable" dx=36 dy=0 dh=72 dv=0
EndChar

StartChar: Omega
Encoding: 8486 8486 409
AltUni2: 0003a9.ffffffff.0
Width: 1350
Flags: W
LayerCount: 2
Back
Fore
SplineSet
652 277 m 1,0,1
 754 347 754 347 809.5 492.5 c 128,-1,2
 865 638 865 638 891 932 c 1,3,-1
 894 1001 l 1,4,5
 894 1196 894 1196 769 1203 c 0,6,7
 678 1207 678 1207 618 1128.5 c 128,-1,8
 558 1050 558 1050 534 899 c 2,9,-1
 495 613 l 1,10,-1
 489 525 l 2,11,12
 484 439 484 439 502.5 374.5 c 128,-1,13
 521 310 521 310 562 278 c 1,14,-1
 517 0 l 1,15,-1
 11 0 l 1,16,-1
 61 274 l 1,17,-1
 274 276 l 1,18,19
 147 476 147 476 129 654 c 0,20,21
 122 721 122 721 130 794 c 2,22,-1
 138 855 l 2,23,24
 176 1137 176 1137 358.5 1309 c 128,-1,25
 541 1481 541 1481 793 1475 c 0,26,27
 951 1471 951 1471 1067.5 1392 c 128,-1,28
 1184 1313 1184 1313 1240 1173.5 c 128,-1,29
 1296 1034 1296 1034 1278 869 c 2,30,-1
 1270 807 l 2,31,32
 1225 471 1225 471 938 270 c 1,33,-1
 1155 274 l 1,34,-1
 1107 0 l 1,35,-1
 608 0 l 1,36,-1
 652 277 l 1,0,1
EndSplineSet
Substitution2: "'c2sc' Capitals to Small Capitals in Cyrillic lookup 3 subtable" Omega.c2sc
Substitution2: "'c2sc' Capitals to Small Capitals in Greek lookup 2 subtable" Omega.c2sc
Substitution2: "'c2sc' Capitals to Small Capitals lookup 1 subtable" Omega.c2sc
Substitution2: "'c2sc' Capitals to Small Capitals in Latin lookup 0 subtable" Omega.c2sc
Position2: "'cpsp' Capital Spacing in Cyrillic lookup 3 subtable" dx=36 dy=0 dh=72 dv=0
Position2: "'cpsp' Capital Spacing in Greek lookup 2 subtable" dx=36 dy=0 dh=72 dv=0
Position2: "'cpsp' Capital Spacing lookup 1 subtable" dx=36 dy=0 dh=72 dv=0
Position2: "'cpsp' Capital Spacing in Latin lookup 0 subtable" dx=36 dy=0 dh=72 dv=0
EndChar

StartChar: alpha
Encoding: 945 945 417
Width: 1127
Flags: W
LayerCount: 2
Back
Fore
SplineSet
1094 1082 m 1,0,-1
 973 367 l 2,1,2
 966 316 966 316 968 294 c 0,3,4
 970 247 970 247 1006 244 c 2,5,-1
 1015 244 l 1,6,-1
 1022 246 l 1,7,-1
 1024 -1 l 1,8,9
 973 -21 973 -21 909 -19 c 0,10,11
 813 -17 813 -17 748 27 c 128,-1,12
 683 71 683 71 660 148 c 1,13,14
 591 53 591 53 525.5 14.5 c 128,-1,15
 460 -24 460 -24 384 -22 c 0,16,17
 229 -20 229 -20 138 91 c 128,-1,18
 47 202 47 202 40 392 c 0,19,20
 37 455 37 455 44 515 c 2,21,-1
 46 537 l 1,22,23
 77 792 77 792 205.5 949.5 c 128,-1,24
 334 1107 334 1107 533 1102 c 0,25,26
 680 1098 680 1098 751 956 c 1,27,-1
 803 1082 l 1,28,-1
 1094 1082 l 1,0,-1
376 511 m 1,29,-1
 370 430 l 1,30,-1
 369 399 l 1,31,32
 372 244 372 244 481 240 c 0,33,34
 556 237 556 237 626 302 c 1,35,-1
 713 770 l 1,36,37
 679 841 679 841 598 844 c 0,38,39
 509 846 509 846 452.5 765 c 128,-1,40
 396 684 396 684 379 532 c 1,41,-1
 376 511 l 1,29,-1
EndSplineSet
Substitution2: "'ss02' Style Set 2 in Cyrillic lookup 26 subtable" alpha.ss02
Substitution2: "'ss02' Style Set 2 in Greek lookup 25 subtable" alpha.ss02
Substitution2: "'ss02' Style Set 2 lookup 24 subtable" alpha.ss02
Substitution2: "'ss02' Style Set 2 in Latin lookup 23 subtable" alpha.ss02
EndChar

StartChar: beta
Encoding: 946 946 418
Width: 1216
Flags: W
LayerCount: 2
Back
Fore
SplineSet
748 1477 m 0,0,1
 958 1472 958 1472 1072 1368 c 128,-1,2
 1186 1264 1186 1264 1174 1090 c 0,3,4
 1160 878 1160 878 932 755 c 1,5,6
 1034 707 1034 707 1079.5 617.5 c 128,-1,7
 1125 528 1125 528 1118 417 c 0,8,9
 1106 216 1106 216 974.5 95.5 c 128,-1,10
 843 -25 843 -25 638 -21 c 0,11,12
 499 -19 499 -19 373 53 c 1,13,-1
 282 -415 l 1,14,-1
 -47 -415 l 1,15,-1
 198 1018 l 1,16,17
 226 1225 226 1225 379.5 1352 c 128,-1,18
 533 1479 533 1479 748 1477 c 0,0,1
647 855 m 1,19,20
 813 859 813 859 837 1060 c 0,21,22
 844 1134 844 1134 814 1175.5 c 128,-1,23
 784 1217 784 1217 725 1219 c 0,24,25
 651 1221 651 1221 598 1168 c 128,-1,26
 545 1115 545 1115 529 1025 c 2,27,-1
 399 278 l 1,28,29
 463 238 463 238 567 238 c 0,30,31
 655 238 655 238 719.5 290.5 c 128,-1,32
 784 343 784 343 795 424 c 0,33,34
 802 467 802 467 797 504 c 0,35,36
 781 618 781 618 649 624 c 1,37,-1
 572 625 l 1,38,-1
 595 857 l 1,39,-1
 647 855 l 1,19,20
EndSplineSet
EndChar

StartChar: gamma
Encoding: 947 947 419
Width: 1031
Flags: W
LayerCount: 2
Back
Fore
SplineSet
469 375 m 1,0,-1
 750 1082 l 1,1,-1
 1106 1082 l 1,2,-1
 579 0 l 1,3,-1
 572 0 l 1,4,-1
 495 -417 l 1,5,-1
 165 -417 l 1,6,-1
 246 0 l 1,7,-1
 243 0 l 1,8,-1
 88 1082 l 1,9,-1
 426 1082 l 1,10,-1
 469 375 l 1,0,-1
EndSplineSet
EndChar

StartChar: delta
Encoding: 948 948 420
Width: 1126
Flags: W
LayerCount: 2
Back
Fore
SplineSet
287 1236 m 0,0,1
 294 1395 294 1395 418 1487 c 128,-1,2
 542 1579 542 1579 736 1577 c 0,3,4
 824 1576 824 1576 993 1534 c 1,5,-1
 968 1291 l 1,6,7
 847 1337 847 1337 767 1335 c 0,8,9
 696 1335 696 1335 648.5 1311.5 c 128,-1,10
 601 1288 601 1288 590 1244 c 0,11,12
 571 1175 571 1175 676 1132 c 1,13,14
 906 1024 906 1024 999 883 c 128,-1,15
 1092 742 1092 742 1073 553 c 2,16,-1
 1071 532 l 2,17,18
 1052 371 1052 371 970.5 242.5 c 128,-1,19
 889 114 889 114 762 45 c 128,-1,20
 635 -24 635 -24 484 -20 c 0,21,22
 340 -17 340 -17 234 50 c 128,-1,23
 128 117 128 117 77 237 c 128,-1,24
 26 357 26 357 38 507 c 0,25,26
 56 692 56 692 158.5 814 c 128,-1,27
 261 936 261 936 420 967 c 1,28,-1
 417 981 l 1,29,30
 281 1084 281 1084 287 1236 c 0,0,1
370 482 m 2,31,32
 363 373 363 373 398.5 306 c 128,-1,33
 434 239 434 239 507 237 c 0,34,35
 600 234 600 234 664 319 c 128,-1,36
 728 404 728 404 746 550 c 2,37,-1
 749 570 l 2,38,39
 753 612 753 612 750 657 c 0,40,41
 745 732 745 732 710 787 c 128,-1,42
 675 842 675 842 616 863 c 1,43,44
 517 858 517 858 454.5 775.5 c 128,-1,45
 392 693 392 693 376 561 c 1,46,-1
 370 482 l 2,31,32
EndSplineSet
EndChar

StartChar: epsilon
Encoding: 949 949 421
Width: 1134
Flags: W
LayerCount: 2
Back
Fore
SplineSet
581 451 m 1,0,1
 396 445 396 445 374 329 c 0,2,3
 364 281 364 281 403.5 249.5 c 128,-1,4
 443 218 443 218 506 218 c 0,5,6
 663 218 663 218 689 320 c 1,7,-1
 1021 321 l 1,8,9
 1011 156 1011 156 868 65.5 c 128,-1,10
 725 -25 725 -25 517 -21 c 0,11,12
 375 -18 375 -18 262 23.5 c 128,-1,13
 149 65 149 65 93.5 134.5 c 128,-1,14
 38 204 38 204 41 298 c 0,15,16
 44 389 44 389 103.5 455 c 128,-1,17
 163 521 163 521 285 564 c 1,18,19
 220 599 220 599 181 655 c 128,-1,20
 142 711 142 711 142 777 c 0,21,22
 143 874 143 874 205 947.5 c 128,-1,23
 267 1021 267 1021 392 1062.5 c 128,-1,24
 517 1104 517 1104 669 1101 c 0,25,26
 859 1096 859 1096 974.5 1006 c 128,-1,27
 1090 916 1090 916 1093 766 c 1,28,-1
 769 767 l 1,29,30
 766 860 766 860 636 860 c 0,31,32
 572 860 572 860 522 830 c 128,-1,33
 472 800 472 800 462 748 c 0,34,35
 447 664 447 664 582 658 c 1,36,-1
 771 657 l 1,37,-1
 735 450 l 1,38,-1
 581 451 l 1,0,1
EndSplineSet
EndChar

StartChar: zeta
Encoding: 950 950 422
Width: 981
Flags: W
LayerCount: 2
Back
Fore
SplineSet
1102 1456 m 1,0,-1
 1068 1264 l 1,1,-1
 599 793 l 1,2,3
 455 641 455 641 413 508 c 0,4,5
 385 419 385 419 394 366 c 0,6,7
 405 290 405 290 509 251.5 c 128,-1,8
 613 213 613 213 651 197 c 0,9,10
 824 124 824 124 816 -29 c 0,11,12
 806 -220 806 -220 523 -393 c 1,13,-1
 360 -265 l 1,14,-1
 389 -236 l 2,15,16
 458 -165 458 -165 474 -99 c 0,17,18
 483 -61 483 -61 468.5 -43 c 128,-1,19
 454 -25 454 -25 419 -13 c 2,20,-1
 368 3 l 2,21,22
 38 107 38 107 59 373 c 0,23,24
 77 612 77 612 286 852 c 1,25,-1
 402 979 l 1,26,-1
 624 1196 l 1,27,-1
 170 1198 l 1,28,-1
 215 1456 l 1,29,-1
 1102 1456 l 1,0,-1
EndSplineSet
EndChar

StartChar: eta
Encoding: 951 951 423
Width: 1126
Flags: W
LayerCount: 2
Back
Fore
SplineSet
478 1083 m 1,0,-1
 454 945 l 1,1,2
 585 1105 585 1105 767 1103 c 0,3,4
 912 1100 912 1100 985.5 998 c 128,-1,5
 1059 896 1059 896 1047 715 c 2,6,-1
 1045 691 l 1,7,-1
 857 -416 l 1,8,-1
 527 -416 l 1,9,-1
 717 693 l 1,10,-1
 719 746 l 1,11,12
 712 836 712 836 627 841 c 0,13,14
 536 845 536 845 449 771 c 1,15,-1
 311 0 l 1,16,-1
 -18 0 l 1,17,-1
 170 1082 l 1,18,-1
 478 1083 l 1,0,-1
EndSplineSet
EndChar

StartChar: theta
Encoding: 952 952 424
Width: 1204
Flags: W
LayerCount: 2
Back
Fore
SplineSet
514 -20 m 0,0,1
 341 -16 341 -16 234.5 87 c 128,-1,2
 128 190 128 190 106 373 c 0,3,4
 92 482 92 482 106 595 c 2,5,-1
 147 860 l 2,6,7
 190 1155 190 1155 340.5 1318 c 128,-1,8
 491 1481 491 1481 727 1476 c 0,9,10
 918 1472 918 1472 1025.5 1347 c 128,-1,11
 1133 1222 1133 1222 1139 1010 c 0,12,13
 1141 936 1141 936 1132 861 c 2,14,-1
 1094 608 l 2,15,16
 1047 298 1047 298 896.5 136.5 c 128,-1,17
 746 -25 746 -25 514 -20 c 0,0,1
774 612 m 1,18,-1
 442 612 l 1,19,20
 420 482 420 482 420 429 c 0,21,22
 415 245 415 245 536 238 c 0,23,24
 689 231 689 231 743 459 c 1,25,-1
 762 552 l 1,26,-1
 774 612 l 1,18,-1
467 858 m 1,27,-1
 799 858 l 1,28,-1
 808 906 l 2,29,30
 818 967 818 967 820 1028 c 0,31,32
 825 1211 825 1211 704 1218 c 0,33,34
 548 1226 548 1226 492 987 c 1,35,-1
 475 905 l 1,36,-1
 467 858 l 1,27,-1
EndSplineSet
EndChar

StartChar: iota
Encoding: 953 953 425
Width: 687
Flags: W
LayerCount: 2
Back
Fore
SplineSet
522 1082 m 1,0,-1
 402 358 l 1,1,-1
 400 314 l 1,2,3
 403 258 403 258 475 255 c 0,4,5
 497 254 497 254 558 260 c 1,6,-1
 535 16 l 1,7,8
 446 -11 446 -11 357 -10 c 0,9,10
 204 -8 204 -8 128 80 c 128,-1,11
 52 168 52 168 66 320 c 1,12,-1
 193 1082 l 1,13,-1
 522 1082 l 1,0,-1
EndSplineSet
EndChar

StartChar: lambda
Encoding: 955 955 427
Width: 1093
Flags: W
LayerCount: 2
Back
Fore
SplineSet
433 1555 m 0,0,1
 529 1553 529 1553 596 1507.5 c 128,-1,2
 663 1462 663 1462 689 1381 c 1,3,-1
 911 366 l 2,4,5
 926 297 926 297 945 272 c 128,-1,6
 964 247 964 247 993 244 c 2,7,-1
 1030 243 l 1,8,-1
 1003 -15 l 1,9,-1
 947 -18 l 1,10,-1
 921 -18 l 1,11,12
 656 -14 656 -14 603 214 c 1,13,-1
 535 615 l 1,14,-1
 245 0 l 1,15,-1
 -117 0 l 1,16,-1
 447 1094 l 1,17,-1
 417 1207 l 2,18,19
 402 1256 402 1256 368 1276 c 128,-1,20
 334 1296 334 1296 272 1292 c 2,21,-1
 238 1290 l 1,22,-1
 252 1533 l 1,23,24
 340 1557 340 1557 433 1555 c 0,0,1
EndSplineSet
EndChar

StartChar: xi
Encoding: 958 958 430
Width: 1106
Flags: W
LayerCount: 2
Back
Fore
SplineSet
1031 1171 m 1,0,1
 938 1197 938 1197 898.5 1204 c 128,-1,2
 859 1211 859 1211 818 1210 c 0,3,4
 734 1210 734 1210 677 1175.5 c 128,-1,5
 620 1141 620 1141 608 1076 c 0,6,7
 588 967 588 967 746 961 c 1,8,-1
 915 960 l 1,9,-1
 867 689 l 1,10,-1
 745 690 l 2,11,12
 604 690 604 690 514.5 628 c 128,-1,13
 425 566 425 566 410 456 c 0,14,15
 400 384 400 384 438 335.5 c 128,-1,16
 476 287 476 287 578 255 c 2,17,-1
 677 227 l 2,18,19
 816 186 816 186 872.5 123.5 c 128,-1,20
 929 61 929 61 925 -30 c 0,21,22
 920 -120 920 -120 847 -213.5 c 128,-1,23
 774 -307 774 -307 631 -394 c 1,24,-1
 469 -266 l 1,25,26
 569 -166 569 -166 583 -100 c 0,27,28
 595 -45 595 -45 529 -15 c 1,29,-1
 393 36 l 1,30,-1
 319 67 l 2,31,32
 183 126 183 126 125.5 215.5 c 128,-1,33
 68 305 68 305 77 441 c 0,34,35
 87 580 87 580 173.5 675 c 128,-1,36
 260 770 260 770 431 828 c 1,37,38
 278 907 278 907 284 1070 c 0,39,40
 291 1252 291 1252 430 1365 c 128,-1,41
 569 1478 569 1478 786 1478 c 0,42,43
 938 1476 938 1476 1110 1421 c 1,44,-1
 1031 1171 l 1,0,1
EndSplineSet
EndChar

StartChar: pi
Encoding: 960 960 432
Width: 1340
Flags: W
LayerCount: 2
Back
Fore
SplineSet
1321 840 m 1,0,-1
 1143 840 l 1,1,-1
 1061 360 l 1,2,-1
 1059 315 l 1,3,4
 1062 258 1062 258 1136 255 c 0,5,6
 1156 254 1156 254 1221 260 c 1,7,-1
 1197 16 l 1,8,9
 1110 -11 1110 -11 1019 -10 c 0,10,11
 865 -7 865 -7 789.5 79.5 c 128,-1,12
 714 166 714 166 728 320 c 1,13,-1
 813 840 l 1,14,-1
 605 840 l 1,15,-1
 459 0 l 1,16,-1
 130 0 l 1,17,-1
 276 840 l 1,18,-1
 99 840 l 1,19,-1
 141 1082 l 1,20,-1
 1364 1082 l 1,21,-1
 1321 840 l 1,0,-1
EndSplineSet
EndChar

StartChar: rho
Encoding: 961 961 433
Width: 1126
Flags: W
LayerCount: 2
Back
Fore
SplineSet
86 578 m 1,0,1
 108 733 108 733 186.5 854.5 c 128,-1,2
 265 976 265 976 388 1041 c 128,-1,3
 511 1106 511 1106 660 1102 c 0,4,5
 854 1097 854 1097 961 960 c 128,-1,6
 1068 823 1068 823 1059 589 c 1,7,-1
 1056 542 l 1,8,-1
 1054 520 l 1,9,10
 1024 273 1024 273 896 123.5 c 128,-1,11
 768 -26 768 -26 573 -21 c 0,12,13
 428 -16 428 -16 345 101 c 1,14,-1
 246 -416 l 1,15,-1
 -84 -416 l 1,16,-1
 86 578 l 1,0,1
370 305 m 1,17,18
 410 238 410 238 510 236 c 0,19,20
 597 234 597 234 653 306.5 c 128,-1,21
 709 379 709 379 724 520 c 1,22,-1
 725 541 l 2,23,24
 732 622 732 622 732 660 c 0,25,26
 727 838 727 838 614 844 c 0,27,28
 453 853 453 853 409 543 c 1,29,-1
 370 305 l 1,17,18
EndSplineSet
EndChar

StartChar: sigma1
Encoding: 962 962 434
Width: 1006
Flags: W
LayerCount: 2
Back
Fore
SplineSet
607 1102 m 0,0,1
 796 1098 796 1098 900.5 981 c 128,-1,2
 1005 864 1005 864 1001 667 c 1,3,-1
 692 667 l 1,4,5
 698 837 698 837 584 843 c 0,6,7
 403 852 403 852 364 550 c 0,8,9
 357 472 357 472 359 437 c 0,10,11
 362 312 362 312 480 260 c 1,12,-1
 596 215 l 2,13,14
 770 146 770 146 768 -10 c 0,15,16
 766 -104 766 -104 687 -202 c 128,-1,17
 608 -300 608 -300 480 -375 c 1,18,-1
 313 -246 l 1,19,-1
 345 -214 l 2,20,21
 419 -140 419 -140 429 -79 c 0,22,23
 439 -17 439 -17 385 6 c 0,24,25
 235 71 235 71 159 141 c 128,-1,26
 83 211 83 211 52.5 304.5 c 128,-1,27
 22 398 22 398 34 527 c 1,28,-1
 37 550 l 2,29,30
 56 715 56 715 135 843.5 c 128,-1,31
 214 972 214 972 335.5 1039 c 128,-1,32
 457 1106 457 1106 607 1102 c 0,0,1
EndSplineSet
EndChar

StartChar: sigma
Encoding: 963 963 435
Width: 1151
Flags: W
LayerCount: 2
Back
Fore
SplineSet
1153 822 m 1,0,-1
 914 820 l 1,1,-1
 954 759 l 1,2,3
 1031 634 1031 634 1023 513 c 0,4,5
 1001 266 1001 266 849.5 120.5 c 128,-1,6
 698 -25 698 -25 472 -21 c 0,7,8
 264 -18 264 -18 144 120 c 128,-1,9
 24 258 24 258 32 481 c 1,10,-1
 35 527 l 1,11,-1
 38 549 l 1,12,13
 66 789 66 789 223.5 934.5 c 128,-1,14
 381 1080 381 1080 625 1084 c 1,15,-1
 626 1081 l 1,16,-1
 626 1083 l 1,17,-1
 1200 1082 l 1,18,-1
 1153 822 l 1,0,-1
361 465 m 0,19,20
 347 241 347 241 495 237 c 0,21,22
 591 234 591 234 645 329.5 c 128,-1,23
 699 425 699 425 708 621 c 1,24,-1
 709 664 l 1,25,26
 704 816 704 816 594 823 c 0,27,28
 478 827 478 827 414 710 c 0,29,30
 368 626 368 626 361 465 c 0,19,20
EndSplineSet
EndChar

StartChar: tau
Encoding: 964 964 436
Width: 1040
Flags: W
LayerCount: 2
Back
Fore
SplineSet
1048 824 m 1,0,-1
 708 824 l 1,1,-1
 627 349 l 1,2,-1
 625 311 l 2,3,4
 622 248 622 248 683 245 c 0,5,6
 715 242 715 242 780 256 c 1,7,-1
 780 2 l 1,8,9
 694 -22 694 -22 608 -18 c 0,10,11
 446 -14 446 -14 364.5 86 c 128,-1,12
 283 186 283 186 299 351 c 1,13,-1
 377 824 l 1,14,-1
 60 824 l 1,15,-1
 105 1082 l 1,16,-1
 1093 1082 l 1,17,-1
 1048 824 l 1,0,-1
EndSplineSet
EndChar

StartChar: upsilon
Encoding: 965 965 437
Width: 1093
Flags: W
LayerCount: 2
Back
Fore
SplineSet
517 1082 m 1,0,-1
 408 407 l 1,1,-1
 404 361 l 2,2,3
 399 310 399 310 413.5 275 c 128,-1,4
 428 240 428 240 463 238 c 0,5,6
 574 229 574 229 645.5 385.5 c 128,-1,7
 717 542 717 542 719 829 c 0,8,9
 719 959 719 959 691 1085 c 1,10,-1
 987 1083 l 1,11,12
 1046 912 1046 912 1035 700 c 1,13,-1
 1028 612 l 1,14,15
 996 303 996 303 841.5 138 c 128,-1,16
 687 -27 687 -27 446 -22 c 0,17,18
 255 -18 255 -18 156 99.5 c 128,-1,19
 57 217 57 217 77 412 c 1,20,-1
 189 1082 l 1,21,-1
 517 1082 l 1,0,-1
EndSplineSet
EndChar

StartChar: phi
Encoding: 966 966 438
Width: 1530
Flags: W
LayerCount: 2
Back
Fore
SplineSet
504 -6 m 1,0,1
 266 34 266 34 146 197 c 128,-1,2
 26 360 26 360 54 600 c 0,3,4
 71 747 71 747 140.5 877.5 c 128,-1,5
 210 1008 210 1008 324 1102 c 1,6,-1
 552 939 l 1,7,8
 373 722 373 722 376 491 c 0,9,10
 376 405 376 405 416.5 345 c 128,-1,11
 457 285 457 285 534 257 c 1,12,-1
 628 786 l 1,13,14
 647 928 647 928 748.5 1017.5 c 128,-1,15
 850 1107 850 1107 984 1105 c 0,16,17
 1122 1103 1122 1103 1233 1045.5 c 128,-1,18
 1344 988 1344 988 1407 886 c 0,19,20
 1492 748 1492 748 1472 571 c 0,21,22
 1455 408 1455 408 1371.5 283.5 c 128,-1,23
 1288 159 1288 159 1150.5 84 c 128,-1,24
 1013 9 1013 9 833 -11 c 1,25,-1
 744 -478 l 1,26,-1
 414 -478 l 1,27,-1
 504 -6 l 1,0,1
862 251 m 1,28,29
 1111 323 1111 323 1143 573 c 1,30,-1
 1146 622 l 2,31,32
 1150 731 1150 731 1118 791.5 c 128,-1,33
 1086 852 1086 852 1022 844 c 0,34,35
 996 840 996 840 983.5 829 c 128,-1,36
 971 818 971 818 965 794 c 2,37,-1
 862 251 l 1,28,29
EndSplineSet
EndChar

StartChar: psi
Encoding: 968 968 440
Width: 1532
Flags: W
LayerCount: 2
Back
Fore
SplineSet
1017 1082 m 1,0,-1
 865 255 l 1,1,2
 1109 334 1109 334 1155 607 c 0,3,4
 1174 722 1174 722 1169 851 c 0,5,6
 1164 970 1164 970 1133 1085 c 1,7,-1
 1415 1082 l 1,8,9
 1514 878 1514 878 1483 612 c 128,-1,10
 1452 346 1452 346 1279.5 183.5 c 128,-1,11
 1107 21 1107 21 835 -10 c 1,12,-1
 746 -478 l 1,13,-1
 417 -478 l 1,14,-1
 507 -6 l 1,15,16
 278 31 278 31 159.5 188 c 128,-1,17
 41 345 41 345 70 587 c 1,18,-1
 153 1082 l 1,19,-1
 483 1082 l 1,20,-1
 399 583 l 2,21,22
 392 532 392 532 394 483 c 0,23,24
 397 315 397 315 537 259 c 1,25,-1
 688 1082 l 1,26,-1
 1017 1082 l 1,0,-1
EndSplineSet
EndChar

StartChar: omega
Encoding: 969 969 441
Width: 1639
Flags: W
LayerCount: 2
Back
Fore
SplineSet
599 1081 m 1,0,-1
 501 884 l 2,1,2
 423 720 423 720 398.5 595 c 128,-1,3
 374 470 374 470 378 377 c 0,4,5
 382 243 382 243 459 238 c 0,6,7
 523 232 523 232 568 295 c 128,-1,8
 613 358 613 358 632 500 c 2,9,-1
 692 872 l 1,10,-1
 1044 872 l 1,11,-1
 985 500 l 1,12,-1
 978 403 l 2,13,14
 975 329 975 329 997.5 285 c 128,-1,15
 1020 241 1020 241 1066 239 c 0,16,17
 1131 237 1131 237 1174 306.5 c 128,-1,18
 1217 376 1217 376 1240 534 c 128,-1,19
 1263 692 1263 692 1253 832 c 0,20,21
 1244 962 1244 962 1197 1086 c 1,22,-1
 1490 1082 l 1,23,24
 1602 866 1602 866 1568 572 c 0,25,26
 1533 278 1533 278 1399 125 c 128,-1,27
 1265 -28 1265 -28 1049 -21 c 0,28,29
 952 -19 952 -19 874 34 c 128,-1,30
 796 87 796 87 764 181 c 1,31,32
 619 -25 619 -25 424 -22 c 0,33,34
 245 -18 245 -18 149.5 95 c 128,-1,35
 54 208 54 208 51 421 c 0,36,37
 48 606 48 606 106.5 768 c 128,-1,38
 165 930 165 930 284 1081 c 1,39,-1
 599 1081 l 1,0,-1
EndSplineSet
EndChar

StartChar: theta1
Encoding: 977 977 447
Width: 1209
Flags: W
LayerCount: 2
Back
Fore
SplineSet
1214 561 m 1,0,-1
 1108 538 l 1,1,-1
 1097 465 l 2,2,3
 1075 320 1075 320 994 207.5 c 128,-1,4
 913 95 913 95 788.5 35.5 c 128,-1,5
 664 -24 664 -24 518 -20 c 0,6,7
 387 -17 387 -17 284 47.5 c 128,-1,8
 181 112 181 112 130.5 224 c 128,-1,9
 80 336 80 336 95 466 c 1,10,-1
 128 679 l 1,11,-1
 437 679 l 1,12,-1
 403 464 l 2,13,14
 392 373 392 373 436.5 312 c 128,-1,15
 481 251 481 251 563 249 c 0,16,17
 702 246 702 246 748 474 c 2,18,-1
 760 534 l 1,19,20
 592 586 592 586 498 719.5 c 128,-1,21
 404 853 404 853 416 1029 c 2,22,-1
 418 1055 l 1,23,24
 437 1246 437 1246 563 1364 c 128,-1,25
 689 1482 689 1482 866 1476 c 0,26,27
 976 1474 976 1474 1053.5 1417 c 128,-1,28
 1131 1360 1131 1360 1165.5 1260 c 128,-1,29
 1200 1160 1200 1160 1185 1038 c 1,30,-1
 1146 819 l 1,31,-1
 1232 838 l 1,32,-1
 1214 561 l 1,0,-1
720 1048 m 2,33,34
 713 984 713 984 727.5 929.5 c 128,-1,35
 742 875 742 875 796 836 c 1,36,-1
 841 1080 l 1,37,38
 846 1133 846 1133 846 1142 c 0,39,40
 841 1184 841 1184 814 1187 c 0,41,42
 782 1190 782 1190 757.5 1160 c 128,-1,43
 733 1130 733 1130 723 1075 c 2,44,-1
 720 1048 l 2,33,34
EndSplineSet
EndChar

StartChar: Upsilon1
Encoding: 978 978 448
Width: 1247
Flags: W
LayerCount: 2
Back
Fore
SplineSet
643 773 m 1,0,-1
 871 1222 l 1,1,2
 997 1494 997 1494 1240 1490 c 0,3,4
 1298 1489 1298 1489 1403 1463 c 1,5,-1
 1338 1209 l 1,6,7
 1300 1214 1300 1214 1279 1213 c 0,8,9
 1204 1209 1204 1209 1161 1139 c 2,10,-1
 761 442 l 1,11,-1
 685 0 l 1,12,-1
 340 0 l 1,13,-1
 423 475 l 1,14,-1
 274 1140 l 1,15,16
 255 1203 255 1203 193 1207 c 1,17,-1
 131 1204 l 1,18,-1
 121 1465 l 1,19,20
 191 1487 191 1487 265 1487 c 0,21,22
 387 1485 387 1485 460.5 1416 c 128,-1,23
 534 1347 534 1347 563 1232 c 1,24,-1
 643 773 l 1,0,-1
EndSplineSet
EndChar

StartChar: omega1
Encoding: 982 982 450
Width: 1698
Flags: W
LayerCount: 2
Back
Fore
SplineSet
1751 860 m 1,0,-1
 1636 862 l 1,1,-1
 1637 716 l 1,2,3
 1633 568 1633 568 1599 426 c 128,-1,4
 1565 284 1565 284 1497 180 c 128,-1,5
 1429 76 1429 76 1329.5 25.5 c 128,-1,6
 1230 -25 1230 -25 1103 -22 c 0,7,8
 996 -20 996 -20 912.5 36.5 c 128,-1,9
 829 93 829 93 796 190 c 1,10,11
 645 -29 645 -29 432 -22 c 0,12,13
 267 -18 267 -18 171 79 c 128,-1,14
 75 176 75 176 59 352 c 0,15,16
 32 630 32 630 165 864 c 1,17,-1
 40 861 l 1,18,-1
 80 1082 l 1,19,-1
 1793 1082 l 1,20,-1
 1751 860 l 1,0,-1
1304 571 m 2,21,22
 1320 696 1320 696 1315 860 c 1,23,-1
 496 862 l 1,24,25
 374 610 374 610 384 376 c 0,26,27
 388 243 388 243 466 238 c 0,28,29
 617 226 617 226 662 493 c 1,30,-1
 690 684 l 1,31,-1
 1042 684 l 1,32,-1
 1014 500 l 2,33,34
 1008 434 1008 434 1009 397 c 0,35,36
 1014 242 1014 242 1117 239 c 0,37,38
 1242 235 1242 235 1289 476 c 1,39,-1
 1304 571 l 2,21,22
EndSplineSet
EndChar

